<?xml version="1.0" standalone="no"?>
<!DOCTYPE svg PUBLIC "-//W3C//DTD SVG 20010904//EN"
 "http://www.w3.org/TR/2001/REC-SVG-20010904/DTD/svg10.dtd">
<svg version="1.0" xmlns="http://www.w3.org/2000/svg"
 width="144.000000pt" height="124.000000pt" viewBox="0 0 144.000000 124.000000"
 preserveAspectRatio="xMidYMid meet">

<g transform="translate(0.000000,124.000000) scale(0.100000,-0.100000)"
fill="#FF4C29" stroke="none">
<path d="M565 1208 c-85 -16 -189 -73 -266 -145 -141 -134 -200 -335 -150
-519 25 -95 63 -170 117 -232 168 -192 465 -243 680 -117 24 14 48 25 54 25
23 0 108 -81 113 -109 9 -42 38 -71 78 -77 30 -5 41 -2 67 22 30 28 36 44 33
90 -2 35 -49 74 -89 74 -24 0 -49 10 -78 32 -24 18 -44 36 -44 40 0 4 18 31
40 60 232 306 65 754 -317 853 -63 17 -161 18 -238 3z m57 -127 c-126 -100
-192 -239 -192 -406 0 -166 78 -320 214 -423 16 -12 27 -24 25 -26 -14 -14
-95 17 -143 53 -65 50 -99 92 -131 164 -108 235 -51 490 140 634 48 36 60 41
103 42 l34 1 -50 -39z m220 12 c99 -38 190 -123 238 -219 43 -88 38 -110 -9
-37 -71 109 -188 189 -316 216 -30 6 -55 15 -55 20 0 10 58 36 82 37 10 0 37
-8 60 -17z m-432 -67 c0 -2 -16 -27 -35 -56 -52 -78 -79 -175 -79 -295 -1
-116 24 -209 80 -297 18 -29 31 -55 28 -57 -8 -8 -64 52 -100 107 -119 178
-102 391 44 554 38 41 62 59 62 44z m321 -16 c117 -22 258 -119 316 -217 32
-56 63 -154 63 -201 l-1 -37 -17 45 c-43 113 -105 193 -195 251 -80 52 -153
72 -259 73 -49 1 -88 4 -88 7 0 3 16 24 36 47 39 46 53 49 145 32z m-120 -148
c-13 -9 -45 -37 -72 -61 -27 -24 -51 -42 -53 -40 -2 2 3 26 11 52 15 53 34 66
98 66 l40 0 -24 -17z m202 -22 c4 -3 -27 -24 -68 -45 -88 -44 -164 -120 -210
-208 -16 -31 -33 -53 -38 -48 -4 4 -10 31 -14 59 -5 46 -3 57 22 92 42 61 110
118 176 150 52 24 65 27 92 18 18 -6 35 -14 40 -18z m121 -79 c39 -39 39 -40
33 -102 -12 -139 -132 -298 -269 -357 -39 -16 -46 4 -12 31 130 102 194 227
194 382 0 47 4 85 8 85 4 0 25 -18 46 -39z m-94 -25 c0 -43 -1 -44 -54 -70
-68 -33 -153 -116 -195 -190 -55 -95 -73 -36 -22 69 49 102 105 160 206 213
58 31 65 29 65 -22z m216 -180 c8 -28 14 -64 14 -79 0 -31 -54 -117 -73 -117
-7 1 -27 13 -45 29 l-32 28 35 59 c20 32 43 83 52 113 18 62 25 57 49 -33z
m-226 70 c0 -19 -37 -97 -66 -142 -38 -57 -124 -134 -150 -134 -31 0 -11 65
43 142 42 58 173 160 173 134z m63 -309 c26 -21 21 -31 -28 -55 -47 -23 -73
-26 -112 -16 -31 8 -29 19 6 34 16 6 41 24 56 40 29 30 35 30 78 -3z"/>
</g>
</svg>
