<svg width="207" height="116" viewBox="0 0 207 116" fill="none" xmlns="http://www.w3.org/2000/svg">
<path d="M9.288 70.782C9.288 71.382 9.108 71.85 8.748 72.186C8.388 72.522 7.926 72.75 7.362 72.87V72.942C7.962 73.026 8.484 73.242 8.928 73.59C9.372 73.926 9.594 74.454 9.594 75.174C9.594 75.99 9.288 76.668 8.676 77.208C8.076 77.736 7.08 78 5.688 78H1.53V68.352H5.67C6.354 68.352 6.966 68.43 7.506 68.586C8.058 68.73 8.49 68.982 8.802 69.342C9.126 69.69 9.288 70.17 9.288 70.782ZM7.686 70.98C7.686 70.524 7.518 70.194 7.182 69.99C6.858 69.774 6.324 69.666 5.58 69.666H3.114V72.312H5.292C6.888 72.312 7.686 71.868 7.686 70.98ZM7.956 75.174C7.956 74.622 7.746 74.226 7.326 73.986C6.906 73.746 6.288 73.626 5.472 73.626H3.114V76.722H5.508C6.3 76.722 6.906 76.608 7.326 76.38C7.746 76.14 7.956 75.738 7.956 75.174ZM11.9011 78V68.352H13.4851V72.312H15.9871C17.2351 72.312 18.1591 72.54 18.7591 72.996C19.3591 73.452 19.6591 74.136 19.6591 75.048C19.6591 75.948 19.3651 76.668 18.7771 77.208C18.1891 77.736 17.2351 78 15.9151 78H11.9011ZM21.2611 78V68.352H22.8451V78H21.2611ZM15.7711 76.722C16.4551 76.722 17.0131 76.608 17.4451 76.38C17.8771 76.14 18.0931 75.726 18.0931 75.138C18.0931 74.55 17.8951 74.154 17.4991 73.95C17.1031 73.734 16.5331 73.626 15.7891 73.626H13.4851V76.722H15.7711ZM25.4069 72.204C25.4069 70.092 25.7249 68.448 26.3609 67.272C26.9969 66.084 28.0229 65.34 29.4389 65.04C30.2189 64.872 30.9809 64.722 31.7249 64.59C32.4689 64.458 33.1649 64.338 33.8129 64.23L34.0829 65.616C33.6629 65.676 33.1889 65.754 32.6609 65.85C32.1329 65.934 31.6109 66.024 31.0949 66.12C30.5789 66.204 30.1349 66.288 29.7629 66.372C28.9829 66.54 28.3649 66.948 27.9089 67.596C27.4529 68.232 27.1949 69.228 27.1349 70.584H27.2429C27.4109 70.356 27.6389 70.122 27.9269 69.882C28.2269 69.642 28.5809 69.438 28.9889 69.27C29.4089 69.102 29.8829 69.018 30.4109 69.018C31.6589 69.018 32.6009 69.42 33.2369 70.224C33.8729 71.028 34.1909 72.072 34.1909 73.356C34.1909 74.424 34.0049 75.318 33.6329 76.038C33.2609 76.758 32.7449 77.298 32.0849 77.658C31.4249 78.006 30.6569 78.18 29.7809 78.18C28.4489 78.18 27.3869 77.67 26.5949 76.65C25.8029 75.63 25.4069 74.148 25.4069 72.204ZM29.9069 76.866C30.6869 76.866 31.3169 76.614 31.7969 76.11C32.2769 75.606 32.5169 74.742 32.5169 73.518C32.5169 72.534 32.3309 71.76 31.9589 71.196C31.5989 70.62 30.9989 70.332 30.1589 70.332C29.6309 70.332 29.1509 70.452 28.7189 70.692C28.2869 70.92 27.9269 71.184 27.6389 71.484C27.3509 71.784 27.1469 72.036 27.0269 72.24C27.0269 72.828 27.0689 73.398 27.1529 73.95C27.2369 74.502 27.3809 75 27.5849 75.444C27.8009 75.876 28.0949 76.224 28.4669 76.488C28.8509 76.74 29.3309 76.866 29.9069 76.866ZM40.4123 68.172C41.2403 68.172 41.9483 68.352 42.5363 68.712C43.1363 69.072 43.5923 69.582 43.9043 70.242C44.2283 70.89 44.3903 71.652 44.3903 72.528V73.482H37.7843C37.8083 74.574 38.0843 75.408 38.6123 75.984C39.1523 76.548 39.9023 76.83 40.8623 76.83C41.4743 76.83 42.0143 76.776 42.4823 76.668C42.9623 76.548 43.4543 76.38 43.9583 76.164V77.55C43.4663 77.766 42.9803 77.922 42.5003 78.018C42.0203 78.126 41.4503 78.18 40.7903 78.18C39.8783 78.18 39.0683 77.994 38.3603 77.622C37.6643 77.25 37.1183 76.698 36.7223 75.966C36.3383 75.222 36.1463 74.316 36.1463 73.248C36.1463 72.192 36.3203 71.286 36.6683 70.53C37.0283 69.774 37.5263 69.192 38.1623 68.784C38.8103 68.376 39.5603 68.172 40.4123 68.172ZM40.3943 69.468C39.6383 69.468 39.0383 69.714 38.5943 70.206C38.1623 70.686 37.9043 71.358 37.8203 72.222H42.7343C42.7223 71.406 42.5303 70.746 42.1583 70.242C41.7863 69.726 41.1983 69.468 40.3943 69.468ZM51.4364 68.172C52.6244 68.172 53.5784 68.586 54.2984 69.414C55.0304 70.242 55.3964 71.49 55.3964 73.158C55.3964 74.802 55.0304 76.05 54.2984 76.902C53.5784 77.754 52.6184 78.18 51.4184 78.18C50.6744 78.18 50.0564 78.042 49.5644 77.766C49.0844 77.478 48.7064 77.148 48.4304 76.776H48.3224C48.3464 76.98 48.3704 77.238 48.3944 77.55C48.4184 77.862 48.4304 78.132 48.4304 78.36V82.32H46.8464V68.352H48.1424L48.3584 69.666H48.4304C48.7184 69.246 49.0964 68.892 49.5644 68.604C50.0324 68.316 50.6564 68.172 51.4364 68.172ZM51.1484 69.504C50.1644 69.504 49.4684 69.78 49.0604 70.332C48.6644 70.884 48.4544 71.724 48.4304 72.852V73.158C48.4304 74.346 48.6224 75.264 49.0064 75.912C49.4024 76.548 50.1284 76.866 51.1844 76.866C51.7724 76.866 52.2524 76.704 52.6244 76.38C53.0084 76.056 53.2904 75.618 53.4704 75.066C53.6624 74.502 53.7584 73.86 53.7584 73.14C53.7584 72.036 53.5424 71.154 53.1104 70.494C52.6904 69.834 52.0364 69.504 51.1484 69.504ZM61.5746 68.19C62.7506 68.19 63.6206 68.448 64.1846 68.964C64.7486 69.48 65.0306 70.302 65.0306 71.43V78H63.8786L63.5726 76.632H63.5006C63.0806 77.16 62.6366 77.55 62.1686 77.802C61.7126 78.054 61.0766 78.18 60.2606 78.18C59.3846 78.18 58.6586 77.952 58.0826 77.496C57.5066 77.028 57.2186 76.302 57.2186 75.318C57.2186 74.358 57.5966 73.62 58.3526 73.104C59.1086 72.576 60.2726 72.288 61.8446 72.24L63.4826 72.186V71.61C63.4826 70.806 63.3086 70.248 62.9606 69.936C62.6126 69.624 62.1206 69.468 61.4846 69.468C60.9806 69.468 60.5006 69.546 60.0446 69.702C59.5886 69.846 59.1626 70.014 58.7666 70.206L58.2806 69.018C58.7006 68.79 59.1986 68.598 59.7746 68.442C60.3506 68.274 60.9506 68.19 61.5746 68.19ZM62.0426 73.338C60.8426 73.386 60.0086 73.578 59.5406 73.914C59.0846 74.25 58.8566 74.724 58.8566 75.336C58.8566 75.876 59.0186 76.272 59.3426 76.524C59.6786 76.776 60.1046 76.902 60.6206 76.902C61.4366 76.902 62.1146 76.68 62.6546 76.236C63.1946 75.78 63.4646 75.084 63.4646 74.148V73.284L62.0426 73.338ZM71.7365 68.172C72.5645 68.172 73.2725 68.352 73.8605 68.712C74.4605 69.072 74.9165 69.582 75.2285 70.242C75.5525 70.89 75.7145 71.652 75.7145 72.528V73.482H69.1085C69.1325 74.574 69.4085 75.408 69.9365 75.984C70.4765 76.548 71.2265 76.83 72.1865 76.83C72.7985 76.83 73.3385 76.776 73.8065 76.668C74.2865 76.548 74.7785 76.38 75.2825 76.164V77.55C74.7905 77.766 74.3045 77.922 73.8245 78.018C73.3445 78.126 72.7745 78.18 72.1145 78.18C71.2025 78.18 70.3925 77.994 69.6845 77.622C68.9885 77.25 68.4425 76.698 68.0465 75.966C67.6625 75.222 67.4705 74.316 67.4705 73.248C67.4705 72.192 67.6445 71.286 67.9925 70.53C68.3525 69.774 68.8505 69.192 69.4865 68.784C70.1345 68.376 70.8845 68.172 71.7365 68.172ZM71.7185 69.468C70.9625 69.468 70.3625 69.714 69.9185 70.206C69.4865 70.686 69.2285 71.358 69.1445 72.222H74.0585C74.0465 71.406 73.8545 70.746 73.4825 70.242C73.1105 69.726 72.5225 69.468 71.7185 69.468ZM88.5206 68.352V78H87.0986V71.844C87.0986 71.592 87.1046 71.328 87.1166 71.052C87.1406 70.776 87.1646 70.506 87.1886 70.242H87.1346L83.9846 78H82.6526L79.5926 70.242H79.5386C79.5746 70.782 79.5926 71.334 79.5926 71.898V78H78.1706V68.352H80.2766L83.3186 76.11L86.4146 68.352H88.5206ZM106.45 68.352V78H105.028V71.844C105.028 71.592 105.034 71.328 105.046 71.052C105.07 70.776 105.094 70.506 105.118 70.242H105.064L101.914 78H100.582L97.5223 70.242H97.4683C97.5043 70.782 97.5223 71.334 97.5223 71.898V78H96.1003V68.352H98.2063L101.248 76.11L104.344 68.352H106.45ZM117.918 73.158C117.918 74.754 117.51 75.99 116.694 76.866C115.89 77.742 114.798 78.18 113.418 78.18C112.566 78.18 111.804 77.988 111.132 77.604C110.472 77.208 109.95 76.638 109.566 75.894C109.182 75.138 108.99 74.226 108.99 73.158C108.99 71.562 109.392 70.332 110.196 69.468C111 68.604 112.092 68.172 113.472 68.172C114.348 68.172 115.116 68.37 115.776 68.766C116.448 69.15 116.97 69.714 117.342 70.458C117.726 71.19 117.918 72.09 117.918 73.158ZM110.628 73.158C110.628 74.298 110.85 75.204 111.294 75.876C111.75 76.536 112.47 76.866 113.454 76.866C114.426 76.866 115.14 76.536 115.596 75.876C116.052 75.204 116.28 74.298 116.28 73.158C116.28 72.018 116.052 71.124 115.596 70.476C115.14 69.828 114.42 69.504 113.436 69.504C112.452 69.504 111.738 69.828 111.294 70.476C110.85 71.124 110.628 72.018 110.628 73.158ZM127.592 68.352V76.668H128.996V81.348H127.466V78H120.752V81.348H119.24V76.668H120.014C120.842 75.528 121.46 74.232 121.868 72.78C122.288 71.316 122.504 69.84 122.516 68.352H127.592ZM123.92 69.594C123.872 70.41 123.746 71.256 123.542 72.132C123.338 72.996 123.074 73.824 122.75 74.616C122.438 75.408 122.072 76.092 121.652 76.668H126.062V69.594H123.92ZM134.613 68.172C135.441 68.172 136.149 68.352 136.737 68.712C137.337 69.072 137.793 69.582 138.105 70.242C138.429 70.89 138.591 71.652 138.591 72.528V73.482H131.985C132.009 74.574 132.285 75.408 132.813 75.984C133.353 76.548 134.103 76.83 135.063 76.83C135.675 76.83 136.215 76.776 136.683 76.668C137.163 76.548 137.655 76.38 138.159 76.164V77.55C137.667 77.766 137.181 77.922 136.701 78.018C136.221 78.126 135.651 78.18 134.991 78.18C134.079 78.18 133.269 77.994 132.561 77.622C131.865 77.25 131.319 76.698 130.923 75.966C130.539 75.222 130.347 74.316 130.347 73.248C130.347 72.192 130.521 71.286 130.869 70.53C131.229 69.774 131.727 69.192 132.363 68.784C133.011 68.376 133.761 68.172 134.613 68.172ZM134.595 69.468C133.839 69.468 133.239 69.714 132.795 70.206C132.363 70.686 132.105 71.358 132.021 72.222H136.935C136.923 71.406 136.731 70.746 136.359 70.242C135.987 69.726 135.399 69.468 134.595 69.468ZM148.392 78H146.79V69.666H143.946C143.79 71.694 143.574 73.332 143.298 74.58C143.022 75.816 142.656 76.716 142.2 77.28C141.744 77.844 141.168 78.126 140.472 78.126C140.316 78.126 140.16 78.114 140.004 78.09C139.86 78.078 139.74 78.048 139.644 78V76.812C139.716 76.836 139.794 76.854 139.878 76.866C139.962 76.878 140.046 76.884 140.13 76.884C140.778 76.884 141.294 76.194 141.678 74.814C142.074 73.434 142.374 71.28 142.578 68.352H148.392V78ZM155.9 72.312C158.408 72.312 159.662 73.224 159.662 75.048C159.662 75.948 159.356 76.668 158.744 77.208C158.132 77.736 157.16 78 155.828 78H151.454V68.352H153.038V72.312H155.9ZM158.078 75.138C158.078 74.55 157.868 74.154 157.448 73.95C157.04 73.734 156.464 73.626 155.72 73.626H153.038V76.722H155.756C156.428 76.722 156.98 76.602 157.412 76.362C157.856 76.122 158.078 75.714 158.078 75.138ZM161.889 79.692L162.249 78.072C161.973 78.012 161.781 77.898 161.673 77.73C161.565 77.562 161.511 77.28 161.511 76.884C161.511 76.416 161.595 76.092 161.763 75.912C161.943 75.732 162.261 75.642 162.717 75.642C163.137 75.642 163.431 75.732 163.599 75.912C163.767 76.092 163.851 76.416 163.851 76.884C163.851 77.088 163.815 77.304 163.743 77.532C163.683 77.76 163.563 78.078 163.383 78.486L162.699 79.944L161.889 79.692ZM5.4 111.18C4.548 111.18 3.786 111.006 3.114 110.658C2.454 110.31 1.932 109.77 1.548 109.038C1.176 108.306 0.99 107.37 0.99 106.23C0.99 105.042 1.188 104.076 1.584 103.332C1.98 102.588 2.514 102.042 3.186 101.694C3.87 101.346 4.644 101.172 5.508 101.172C6 101.172 6.474 101.226 6.93 101.334C7.386 101.43 7.758 101.55 8.046 101.694L7.56 103.008C7.272 102.9 6.936 102.798 6.552 102.702C6.168 102.606 5.808 102.558 5.472 102.558C3.576 102.558 2.628 103.776 2.628 106.212C2.628 107.376 2.856 108.27 3.312 108.894C3.78 109.506 4.47 109.812 5.382 109.812C5.91 109.812 6.372 109.758 6.768 109.65C7.176 109.542 7.548 109.41 7.884 109.254V110.658C7.56 110.826 7.2 110.952 6.804 111.036C6.42 111.132 5.952 111.18 5.4 111.18ZM18.5664 106.158C18.5664 107.754 18.1584 108.99 17.3424 109.866C16.5384 110.742 15.4464 111.18 14.0664 111.18C13.2144 111.18 12.4524 110.988 11.7804 110.604C11.1204 110.208 10.5984 109.638 10.2144 108.894C9.83044 108.138 9.63844 107.226 9.63844 106.158C9.63844 104.562 10.0404 103.332 10.8444 102.468C11.6484 101.604 12.7404 101.172 14.1204 101.172C14.9964 101.172 15.7644 101.37 16.4244 101.766C17.0964 102.15 17.6184 102.714 17.9904 103.458C18.3744 104.19 18.5664 105.09 18.5664 106.158ZM11.2764 106.158C11.2764 107.298 11.4984 108.204 11.9424 108.876C12.3984 109.536 13.1184 109.866 14.1024 109.866C15.0744 109.866 15.7884 109.536 16.2444 108.876C16.7004 108.204 16.9284 107.298 16.9284 106.158C16.9284 105.018 16.7004 104.124 16.2444 103.476C15.7884 102.828 15.0684 102.504 14.0844 102.504C13.1004 102.504 12.3864 102.828 11.9424 103.476C11.4984 104.124 11.2764 105.018 11.2764 106.158ZM24.9469 111.18C24.0949 111.18 23.3329 111.006 22.6609 110.658C22.0009 110.31 21.4789 109.77 21.0949 109.038C20.7229 108.306 20.5369 107.37 20.5369 106.23C20.5369 105.042 20.7349 104.076 21.1309 103.332C21.5269 102.588 22.0609 102.042 22.7329 101.694C23.4169 101.346 24.1909 101.172 25.0549 101.172C25.5469 101.172 26.0209 101.226 26.4769 101.334C26.9329 101.43 27.3049 101.55 27.5929 101.694L27.1069 103.008C26.8189 102.9 26.4829 102.798 26.0989 102.702C25.7149 102.606 25.3549 102.558 25.0189 102.558C23.1229 102.558 22.1749 103.776 22.1749 106.212C22.1749 107.376 22.4029 108.27 22.8589 108.894C23.3269 109.506 24.0169 109.812 24.9289 109.812C25.4569 109.812 25.9189 109.758 26.3149 109.65C26.7229 109.542 27.0949 109.41 27.4309 109.254V110.658C27.1069 110.826 26.7469 110.952 26.3509 111.036C25.9669 111.132 25.4989 111.18 24.9469 111.18ZM36.3853 102.684H33.2353V111H31.6693V102.684H28.5553V101.352H36.3853V102.684ZM41.9399 101.19C43.1159 101.19 43.9859 101.448 44.5499 101.964C45.1139 102.48 45.3959 103.302 45.3959 104.43V111H44.2439L43.9379 109.632H43.8659C43.4459 110.16 43.0019 110.55 42.5339 110.802C42.0779 111.054 41.4419 111.18 40.6259 111.18C39.7499 111.18 39.0239 110.952 38.4479 110.496C37.8719 110.028 37.5839 109.302 37.5839 108.318C37.5839 107.358 37.9619 106.62 38.7179 106.104C39.4739 105.576 40.6379 105.288 42.2099 105.24L43.8479 105.186V104.61C43.8479 103.806 43.6739 103.248 43.3259 102.936C42.9779 102.624 42.4859 102.468 41.8499 102.468C41.3459 102.468 40.8659 102.546 40.4099 102.702C39.9539 102.846 39.5279 103.014 39.1319 103.206L38.6459 102.018C39.0659 101.79 39.5639 101.598 40.1399 101.442C40.7159 101.274 41.3159 101.19 41.9399 101.19ZM42.4079 106.338C41.2079 106.386 40.3739 106.578 39.9059 106.914C39.4499 107.25 39.2219 107.724 39.2219 108.336C39.2219 108.876 39.3839 109.272 39.7079 109.524C40.0439 109.776 40.4699 109.902 40.9859 109.902C41.8019 109.902 42.4799 109.68 43.0199 109.236C43.5599 108.78 43.8299 108.084 43.8299 107.148V106.284L42.4079 106.338ZM56.1337 103.782C56.1337 104.382 55.9537 104.85 55.5937 105.186C55.2337 105.522 54.7717 105.75 54.2077 105.87V105.942C54.8077 106.026 55.3297 106.242 55.7737 106.59C56.2177 106.926 56.4397 107.454 56.4397 108.174C56.4397 108.99 56.1337 109.668 55.5217 110.208C54.9217 110.736 53.9257 111 52.5337 111H48.3757V101.352H52.5157C53.1997 101.352 53.8117 101.43 54.3517 101.586C54.9037 101.73 55.3357 101.982 55.6477 102.342C55.9717 102.69 56.1337 103.17 56.1337 103.782ZM54.5317 103.98C54.5317 103.524 54.3637 103.194 54.0277 102.99C53.7037 102.774 53.1697 102.666 52.4257 102.666H49.9597V105.312H52.1377C53.7337 105.312 54.5317 104.868 54.5317 103.98ZM54.8017 108.174C54.8017 107.622 54.5917 107.226 54.1717 106.986C53.7517 106.746 53.1337 106.626 52.3177 106.626H49.9597V109.722H52.3537C53.1457 109.722 53.7517 109.608 54.1717 109.38C54.5917 109.14 54.8017 108.738 54.8017 108.174ZM71.4008 101.352V111H69.8168V102.702H64.8308V111H63.2468V101.352H71.4008ZM79.0692 101.172C80.2572 101.172 81.2112 101.586 81.9312 102.414C82.6632 103.242 83.0292 104.49 83.0292 106.158C83.0292 107.802 82.6632 109.05 81.9312 109.902C81.2112 110.754 80.2512 111.18 79.0512 111.18C78.3072 111.18 77.6892 111.042 77.1972 110.766C76.7172 110.478 76.3392 110.148 76.0632 109.776H75.9552C75.9792 109.98 76.0032 110.238 76.0272 110.55C76.0512 110.862 76.0632 111.132 76.0632 111.36V115.32H74.4792V101.352H75.7752L75.9912 102.666H76.0632C76.3512 102.246 76.7292 101.892 77.1972 101.604C77.6652 101.316 78.2892 101.172 79.0692 101.172ZM78.7812 102.504C77.7972 102.504 77.1012 102.78 76.6932 103.332C76.2972 103.884 76.0872 104.724 76.0632 105.852V106.158C76.0632 107.346 76.2552 108.264 76.6392 108.912C77.0352 109.548 77.7612 109.866 78.8172 109.866C79.4052 109.866 79.8852 109.704 80.2572 109.38C80.6412 109.056 80.9232 108.618 81.1032 108.066C81.2952 107.502 81.3912 106.86 81.3912 106.14C81.3912 105.036 81.1752 104.154 80.7432 103.494C80.3232 102.834 79.6692 102.504 78.7812 102.504ZM86.1474 111H84.3114L87.0654 106.95C86.6934 106.854 86.3334 106.704 85.9854 106.5C85.6374 106.284 85.3554 105.99 85.1394 105.618C84.9234 105.234 84.8154 104.76 84.8154 104.196C84.8154 103.272 85.1274 102.57 85.7514 102.09C86.3754 101.598 87.2034 101.352 88.2354 101.352H92.5554V111H90.9714V107.166H88.6314L86.1474 111ZM86.3454 104.214C86.3454 104.766 86.5494 105.18 86.9574 105.456C87.3774 105.72 87.9594 105.852 88.7034 105.852H90.9714V102.666H88.3974C87.6654 102.666 87.1374 102.81 86.8134 103.098C86.5014 103.386 86.3454 103.758 86.3454 104.214ZM107.182 101.352L103.204 106.032L107.524 111H105.724L101.548 106.104V111H100.072V106.104L95.8961 111H94.0961L98.4161 106.032L94.4381 101.352H96.1661L100.072 106.032V101.352H101.548V106.032L105.472 101.352H107.182ZM110.602 107.238C110.602 107.382 110.596 107.598 110.584 107.886C110.572 108.174 110.554 108.462 110.53 108.75C110.518 109.038 110.506 109.266 110.494 109.434L115.66 101.352H117.604V111H116.128V105.312C116.128 105.12 116.128 104.868 116.128 104.556C116.14 104.244 116.152 103.938 116.164 103.638C116.176 103.326 116.188 103.092 116.2 102.936L111.07 111H109.108V101.352H110.602V107.238ZM120.423 112.692L120.783 111.072C120.507 111.012 120.315 110.898 120.207 110.73C120.099 110.562 120.045 110.28 120.045 109.884C120.045 109.416 120.129 109.092 120.297 108.912C120.477 108.732 120.795 108.642 121.251 108.642C121.671 108.642 121.965 108.732 122.133 108.912C122.301 109.092 122.385 109.416 122.385 109.884C122.385 110.088 122.349 110.304 122.277 110.532C122.217 110.76 122.097 111.078 121.917 111.486L121.233 112.944L120.423 112.692ZM138.845 114.348H137.297V111H129.323V101.352H130.907V109.668H135.893V101.352H137.477V109.686H138.845V114.348ZM148.454 103.782C148.454 104.382 148.274 104.85 147.914 105.186C147.554 105.522 147.092 105.75 146.528 105.87V105.942C147.128 106.026 147.65 106.242 148.094 106.59C148.538 106.926 148.76 107.454 148.76 108.174C148.76 108.99 148.454 109.668 147.842 110.208C147.242 110.736 146.246 111 144.854 111H140.696V101.352H144.836C145.52 101.352 146.132 101.43 146.672 101.586C147.224 101.73 147.656 101.982 147.968 102.342C148.292 102.69 148.454 103.17 148.454 103.782ZM146.852 103.98C146.852 103.524 146.684 103.194 146.348 102.99C146.024 102.774 145.49 102.666 144.746 102.666H142.28V105.312H144.458C146.054 105.312 146.852 104.868 146.852 103.98ZM147.122 108.174C147.122 107.622 146.912 107.226 146.492 106.986C146.072 106.746 145.454 106.626 144.638 106.626H142.28V109.722H144.674C145.466 109.722 146.072 109.608 146.492 109.38C146.912 109.14 147.122 108.738 147.122 108.174ZM154.793 101.172C155.621 101.172 156.329 101.352 156.917 101.712C157.517 102.072 157.973 102.582 158.285 103.242C158.609 103.89 158.771 104.652 158.771 105.528V106.482H152.165C152.189 107.574 152.465 108.408 152.993 108.984C153.533 109.548 154.283 109.83 155.243 109.83C155.855 109.83 156.395 109.776 156.863 109.668C157.343 109.548 157.835 109.38 158.339 109.164V110.55C157.847 110.766 157.361 110.922 156.881 111.018C156.401 111.126 155.831 111.18 155.171 111.18C154.259 111.18 153.449 110.994 152.741 110.622C152.045 110.25 151.499 109.698 151.103 108.966C150.719 108.222 150.527 107.316 150.527 106.248C150.527 105.192 150.701 104.286 151.049 103.53C151.409 102.774 151.907 102.192 152.543 101.784C153.191 101.376 153.941 101.172 154.793 101.172ZM154.775 102.468C154.019 102.468 153.419 102.714 152.975 103.206C152.543 103.686 152.285 104.358 152.201 105.222H157.115C157.103 104.406 156.911 103.746 156.539 103.242C156.167 102.726 155.579 102.468 154.775 102.468ZM167.887 102.684H164.737V111H163.171V102.684H160.057V101.352H167.887V102.684Z" fill="black"/>
<g clip-path="url(#clip0_8:107)">
<path d="M42.9984 1.14279e-07C57.8823 1.14279e-07 69.9882 12.1031 69.9936 26.9858C69.9936 41.8969 57.8674 54.0176 42.9563 53.9932C28.0764 53.9756 15.9855 41.8589 15.9936 26.9722C16.0018 12.0855 28.1171 -0.00135704 42.9984 1.14279e-07ZM43.7625 51.5625C34.4917 45.8842 29.5028 37.7195 29.5381 26.9097C29.5734 16.1 34.6708 7.9896 44.0461 2.53789C42.6754 2.51617 41.2707 2.28546 39.9746 2.80932C34.9911 4.78942 31.1911 8.20538 28.4768 12.7926C24.5492 19.4169 23.7036 26.5393 25.4517 33.9643C26.9798 40.4542 30.3904 45.7512 36.0077 49.4847C37.3119 50.352 38.6297 51.2775 40.2868 51.378C41.4444 51.4458 42.6048 51.5001 43.7652 51.5625H43.7625ZM66.3483 34.5044C66.4039 34.2194 66.522 33.9303 66.503 33.6508C66.4121 32.3452 66.3822 31.0246 66.1515 29.7408C65.0549 23.6675 62.1343 18.6121 57.4209 14.6315C52.4903 10.4759 46.7821 8.43881 40.3085 8.66003C40.0462 8.66089 39.7915 8.74818 39.5838 8.90839C38.0811 10.3173 36.7816 11.9283 35.7226 13.6951C35.6969 13.7372 35.7226 13.8077 35.7226 13.9027C42.7215 12.817 49.2522 13.957 55.13 17.9742C61.0079 21.9914 64.5378 27.6562 66.351 34.5044H66.3483ZM45.3395 49.4332C46.5433 49.9095 47.5801 50.333 48.6292 50.7225C48.8002 50.7862 49.0364 50.736 49.2223 50.6831C55.6905 48.917 60.6559 45.1622 64.1185 39.4187C64.2669 39.1743 64.3343 38.8893 64.3112 38.6044C64.1063 37.178 63.9271 35.7408 63.6014 34.3388C63.1008 32.2062 62.2949 30.157 61.2087 28.2547C59.5394 38.0344 54.104 44.8582 45.3435 49.4386L45.3395 49.4332ZM41.4906 46.7881C42.6007 47.8941 42.6808 47.9308 43.943 47.3065C52.4863 43.0749 57.6991 36.4221 58.8473 26.8053C59.002 25.5132 58.9124 24.3624 57.8036 23.4612C57.1576 22.936 56.627 22.2737 55.9972 21.724C55.2576 21.0794 54.4677 20.4917 53.5544 19.7562C54.5654 25.2594 53.9832 30.3583 51.7331 35.2413C49.4829 40.1244 45.9841 43.8959 41.4946 46.7935L41.4906 46.7881ZM30.7039 5.85614C24.256 9.33726 17.5991 17.7544 18.5695 29.221C18.899 32.933 20.0808 36.519 22.0228 39.6996C23.9648 42.8803 26.6146 45.5698 29.7661 47.5589C19.4652 36.437 19.3838 16.765 30.7079 5.86157L30.7039 5.85614ZM33.406 35.4761C33.486 35.392 33.5268 35.3648 33.5417 35.3268C33.5973 35.2047 33.6448 35.0771 33.6964 34.9523C36.8789 27.1893 42.2845 21.7471 50.3026 19.0247C50.4641 18.969 50.7233 18.7736 50.7098 18.6989C50.6595 18.4832 50.5333 18.1846 50.3582 18.1154C49.2074 17.6594 48.0375 17.2468 46.8663 16.8437C46.6899 16.812 46.5082 16.8313 46.3424 16.8993C40.0606 18.7903 35.3558 22.6198 32.228 28.3877C32.1163 28.5795 32.0591 28.7982 32.0624 29.0201C32.222 31.2243 32.6752 33.3973 33.41 35.4816L33.406 35.4761ZM51.3666 21.3373C50.9907 21.4431 50.7518 21.4933 50.5265 21.5775C42.3836 24.6053 37.4313 30.494 35.0916 38.736C35.0468 38.8962 35.0115 39.1133 35.0821 39.2422C35.4824 39.9697 35.9154 40.6768 36.3429 41.3988C36.9943 40.1108 37.5412 38.8514 38.2429 37.6815C41.1174 32.865 45.2214 29.3594 50.2062 26.9016C51.3381 26.3438 51.7236 25.729 51.5783 24.5551C51.4467 23.5141 51.4345 22.4569 51.3666 21.3373ZM43.0879 6.1235C54.6808 7.51459 62.631 13.6082 67.3268 24.2891C67.3248 24.0347 67.3098 23.7806 67.282 23.5277C65.4625 13.425 59.6833 6.74825 49.9443 3.4974C49.4358 3.31687 48.8795 3.3236 48.3754 3.5164C46.527 4.18684 44.7545 4.99027 43.0825 6.12214L43.0879 6.1235ZM51.1848 29.3309L50.9649 29.1681C49.7027 29.9824 48.3931 30.7464 47.1852 31.6395C43.2875 34.5193 40.2637 38.0846 38.6134 42.7261C38.2945 43.6232 38.4383 44.2054 39.125 44.7835C39.3965 45.0075 39.5498 45.0794 39.8701 44.8812C44.4505 42.0217 47.9126 38.1986 49.9307 33.1527C50.422 31.9041 50.7654 30.5999 51.1807 29.3241L51.1848 29.3309ZM41.4186 16.0823C39.0463 15.8855 36.7432 16.1556 34.4754 16.7148C34.3458 16.7609 34.2276 16.8341 34.1286 16.9296C34.0296 17.0251 33.9521 17.1406 33.9013 17.2685C33.4195 18.7206 32.9635 20.1837 32.5442 21.6562C32.3732 22.2601 32.3202 22.8993 32.2144 23.5223C34.8323 20.4103 37.8588 17.9308 41.4186 16.0823Z" fill="#98969B"/>
</g>
<g clip-path="url(#clip1_8:107)">
<path d="M100.998 1.14279e-07C115.882 1.14279e-07 127.988 12.1031 127.994 26.9858C127.994 41.8969 115.867 54.0176 100.956 53.9932C86.0763 53.9756 73.9854 41.8589 73.9935 26.9722C74.0017 12.0855 86.117 -0.00135704 100.998 1.14279e-07ZM101.762 51.5625C92.4916 45.8842 87.5027 37.7195 87.538 26.9097C87.5733 16.1 92.6707 7.9896 102.046 2.53789C100.675 2.51617 99.2706 2.28546 97.9745 2.80932C92.991 4.78942 89.191 8.20538 86.4767 12.7926C82.5491 19.4169 81.7035 26.5393 83.4516 33.9643C84.9797 40.4542 88.3903 45.7512 94.0076 49.4847C95.3118 50.352 96.6296 51.2775 98.2867 51.378C99.4443 51.4458 100.605 51.5001 101.765 51.5625H101.762ZM124.348 34.5044C124.404 34.2194 124.522 33.9303 124.503 33.6508C124.412 32.3452 124.382 31.0246 124.151 29.7408C123.055 23.6675 120.134 18.6121 115.421 14.6315C110.49 10.4759 104.782 8.43881 98.3084 8.66003C98.0461 8.66089 97.7914 8.74818 97.5837 8.90839C96.081 10.3173 94.7815 11.9283 93.7225 13.6951C93.6968 13.7372 93.7225 13.8077 93.7225 13.9027C100.721 12.817 107.252 13.957 113.13 17.9742C119.008 21.9914 122.538 27.6562 124.351 34.5044H124.348ZM103.339 49.4332C104.543 49.9095 105.58 50.333 106.629 50.7225C106.8 50.7862 107.036 50.736 107.222 50.6831C113.69 48.917 118.656 45.1622 122.118 39.4187C122.267 39.1743 122.334 38.8893 122.311 38.6044C122.106 37.178 121.927 35.7408 121.601 34.3388C121.101 32.2062 120.295 30.157 119.209 28.2547C117.539 38.0344 112.104 44.8582 103.343 49.4386L103.339 49.4332ZM99.4905 46.7881C100.601 47.8941 100.681 47.9308 101.943 47.3065C110.486 43.0749 115.699 36.4221 116.847 26.8053C117.002 25.5132 116.912 24.3624 115.804 23.4612C115.158 22.936 114.627 22.2737 113.997 21.724C113.257 21.0794 112.468 20.4917 111.554 19.7562C112.565 25.2594 111.983 30.3583 109.733 35.2413C107.483 40.1244 103.984 43.8959 99.4945 46.7935L99.4905 46.7881ZM88.7038 5.85614C82.2559 9.33726 75.599 17.7544 76.5694 29.221C76.8989 32.933 78.0807 36.519 80.0227 39.6996C81.9647 42.8803 84.6145 45.5698 87.766 47.5589C77.4651 36.437 77.3837 16.765 88.7078 5.86157L88.7038 5.85614ZM91.4059 35.4761C91.486 35.392 91.5267 35.3648 91.5416 35.3268C91.5972 35.2047 91.6447 35.0771 91.6963 34.9523C94.8788 27.1893 100.284 21.7471 108.303 19.0247C108.464 18.969 108.723 18.7736 108.71 18.6989C108.659 18.4832 108.533 18.1846 108.358 18.1154C107.207 17.6594 106.037 17.2468 104.866 16.8437C104.69 16.812 104.508 16.8313 104.342 16.8993C98.0605 18.7903 93.3557 22.6198 90.2279 28.3877C90.1162 28.5795 90.059 28.7982 90.0623 29.0201C90.2219 31.2243 90.6751 33.3973 91.4099 35.4816L91.4059 35.4761ZM109.367 21.3373C108.991 21.4431 108.752 21.4933 108.526 21.5775C100.383 24.6053 95.4312 30.494 93.0915 38.736C93.0467 38.8962 93.0114 39.1133 93.082 39.2422C93.4823 39.9697 93.9153 40.6768 94.3428 41.3988C94.9942 40.1108 95.5411 38.8514 96.2428 37.6815C99.1173 32.865 103.221 29.3594 108.206 26.9016C109.338 26.3438 109.723 25.729 109.578 24.5551C109.447 23.5141 109.434 22.4569 109.367 21.3373ZM101.088 6.1235C112.681 7.51459 120.631 13.6082 125.327 24.2891C125.325 24.0347 125.31 23.7806 125.282 23.5277C123.462 13.425 117.683 6.74825 107.944 3.4974C107.436 3.31687 106.879 3.3236 106.375 3.5164C104.527 4.18684 102.754 4.99027 101.082 6.12214L101.088 6.1235ZM109.185 29.3309L108.965 29.1681C107.703 29.9824 106.393 30.7464 105.185 31.6395C101.287 34.5193 98.2636 38.0846 96.6133 42.7261C96.2944 43.6232 96.4382 44.2054 97.1249 44.7835C97.3964 45.0075 97.5497 45.0794 97.87 44.8812C102.45 42.0217 105.913 38.1986 107.931 33.1527C108.422 31.9041 108.765 30.5999 109.181 29.3241L109.185 29.3309ZM99.4185 16.0823C97.0462 15.8855 94.7431 16.1556 92.4753 16.7148C92.3457 16.7609 92.2275 16.8341 92.1285 16.9296C92.0295 17.0251 91.952 17.1406 91.9012 17.2685C91.4194 18.7206 90.9634 20.1837 90.5441 21.6562C90.3731 22.2601 90.3201 22.8993 90.2143 23.5223C92.8323 20.4103 95.8587 17.9308 99.4185 16.0823Z" fill="#EF552F"/>
</g>
<g clip-path="url(#clip2_8:107)">
<path d="M159.998 1.14279e-07C174.882 1.14279e-07 186.988 12.1031 186.994 26.9858C186.994 41.8969 174.867 54.0176 159.956 53.9932C145.076 53.9756 132.985 41.8589 132.994 26.9722C133.002 12.0855 145.117 -0.00135704 159.998 1.14279e-07ZM160.762 51.5625C151.492 45.8842 146.503 37.7195 146.538 26.9097C146.573 16.1 151.671 7.9896 161.046 2.53789C159.675 2.51617 158.271 2.28546 156.975 2.80932C151.991 4.78942 148.191 8.20538 145.477 12.7926C141.549 19.4169 140.704 26.5393 142.452 33.9643C143.98 40.4542 147.39 45.7512 153.008 49.4847C154.312 50.352 155.63 51.2775 157.287 51.378C158.444 51.4458 159.605 51.5001 160.765 51.5625H160.762ZM183.348 34.5044C183.404 34.2194 183.522 33.9303 183.503 33.6508C183.412 32.3452 183.382 31.0246 183.152 29.7408C182.055 23.6675 179.134 18.6121 174.421 14.6315C169.49 10.4759 163.782 8.43881 157.308 8.66003C157.046 8.66089 156.791 8.74818 156.584 8.90839C155.081 10.3173 153.782 11.9283 152.723 13.6951C152.697 13.7372 152.723 13.8077 152.723 13.9027C159.722 12.817 166.252 13.957 172.13 17.9742C178.008 21.9914 181.538 27.6562 183.351 34.5044H183.348ZM162.339 49.4332C163.543 49.9095 164.58 50.333 165.629 50.7225C165.8 50.7862 166.036 50.736 166.222 50.6831C172.691 48.917 177.656 45.1622 181.118 39.4187C181.267 39.1743 181.334 38.8893 181.311 38.6044C181.106 37.178 180.927 35.7408 180.601 34.3388C180.101 32.2062 179.295 30.157 178.209 28.2547C176.539 38.0344 171.104 44.8582 162.344 49.4386L162.339 49.4332ZM158.491 46.7881C159.601 47.8941 159.681 47.9308 160.943 47.3065C169.486 43.0749 174.699 36.4221 175.847 26.8053C176.002 25.5132 175.912 24.3624 174.804 23.4612C174.158 22.936 173.627 22.2737 172.997 21.724C172.258 21.0794 171.468 20.4917 170.554 19.7562C171.565 25.2594 170.983 30.3583 168.733 35.2413C166.483 40.1244 162.984 43.8959 158.495 46.7935L158.491 46.7881ZM147.704 5.85614C141.256 9.33726 134.599 17.7544 135.57 29.221C135.899 32.933 137.081 36.519 139.023 39.6996C140.965 42.8803 143.615 45.5698 146.766 47.5589C136.465 36.437 136.384 16.765 147.708 5.86157L147.704 5.85614ZM150.406 35.4761C150.486 35.392 150.527 35.3648 150.542 35.3268C150.597 35.2047 150.645 35.0771 150.696 34.9523C153.879 27.1893 159.285 21.7471 167.303 19.0247C167.464 18.969 167.723 18.7736 167.71 18.6989C167.66 18.4832 167.533 18.1846 167.358 18.1154C166.207 17.6594 165.038 17.2468 163.866 16.8437C163.69 16.812 163.508 16.8313 163.342 16.8993C157.061 18.7903 152.356 22.6198 149.228 28.3877C149.116 28.5795 149.059 28.7982 149.062 29.0201C149.222 31.2243 149.675 33.3973 150.41 35.4816L150.406 35.4761ZM168.367 21.3373C167.991 21.4431 167.752 21.4933 167.527 21.5775C159.384 24.6053 154.431 30.494 152.092 38.736C152.047 38.8962 152.011 39.1133 152.082 39.2422C152.482 39.9697 152.915 40.6768 153.343 41.3988C153.994 40.1108 154.541 38.8514 155.243 37.6815C158.117 32.865 162.221 29.3594 167.206 26.9016C168.338 26.3438 168.724 25.729 168.578 24.5551C168.447 23.5141 168.434 22.4569 168.367 21.3373ZM160.088 6.1235C171.681 7.51459 179.631 13.6082 184.327 24.2891C184.325 24.0347 184.31 23.7806 184.282 23.5277C182.463 13.425 176.683 6.74825 166.944 3.4974C166.436 3.31687 165.879 3.3236 165.375 3.5164C163.527 4.18684 161.755 4.99027 160.083 6.12214L160.088 6.1235ZM168.185 29.3309L167.965 29.1681C166.703 29.9824 165.393 30.7464 164.185 31.6395C160.287 34.5193 157.264 38.0846 155.613 42.7261C155.294 43.6232 155.438 44.2054 156.125 44.7835C156.396 45.0075 156.55 45.0794 156.87 44.8812C161.451 42.0217 164.913 38.1986 166.931 33.1527C167.422 31.9041 167.765 30.5999 168.181 29.3241L168.185 29.3309ZM158.419 16.0823C156.046 15.8855 153.743 16.1556 151.475 16.7148C151.346 16.7609 151.228 16.8341 151.129 16.9296C151.03 17.0251 150.952 17.1406 150.901 17.2685C150.42 18.7206 149.964 20.1837 149.544 21.6562C149.373 22.2601 149.32 22.8993 149.214 23.5223C151.832 20.4103 154.859 17.9308 158.419 16.0823Z" fill="black"/>
</g>
<defs>
<clipPath id="clip0_8:107">
<rect width="54" height="54" fill="white" transform="translate(16)"/>
</clipPath>
<clipPath id="clip1_8:107">
<rect width="54" height="54" fill="white" transform="translate(74)"/>
</clipPath>
<clipPath id="clip2_8:107">
<rect width="54" height="54" fill="white" transform="translate(133)"/>
</clipPath>
</defs>
</svg>
