<svg width="215" height="148" viewBox="0 0 215 148" fill="none" xmlns="http://www.w3.org/2000/svg">
<path d="M9.918 72.158C9.918 73.754 9.51 74.99 8.694 75.866C7.89 76.742 6.798 77.18 5.418 77.18C4.566 77.18 3.804 76.988 3.132 76.604C2.472 76.208 1.95 75.638 1.566 74.894C1.182 74.138 0.99 73.226 0.99 72.158C0.99 70.562 1.392 69.332 2.196 68.468C3 67.604 4.092 67.172 5.472 67.172C6.348 67.172 7.116 67.37 7.776 67.766C8.448 68.15 8.97 68.714 9.342 69.458C9.726 70.19 9.918 71.09 9.918 72.158ZM2.628 72.158C2.628 73.298 2.85 74.204 3.294 74.876C3.75 75.536 4.47 75.866 5.454 75.866C6.426 75.866 7.14 75.536 7.596 74.876C8.052 74.204 8.28 73.298 8.28 72.158C8.28 71.018 8.052 70.124 7.596 69.476C7.14 68.828 6.42 68.504 5.436 68.504C4.452 68.504 3.738 68.828 3.294 69.476C2.85 70.124 2.628 71.018 2.628 72.158ZM16.2984 77.18C15.4464 77.18 14.6844 77.006 14.0124 76.658C13.3524 76.31 12.8304 75.77 12.4464 75.038C12.0744 74.306 11.8884 73.37 11.8884 72.23C11.8884 71.042 12.0864 70.076 12.4824 69.332C12.8784 68.588 13.4124 68.042 14.0844 67.694C14.7684 67.346 15.5424 67.172 16.4064 67.172C16.8984 67.172 17.3724 67.226 17.8284 67.334C18.2844 67.43 18.6564 67.55 18.9444 67.694L18.4584 69.008C18.1704 68.9 17.8344 68.798 17.4504 68.702C17.0664 68.606 16.7064 68.558 16.3704 68.558C14.4744 68.558 13.5264 69.776 13.5264 72.212C13.5264 73.376 13.7544 74.27 14.2104 74.894C14.6784 75.506 15.3684 75.812 16.2804 75.812C16.8084 75.812 17.2704 75.758 17.6664 75.65C18.0744 75.542 18.4464 75.41 18.7824 75.254V76.658C18.4584 76.826 18.0984 76.952 17.7024 77.036C17.3184 77.132 16.8504 77.18 16.2984 77.18ZM27.7369 68.684H24.5869V77H23.0209V68.684H19.9069V67.352H27.7369V68.684ZM33.2914 67.19C34.4674 67.19 35.3374 67.448 35.9014 67.964C36.4654 68.48 36.7474 69.302 36.7474 70.43V77H35.5954L35.2894 75.632H35.2174C34.7974 76.16 34.3534 76.55 33.8854 76.802C33.4294 77.054 32.7934 77.18 31.9774 77.18C31.1014 77.18 30.3754 76.952 29.7994 76.496C29.2234 76.028 28.9354 75.302 28.9354 74.318C28.9354 73.358 29.3134 72.62 30.0694 72.104C30.8254 71.576 31.9894 71.288 33.5614 71.24L35.1994 71.186V70.61C35.1994 69.806 35.0254 69.248 34.6774 68.936C34.3294 68.624 33.8374 68.468 33.2014 68.468C32.6974 68.468 32.2174 68.546 31.7614 68.702C31.3054 68.846 30.8794 69.014 30.4834 69.206L29.9974 68.018C30.4174 67.79 30.9154 67.598 31.4914 67.442C32.0674 67.274 32.6674 67.19 33.2914 67.19ZM33.7594 72.338C32.5594 72.386 31.7254 72.578 31.2574 72.914C30.8014 73.25 30.5734 73.724 30.5734 74.336C30.5734 74.876 30.7354 75.272 31.0594 75.524C31.3954 75.776 31.8214 75.902 32.3374 75.902C33.1534 75.902 33.8314 75.68 34.3714 75.236C34.9114 74.78 35.1814 74.084 35.1814 73.148V72.284L33.7594 72.338ZM47.4853 69.782C47.4853 70.382 47.3053 70.85 46.9453 71.186C46.5853 71.522 46.1233 71.75 45.5593 71.87V71.942C46.1593 72.026 46.6813 72.242 47.1253 72.59C47.5693 72.926 47.7913 73.454 47.7913 74.174C47.7913 74.99 47.4853 75.668 46.8733 76.208C46.2733 76.736 45.2773 77 43.8853 77H39.7273V67.352H43.8673C44.5513 67.352 45.1633 67.43 45.7033 67.586C46.2553 67.73 46.6873 67.982 46.9993 68.342C47.3233 68.69 47.4853 69.17 47.4853 69.782ZM45.8833 69.98C45.8833 69.524 45.7153 69.194 45.3793 68.99C45.0553 68.774 44.5213 68.666 43.7773 68.666H41.3113V71.312H43.4893C45.0853 71.312 45.8833 70.868 45.8833 69.98ZM46.1533 74.174C46.1533 73.622 45.9433 73.226 45.5233 72.986C45.1033 72.746 44.4853 72.626 43.6693 72.626H41.3113V75.722H43.7053C44.4973 75.722 45.1033 75.608 45.5233 75.38C45.9433 75.14 46.1533 74.738 46.1533 74.174ZM51.5924 73.238C51.5924 73.382 51.5864 73.598 51.5744 73.886C51.5624 74.174 51.5444 74.462 51.5204 74.75C51.5084 75.038 51.4964 75.266 51.4844 75.434L56.6504 67.352H58.5944V77H57.1184V71.312C57.1184 71.12 57.1184 70.868 57.1184 70.556C57.1304 70.244 57.1424 69.938 57.1544 69.638C57.1664 69.326 57.1784 69.092 57.1904 68.936L52.0604 77H50.0984V67.352H51.5924V73.238ZM68.3248 68.684H65.1748V77H63.6088V68.684H60.4948V67.352H68.3248V68.684ZM74.6713 71.312C77.1793 71.312 78.4333 72.224 78.4333 74.048C78.4333 74.948 78.1273 75.668 77.5153 76.208C76.9033 76.736 75.9313 77 74.5993 77H70.2253V67.352H71.8093V71.312H74.6713ZM76.8493 74.138C76.8493 73.55 76.6393 73.154 76.2193 72.95C75.8113 72.734 75.2353 72.626 74.4913 72.626H71.8093V75.722H74.5273C75.1993 75.722 75.7513 75.602 76.1833 75.362C76.6273 75.122 76.8493 74.714 76.8493 74.138ZM87.9508 67.172C89.0548 67.172 89.9308 67.394 90.5788 67.838C91.2388 68.27 91.5688 68.894 91.5688 69.71C91.5688 70.298 91.4068 70.766 91.0828 71.114C90.7588 71.45 90.3148 71.696 89.7508 71.852V71.924C90.1348 72.032 90.4888 72.182 90.8128 72.374C91.1368 72.566 91.3948 72.818 91.5868 73.13C91.7908 73.442 91.8928 73.844 91.8928 74.336C91.8928 75.14 91.5568 75.818 90.8848 76.37C90.2248 76.91 89.1868 77.18 87.7708 77.18C87.0748 77.18 86.4448 77.12 85.8808 77C85.3168 76.892 84.8488 76.742 84.4768 76.55V75.128C84.8848 75.32 85.3648 75.494 85.9168 75.65C86.4808 75.806 87.0928 75.884 87.7528 75.884C88.4728 75.884 89.0788 75.764 89.5708 75.524C90.0748 75.272 90.3268 74.846 90.3268 74.246C90.3268 73.166 89.4088 72.626 87.5728 72.626H86.2768V71.33H87.3208C88.1488 71.33 88.8088 71.222 89.3008 71.006C89.8048 70.778 90.0568 70.394 90.0568 69.854C90.0568 69.398 89.8648 69.056 89.4808 68.828C89.1088 68.6 88.5688 68.486 87.8608 68.486C87.3328 68.486 86.8648 68.54 86.4568 68.648C86.0608 68.744 85.6228 68.894 85.1428 69.098L84.5848 67.838C85.5928 67.394 86.7148 67.172 87.9508 67.172ZM97.891 67.19C99.067 67.19 99.937 67.448 100.501 67.964C101.065 68.48 101.347 69.302 101.347 70.43V77H100.195L99.889 75.632H99.817C99.397 76.16 98.953 76.55 98.485 76.802C98.029 77.054 97.393 77.18 96.577 77.18C95.701 77.18 94.975 76.952 94.399 76.496C93.823 76.028 93.535 75.302 93.535 74.318C93.535 73.358 93.913 72.62 94.669 72.104C95.425 71.576 96.589 71.288 98.161 71.24L99.799 71.186V70.61C99.799 69.806 99.625 69.248 99.277 68.936C98.929 68.624 98.437 68.468 97.801 68.468C97.297 68.468 96.817 68.546 96.361 68.702C95.905 68.846 95.479 69.014 95.083 69.206L94.597 68.018C95.017 67.79 95.515 67.598 96.091 67.442C96.667 67.274 97.267 67.19 97.891 67.19ZM98.359 72.338C97.159 72.386 96.325 72.578 95.857 72.914C95.401 73.25 95.173 73.724 95.173 74.336C95.173 74.876 95.335 75.272 95.659 75.524C95.995 75.776 96.421 75.902 96.937 75.902C97.753 75.902 98.431 75.68 98.971 75.236C99.511 74.78 99.781 74.084 99.781 73.148V72.284L98.359 72.338ZM104.921 77H103.085L105.839 72.95C105.467 72.854 105.107 72.704 104.759 72.5C104.411 72.284 104.129 71.99 103.913 71.618C103.697 71.234 103.589 70.76 103.589 70.196C103.589 69.272 103.901 68.57 104.525 68.09C105.149 67.598 105.977 67.352 107.009 67.352H111.329V77H109.745V73.166H107.405L104.921 77ZM105.119 70.214C105.119 70.766 105.323 71.18 105.731 71.456C106.151 71.72 106.733 71.852 107.477 71.852H109.745V68.666H107.171C106.439 68.666 105.911 68.81 105.587 69.098C105.275 69.386 105.119 69.758 105.119 70.214ZM122.14 69.782C122.14 70.382 121.96 70.85 121.6 71.186C121.24 71.522 120.778 71.75 120.214 71.87V71.942C120.814 72.026 121.336 72.242 121.78 72.59C122.224 72.926 122.446 73.454 122.446 74.174C122.446 74.99 122.14 75.668 121.528 76.208C120.928 76.736 119.932 77 118.54 77H114.382V67.352H118.522C119.206 67.352 119.818 67.43 120.358 67.586C120.91 67.73 121.342 67.982 121.654 68.342C121.978 68.69 122.14 69.17 122.14 69.782ZM120.538 69.98C120.538 69.524 120.37 69.194 120.034 68.99C119.71 68.774 119.176 68.666 118.432 68.666H115.966V71.312H118.144C119.74 71.312 120.538 70.868 120.538 69.98ZM120.808 74.174C120.808 73.622 120.598 73.226 120.178 72.986C119.758 72.746 119.14 72.626 118.324 72.626H115.966V75.722H118.36C119.152 75.722 119.758 75.608 120.178 75.38C120.598 75.14 120.808 74.738 120.808 74.174ZM130.459 67.352H132.187L128.065 71.996L132.529 77H130.693L126.337 72.104V77H124.753V67.352H126.337V72.032L130.459 67.352ZM132.768 67.352H134.46L136.548 72.842C136.728 73.322 136.89 73.784 137.034 74.228C137.178 74.66 137.286 75.074 137.358 75.47H137.43C137.502 75.17 137.616 74.78 137.772 74.3C137.928 73.808 138.09 73.316 138.258 72.824L140.22 67.352H141.93L137.772 78.332C137.436 79.244 136.998 79.97 136.458 80.51C135.93 81.05 135.198 81.32 134.262 81.32C133.974 81.32 133.722 81.302 133.506 81.266C133.29 81.242 133.104 81.212 132.948 81.176V79.916C133.08 79.94 133.236 79.964 133.416 79.988C133.608 80.012 133.806 80.024 134.01 80.024C134.562 80.024 135.006 79.868 135.342 79.556C135.69 79.244 135.96 78.83 136.152 78.314L136.656 77.036L132.768 67.352ZM149.54 67.352V71.366H154.778V67.352H156.362V77H154.778V72.698H149.54V77H147.956V67.352H149.54ZM163.071 67.19C164.247 67.19 165.117 67.448 165.681 67.964C166.245 68.48 166.527 69.302 166.527 70.43V77H165.375L165.069 75.632H164.997C164.577 76.16 164.133 76.55 163.665 76.802C163.209 77.054 162.573 77.18 161.757 77.18C160.881 77.18 160.155 76.952 159.579 76.496C159.003 76.028 158.715 75.302 158.715 74.318C158.715 73.358 159.093 72.62 159.849 72.104C160.605 71.576 161.769 71.288 163.341 71.24L164.979 71.186V70.61C164.979 69.806 164.805 69.248 164.457 68.936C164.109 68.624 163.617 68.468 162.981 68.468C162.477 68.468 161.997 68.546 161.541 68.702C161.085 68.846 160.659 69.014 160.263 69.206L159.777 68.018C160.197 67.79 160.695 67.598 161.271 67.442C161.847 67.274 162.447 67.19 163.071 67.19ZM163.539 72.338C162.339 72.386 161.505 72.578 161.037 72.914C160.581 73.25 160.353 73.724 160.353 74.336C160.353 74.876 160.515 75.272 160.839 75.524C161.175 75.776 161.601 75.902 162.117 75.902C162.933 75.902 163.611 75.68 164.151 75.236C164.691 74.78 164.961 74.084 164.961 73.148V72.284L163.539 72.338ZM5.4 110.18C4.548 110.18 3.786 110.006 3.114 109.658C2.454 109.31 1.932 108.77 1.548 108.038C1.176 107.306 0.99 106.37 0.99 105.23C0.99 104.042 1.188 103.076 1.584 102.332C1.98 101.588 2.514 101.042 3.186 100.694C3.87 100.346 4.644 100.172 5.508 100.172C6 100.172 6.474 100.226 6.93 100.334C7.386 100.43 7.758 100.55 8.046 100.694L7.56 102.008C7.272 101.9 6.936 101.798 6.552 101.702C6.168 101.606 5.808 101.558 5.472 101.558C3.576 101.558 2.628 102.776 2.628 105.212C2.628 106.376 2.856 107.27 3.312 107.894C3.78 108.506 4.47 108.812 5.382 108.812C5.91 108.812 6.372 108.758 6.768 108.65C7.176 108.542 7.548 108.41 7.884 108.254V109.658C7.56 109.826 7.2 109.952 6.804 110.036C6.42 110.132 5.952 110.18 5.4 110.18ZM13.8324 100.19C15.0084 100.19 15.8784 100.448 16.4424 100.964C17.0064 101.48 17.2884 102.302 17.2884 103.43V110H16.1364L15.8304 108.632H15.7584C15.3384 109.16 14.8944 109.55 14.4264 109.802C13.9704 110.054 13.3344 110.18 12.5184 110.18C11.6424 110.18 10.9164 109.952 10.3404 109.496C9.76444 109.028 9.47644 108.302 9.47644 107.318C9.47644 106.358 9.85444 105.62 10.6104 105.104C11.3664 104.576 12.5304 104.288 14.1024 104.24L15.7404 104.186V103.61C15.7404 102.806 15.5664 102.248 15.2184 101.936C14.8704 101.624 14.3784 101.468 13.7424 101.468C13.2384 101.468 12.7584 101.546 12.3024 101.702C11.8464 101.846 11.4204 102.014 11.0244 102.206L10.5384 101.018C10.9584 100.79 11.4564 100.598 12.0324 100.442C12.6084 100.274 13.2084 100.19 13.8324 100.19ZM14.3004 105.338C13.1004 105.386 12.2664 105.578 11.7984 105.914C11.3424 106.25 11.1144 106.724 11.1144 107.336C11.1144 107.876 11.2764 108.272 11.6004 108.524C11.9364 108.776 12.3624 108.902 12.8784 108.902C13.6944 108.902 14.3724 108.68 14.9124 108.236C15.4524 107.78 15.7224 107.084 15.7224 106.148V105.284L14.3004 105.338ZM28.0803 96.356C27.9963 97.256 27.6903 97.94 27.1623 98.408C26.6463 98.864 25.8183 99.092 24.6783 99.092C23.5023 99.092 22.6683 98.864 22.1763 98.408C21.6963 97.952 21.4263 97.268 21.3663 96.356H22.8423C22.9023 97.004 23.0703 97.442 23.3463 97.67C23.6343 97.886 24.0903 97.994 24.7143 97.994C25.2663 97.994 25.6983 97.88 26.0103 97.652C26.3343 97.412 26.5263 96.98 26.5863 96.356H28.0803ZM21.7623 106.238C21.7623 106.382 21.7563 106.598 21.7443 106.886C21.7323 107.174 21.7143 107.462 21.6903 107.75C21.6783 108.038 21.6663 108.266 21.6543 108.434L26.8203 100.352H28.7643V110H27.2883V104.312C27.2883 104.12 27.2883 103.868 27.2883 103.556C27.3003 103.244 27.3123 102.938 27.3243 102.638C27.3363 102.326 27.3483 102.092 27.3603 101.936L22.2303 110H20.2683V100.352H21.7623V106.238ZM38.4947 101.684H35.3447V110H33.7787V101.684H30.6647V100.352H38.4947V101.684ZM43.9455 100.172C44.7735 100.172 45.4815 100.352 46.0695 100.712C46.6695 101.072 47.1255 101.582 47.4375 102.242C47.7615 102.89 47.9235 103.652 47.9235 104.528V105.482H41.3175C41.3415 106.574 41.6175 107.408 42.1455 107.984C42.6855 108.548 43.4355 108.83 44.3955 108.83C45.0075 108.83 45.5475 108.776 46.0155 108.668C46.4955 108.548 46.9875 108.38 47.4915 108.164V109.55C46.9995 109.766 46.5135 109.922 46.0335 110.018C45.5535 110.126 44.9835 110.18 44.3235 110.18C43.4115 110.18 42.6015 109.994 41.8935 109.622C41.1975 109.25 40.6515 108.698 40.2555 107.966C39.8715 107.222 39.6795 106.316 39.6795 105.248C39.6795 104.192 39.8535 103.286 40.2015 102.53C40.5615 101.774 41.0595 101.192 41.6955 100.784C42.3435 100.376 43.0935 100.172 43.9455 100.172ZM43.9275 101.468C43.1715 101.468 42.5715 101.714 42.1275 102.206C41.6955 102.686 41.4375 103.358 41.3535 104.222H46.2675C46.2555 103.406 46.0635 102.746 45.6915 102.242C45.3195 101.726 44.7315 101.468 43.9275 101.468ZM3.024 139.238C3.024 139.382 3.018 139.598 3.006 139.886C2.994 140.174 2.976 140.462 2.952 140.75C2.94 141.038 2.928 141.266 2.916 141.434L8.082 133.352H10.026V143H8.55V137.312C8.55 137.12 8.55 136.868 8.55 136.556C8.562 136.244 8.574 135.938 8.586 135.638C8.598 135.326 8.61 135.092 8.622 134.936L3.492 143H1.53V133.352H3.024V139.238ZM20.4404 143H18.8384V134.666H15.9944C15.8384 136.694 15.6224 138.332 15.3464 139.58C15.0704 140.816 14.7044 141.716 14.2484 142.28C13.7924 142.844 13.2164 143.126 12.5204 143.126C12.3644 143.126 12.2084 143.114 12.0524 143.09C11.9084 143.078 11.7884 143.048 11.6924 143V141.812C11.7644 141.836 11.8424 141.854 11.9264 141.866C12.0104 141.878 12.0944 141.884 12.1784 141.884C12.8264 141.884 13.3424 141.194 13.7264 139.814C14.1224 138.434 14.4224 136.28 14.6264 133.352H20.4404V143ZM24.9967 139.238C24.9967 139.382 24.9907 139.598 24.9787 139.886C24.9667 140.174 24.9487 140.462 24.9247 140.75C24.9127 141.038 24.9007 141.266 24.8887 141.434L30.0547 133.352H31.9987V143H30.5227V137.312C30.5227 137.12 30.5227 136.868 30.5227 136.556C30.5347 136.244 30.5467 135.938 30.5587 135.638C30.5707 135.326 30.5827 135.092 30.5947 134.936L25.4647 143H23.5027V133.352H24.9967V139.238ZM47.9571 138.158C47.9571 139.754 47.5491 140.99 46.7331 141.866C45.9291 142.742 44.8371 143.18 43.4571 143.18C42.6051 143.18 41.8431 142.988 41.1711 142.604C40.5111 142.208 39.9891 141.638 39.6051 140.894C39.2211 140.138 39.0291 139.226 39.0291 138.158C39.0291 136.562 39.4311 135.332 40.2351 134.468C41.0391 133.604 42.1311 133.172 43.5111 133.172C44.3871 133.172 45.1551 133.37 45.8151 133.766C46.4871 134.15 47.0091 134.714 47.3811 135.458C47.7651 136.19 47.9571 137.09 47.9571 138.158ZM40.6671 138.158C40.6671 139.298 40.8891 140.204 41.3331 140.876C41.7891 141.536 42.5091 141.866 43.4931 141.866C44.4651 141.866 45.1791 141.536 45.6351 140.876C46.0911 140.204 46.3191 139.298 46.3191 138.158C46.3191 137.018 46.0911 136.124 45.6351 135.476C45.1791 134.828 44.4591 134.504 43.4751 134.504C42.4911 134.504 41.7771 134.828 41.3331 135.476C40.8891 136.124 40.6671 137.018 40.6671 138.158ZM56.2275 133.208C57.1875 133.292 58.0215 133.544 58.7295 133.964C59.4495 134.384 60.0075 134.948 60.4035 135.656C60.7995 136.364 60.9975 137.204 60.9975 138.176C60.9975 139.628 60.5715 140.786 59.7195 141.65C58.8795 142.514 57.7155 143.012 56.2275 143.144V147.32H54.6795V143.144C53.7315 143.06 52.8975 142.814 52.1775 142.406C51.4575 141.986 50.8995 141.422 50.5035 140.714C50.1075 139.994 49.9095 139.148 49.9095 138.176C49.9095 136.712 50.3295 135.548 51.1695 134.684C52.0215 133.82 53.2095 133.328 54.7335 133.208V129.32H56.2275V133.208ZM54.7335 134.522C53.6295 134.63 52.8255 134.996 52.3215 135.62C51.8175 136.232 51.5655 137.084 51.5655 138.176C51.5655 139.268 51.8175 140.126 52.3215 140.75C52.8375 141.374 53.6415 141.74 54.7335 141.848V134.522ZM56.2275 141.848C57.3075 141.728 58.0995 141.356 58.6035 140.732C59.1075 140.108 59.3595 139.256 59.3595 138.176C59.3595 137.096 59.1015 136.25 58.5855 135.638C58.0815 135.026 57.2955 134.66 56.2275 134.54V141.848ZM71.8985 138.158C71.8985 139.754 71.4905 140.99 70.6745 141.866C69.8705 142.742 68.7785 143.18 67.3985 143.18C66.5465 143.18 65.7845 142.988 65.1125 142.604C64.4525 142.208 63.9305 141.638 63.5465 140.894C63.1625 140.138 62.9705 139.226 62.9705 138.158C62.9705 136.562 63.3725 135.332 64.1765 134.468C64.9805 133.604 66.0725 133.172 67.4525 133.172C68.3285 133.172 69.0965 133.37 69.7565 133.766C70.4285 134.15 70.9505 134.714 71.3225 135.458C71.7065 136.19 71.8985 137.09 71.8985 138.158ZM64.6085 138.158C64.6085 139.298 64.8305 140.204 65.2745 140.876C65.7305 141.536 66.4505 141.866 67.4345 141.866C68.4065 141.866 69.1205 141.536 69.5765 140.876C70.0325 140.204 70.2605 139.298 70.2605 138.158C70.2605 137.018 70.0325 136.124 69.5765 135.476C69.1205 134.828 68.4005 134.504 67.4165 134.504C66.4325 134.504 65.7185 134.828 65.2745 135.476C64.8305 136.124 64.6085 137.018 64.6085 138.158ZM78.9989 133.172C80.1869 133.172 81.1409 133.586 81.8609 134.414C82.5929 135.242 82.9589 136.49 82.9589 138.158C82.9589 139.802 82.5929 141.05 81.8609 141.902C81.1409 142.754 80.1809 143.18 78.9809 143.18C78.2369 143.18 77.6189 143.042 77.1269 142.766C76.6469 142.478 76.2689 142.148 75.9929 141.776H75.8849C75.9089 141.98 75.9329 142.238 75.9569 142.55C75.9809 142.862 75.9929 143.132 75.9929 143.36V147.32H74.4089V133.352H75.7049L75.9209 134.666H75.9929C76.2809 134.246 76.6589 133.892 77.1269 133.604C77.5949 133.316 78.2189 133.172 78.9989 133.172ZM78.7109 134.504C77.7269 134.504 77.0309 134.78 76.6229 135.332C76.2269 135.884 76.0169 136.724 75.9929 137.852V138.158C75.9929 139.346 76.1849 140.264 76.5689 140.912C76.9649 141.548 77.6909 141.866 78.7469 141.866C79.3349 141.866 79.8149 141.704 80.1869 141.38C80.5709 141.056 80.8529 140.618 81.0329 140.066C81.2249 139.502 81.3209 138.86 81.3209 138.14C81.3209 137.036 81.1049 136.154 80.6729 135.494C80.2529 134.834 79.5989 134.504 78.7109 134.504ZM95.8331 133.352V143H94.4111V136.844C94.4111 136.592 94.4171 136.328 94.4291 136.052C94.4531 135.776 94.4771 135.506 94.5011 135.242H94.4471L91.2971 143H89.9651L86.9051 135.242H86.8511C86.8871 135.782 86.9051 136.334 86.9051 136.898V143H85.4831V133.352H87.5891L90.6311 141.11L93.7271 133.352H95.8331ZM100.407 139.238C100.407 139.382 100.401 139.598 100.389 139.886C100.377 140.174 100.359 140.462 100.335 140.75C100.323 141.038 100.311 141.266 100.299 141.434L105.465 133.352H107.409V143H105.933V137.312C105.933 137.12 105.933 136.868 105.933 136.556C105.945 136.244 105.957 135.938 105.969 135.638C105.981 135.326 105.993 135.092 106.005 134.936L100.875 143H98.9128V133.352H100.407V139.238ZM117.139 134.684H113.989V143H112.423V134.684H109.309V133.352H117.139V134.684ZM123.486 137.312C125.994 137.312 127.248 138.224 127.248 140.048C127.248 140.948 126.942 141.668 126.33 142.208C125.718 142.736 124.746 143 123.414 143H119.04V133.352H120.624V137.312H123.486ZM125.664 140.138C125.664 139.55 125.454 139.154 125.034 138.95C124.626 138.734 124.05 138.626 123.306 138.626H120.624V141.722H123.342C124.014 141.722 124.566 141.602 124.998 141.362C125.442 141.122 125.664 140.714 125.664 140.138ZM142.381 133.352V143H140.797V134.702H135.811V143H134.227V133.352H142.381ZM153.848 138.158C153.848 139.754 153.44 140.99 152.624 141.866C151.82 142.742 150.728 143.18 149.348 143.18C148.496 143.18 147.734 142.988 147.062 142.604C146.402 142.208 145.88 141.638 145.496 140.894C145.112 140.138 144.92 139.226 144.92 138.158C144.92 136.562 145.322 135.332 146.126 134.468C146.93 133.604 148.022 133.172 149.402 133.172C150.278 133.172 151.046 133.37 151.706 133.766C152.378 134.15 152.9 134.714 153.272 135.458C153.656 136.19 153.848 137.09 153.848 138.158ZM146.558 138.158C146.558 139.298 146.78 140.204 147.224 140.876C147.68 141.536 148.4 141.866 149.384 141.866C150.356 141.866 151.07 141.536 151.526 140.876C151.982 140.204 152.21 139.298 152.21 138.158C152.21 137.018 151.982 136.124 151.526 135.476C151.07 134.828 150.35 134.504 149.366 134.504C148.382 134.504 147.668 134.828 147.224 135.476C146.78 136.124 146.558 137.018 146.558 138.158ZM162.064 133.352H163.792L159.67 137.996L164.134 143H162.298L157.942 138.104V143H156.358V133.352H157.942V138.032L162.064 133.352ZM164.373 133.352H166.065L168.153 138.842C168.333 139.322 168.495 139.784 168.639 140.228C168.783 140.66 168.891 141.074 168.963 141.47H169.035C169.107 141.17 169.221 140.78 169.377 140.3C169.533 139.808 169.695 139.316 169.863 138.824L171.825 133.352H173.535L169.377 144.332C169.041 145.244 168.603 145.97 168.063 146.51C167.535 147.05 166.803 147.32 165.867 147.32C165.579 147.32 165.327 147.302 165.111 147.266C164.895 147.242 164.709 147.212 164.553 147.176V145.916C164.685 145.94 164.841 145.964 165.021 145.988C165.213 146.012 165.411 146.024 165.615 146.024C166.167 146.024 166.611 145.868 166.947 145.556C167.295 145.244 167.565 144.83 167.757 144.314L168.261 143.036L164.373 133.352ZM183.215 133.352V143H181.631V134.702H176.645V143H175.061V133.352H183.215ZM192 133.352H193.728L189.606 137.996L194.07 143H192.234L187.878 138.104V143H186.294V133.352H187.878V138.032L192 133.352ZM194.309 133.352H196.001L198.089 138.842C198.269 139.322 198.431 139.784 198.575 140.228C198.719 140.66 198.827 141.074 198.899 141.47H198.971C199.043 141.17 199.157 140.78 199.313 140.3C199.469 139.808 199.631 139.316 199.799 138.824L201.761 133.352H203.471L199.313 144.332C198.977 145.244 198.539 145.97 197.999 146.51C197.471 147.05 196.739 147.32 195.803 147.32C195.515 147.32 195.263 147.302 195.047 147.266C194.831 147.242 194.645 147.212 194.489 147.176V145.916C194.621 145.94 194.777 145.964 194.957 145.988C195.149 146.012 195.347 146.024 195.551 146.024C196.103 146.024 196.547 145.868 196.883 145.556C197.231 145.244 197.501 144.83 197.693 144.314L198.197 143.036L194.309 133.352Z" fill="black"/>
<path d="M80.1496 22.885C78.576 21.6303 77.111 20.4588 75.644 19.2922C74.0608 18.0335 72.4795 16.7718 70.8858 15.529C70.2565 15.0338 69.9174 14.4188 70.0692 13.6078C70.221 12.7967 70.7685 12.4055 71.4996 12.1788C81.1506 9.19065 90.8007 6.19892 100.45 3.20355C103.753 2.17891 107.055 1.15196 110.356 0.12269C111.076 -0.103101 111.724 -0.0426922 112.267 0.518815C112.81 1.08032 112.851 1.75571 112.637 2.49053C109.996 11.5202 107.36 20.5525 104.729 29.5875C103.473 33.892 102.219 38.1972 100.966 42.5031C100.745 43.2657 100.364 43.8579 99.5544 44.0104C98.7446 44.1629 98.1528 43.7787 97.6657 43.1191C95.4613 40.1482 93.2485 37.1815 91.0274 34.2192C90.9025 34.0518 90.7719 33.8884 90.5769 33.6379C89.8083 34.4549 89.0696 35.2501 88.3173 36.0285C85.2432 39.2041 82.1661 42.376 79.0861 45.5444C78.2148 46.4357 77.0966 46.3594 76.3597 45.3255C74.5494 42.7623 72.4129 40.4616 70.0077 38.4854C69.5811 38.1378 69.1431 37.811 68.7098 37.4664C67.8317 36.7593 67.7568 35.563 68.5494 34.745C72.2685 30.9052 75.9902 27.0684 79.7144 23.2346C79.8531 23.1099 79.9984 22.9932 80.1496 22.885ZM108.48 4.40876L75.4721 14.6545C75.7026 14.8526 75.8438 14.9863 75.9947 15.1061C78.5341 17.1376 81.0732 19.1687 83.6119 21.1995C84.6418 22.0274 84.6965 23.1178 83.7656 24.0803C81.5746 26.3462 79.3804 28.609 77.183 30.8689C75.5768 32.5237 73.9686 34.1756 72.4344 35.7542L78.1024 41.5881C78.2715 41.3999 78.4924 41.1395 78.7288 40.8949C82.2794 37.232 85.834 33.5715 89.3923 29.9133C90.3934 28.8873 91.4799 28.9943 92.3263 30.1351C93.8518 32.1917 95.3825 34.2443 96.9183 36.2929C97.4409 36.992 97.9693 37.6872 98.5448 38.4508L108.48 4.40876Z" fill="black"/>
</svg>
