<svg width="255" height="125" viewBox="0 0 255 125" fill="none" xmlns="http://www.w3.org/2000/svg">
<path d="M1.37988 96V86.4902H5.08887C6.35449 86.4902 7.32422 86.7129 7.99805 87.1582C8.67773 87.5977 9.01758 88.2451 9.01758 89.1006C9.01758 89.54 8.88574 89.9385 8.62207 90.2959C8.3584 90.6475 7.96875 90.917 7.45312 91.1045C8.02734 91.2393 8.4873 91.5029 8.83301 91.8955C9.18457 92.2881 9.36035 92.7568 9.36035 93.3018C9.36035 94.1748 9.03809 94.8428 8.39355 95.3057C7.75488 95.7686 6.84961 96 5.67773 96H1.37988ZM3.00586 91.8252V94.6904H5.69531C6.375 94.6904 6.88184 94.5645 7.21582 94.3125C7.55566 94.0605 7.72559 93.7061 7.72559 93.249C7.72559 92.2998 7.02832 91.8252 5.63379 91.8252H3.00586ZM3.00586 90.5244H5.10645C6.62988 90.5244 7.3916 90.0791 7.3916 89.1885C7.3916 88.2979 6.6709 87.8379 5.22949 87.8086H3.00586V90.5244ZM19.2832 96H17.6572V91.9395H13.2891V96H11.6543V86.4902H13.2891V90.6123H17.6572V86.4902H19.2832V96ZM21.4717 91.1572C21.4717 90.2256 21.6533 89.3877 22.0166 88.6436C22.3857 87.8994 22.8955 87.3252 23.5459 86.9209C24.2021 86.5166 24.9492 86.3145 25.7871 86.3145C27.082 86.3145 28.1279 86.7627 28.9248 87.6592C29.7275 88.5557 30.1289 89.748 30.1289 91.2363V91.3506C30.1289 92.2764 29.9502 93.1084 29.5928 93.8467C29.2412 94.5791 28.7344 95.1504 28.0723 95.5605C27.416 95.9707 26.6602 96.1758 25.8047 96.1758C24.5156 96.1758 23.4697 95.7275 22.667 94.8311C21.8701 93.9346 21.4717 92.748 21.4717 91.2715V91.1572ZM23.1064 91.3506C23.1064 92.4053 23.3496 93.252 23.8359 93.8906C24.3281 94.5293 24.9844 94.8486 25.8047 94.8486C26.6309 94.8486 27.2871 94.5264 27.7734 93.8818C28.2598 93.2314 28.5029 92.3232 28.5029 91.1572C28.5029 90.1143 28.2539 89.2705 27.7559 88.626C27.2637 87.9756 26.6074 87.6504 25.7871 87.6504C24.9844 87.6504 24.3369 87.9697 23.8447 88.6084C23.3525 89.2471 23.1064 90.1611 23.1064 91.3506ZM35.9824 94.8486C36.5625 94.8486 37.0693 94.6729 37.5029 94.3213C37.9365 93.9697 38.1768 93.5303 38.2236 93.0029H39.7617C39.7324 93.5479 39.5449 94.0664 39.1992 94.5586C38.8535 95.0508 38.3906 95.4434 37.8105 95.7363C37.2363 96.0293 36.627 96.1758 35.9824 96.1758C34.6875 96.1758 33.6562 95.7451 32.8887 94.8838C32.127 94.0166 31.7461 92.833 31.7461 91.333V91.0605C31.7461 90.1348 31.916 89.3115 32.2559 88.5908C32.5957 87.8701 33.082 87.3105 33.7148 86.9121C34.3535 86.5137 35.1064 86.3145 35.9736 86.3145C37.04 86.3145 37.9248 86.6338 38.6279 87.2725C39.3369 87.9111 39.7148 88.7402 39.7617 89.7598H38.2236C38.1768 89.1445 37.9424 88.6406 37.5205 88.248C37.1045 87.8496 36.5889 87.6504 35.9736 87.6504C35.1475 87.6504 34.5059 87.9492 34.0488 88.5469C33.5977 89.1387 33.3721 89.9971 33.3721 91.1221V91.4297C33.3721 92.5254 33.5977 93.3691 34.0488 93.9609C34.5 94.5527 35.1445 94.8486 35.9824 94.8486ZM47.7422 86.4902H49.3682V96H47.7422V89.0654L43.3564 96H41.7305V86.4902H43.3564V93.4336L47.7422 86.4902ZM57.4541 93.8467L60.6885 86.4902H62.7188V96H61.0928V89.083L58.0166 96H56.8916L53.7539 88.9336V96H52.1279V86.4902H54.2373L57.4541 93.8467ZM77.5811 96H75.9551V87.835H71.5781V96H69.9434V86.4902H77.5811V96ZM88.2246 91.3506C88.2246 92.7979 87.8936 93.9639 87.2314 94.8486C86.5693 95.7334 85.6729 96.1758 84.542 96.1758C83.3877 96.1758 82.4795 95.8096 81.8174 95.0771V99.6562H80.1914V86.4902H81.6768L81.7559 87.5449C82.418 86.7246 83.3379 86.3145 84.5156 86.3145C85.6582 86.3145 86.5605 86.7451 87.2227 87.6064C87.8906 88.4678 88.2246 89.666 88.2246 91.2012V91.3506ZM86.5986 91.166C86.5986 90.0938 86.3701 89.2471 85.9131 88.626C85.4561 88.0049 84.8291 87.6943 84.0322 87.6943C83.0479 87.6943 82.3096 88.1309 81.8174 89.0039V93.5479C82.3037 94.415 83.0479 94.8486 84.0498 94.8486C84.8291 94.8486 85.4473 94.541 85.9043 93.9258C86.3672 93.3047 86.5986 92.3848 86.5986 91.166ZM94.2451 96.1758C92.9561 96.1758 91.9072 95.7539 91.0986 94.9102C90.29 94.0605 89.8857 92.9268 89.8857 91.5088V91.21C89.8857 90.2666 90.0645 89.4258 90.4219 88.6875C90.7852 87.9434 91.2891 87.3633 91.9336 86.9473C92.584 86.5254 93.2871 86.3145 94.043 86.3145C95.2793 86.3145 96.2402 86.7217 96.9258 87.5361C97.6113 88.3506 97.9541 89.5166 97.9541 91.0342V91.7109H91.5117C91.5352 92.6484 91.8076 93.4072 92.3291 93.9873C92.8564 94.5615 93.5244 94.8486 94.333 94.8486C94.9072 94.8486 95.3936 94.7314 95.792 94.4971C96.1904 94.2627 96.5391 93.9521 96.8379 93.5654L97.8311 94.3389C97.0342 95.5635 95.8389 96.1758 94.2451 96.1758ZM94.043 87.6504C93.3867 87.6504 92.8359 87.8906 92.3906 88.3711C91.9453 88.8457 91.6699 89.5137 91.5645 90.375H96.3281V90.252C96.2812 89.4258 96.0586 88.7871 95.6602 88.3359C95.2617 87.8789 94.7227 87.6504 94.043 87.6504ZM99.7646 94.6729L100.327 93.9785C100.96 93.1582 101.32 91.9277 101.408 90.2871L101.558 86.4902H107.684V94.6729H108.905V98.7949H107.279V96H100.644V98.7949H99.0176L99.0264 94.6729H99.7646ZM101.689 94.6729H106.058V87.9932H103.131L103.034 90.2607C102.935 92.1533 102.486 93.624 101.689 94.6729ZM110.276 91.1572C110.276 90.2256 110.458 89.3877 110.821 88.6436C111.19 87.8994 111.7 87.3252 112.351 86.9209C113.007 86.5166 113.754 86.3145 114.592 86.3145C115.887 86.3145 116.933 86.7627 117.729 87.6592C118.532 88.5557 118.934 89.748 118.934 91.2363V91.3506C118.934 92.2764 118.755 93.1084 118.397 93.8467C118.046 94.5791 117.539 95.1504 116.877 95.5605C116.221 95.9707 115.465 96.1758 114.609 96.1758C113.32 96.1758 112.274 95.7275 111.472 94.8311C110.675 93.9346 110.276 92.748 110.276 91.2715V91.1572ZM111.911 91.3506C111.911 92.4053 112.154 93.252 112.641 93.8906C113.133 94.5293 113.789 94.8486 114.609 94.8486C115.436 94.8486 116.092 94.5264 116.578 93.8818C117.064 93.2314 117.308 92.3232 117.308 91.1572C117.308 90.1143 117.059 89.2705 116.561 88.626C116.068 87.9756 115.412 87.6504 114.592 87.6504C113.789 87.6504 113.142 87.9697 112.649 88.6084C112.157 89.2471 111.911 90.1611 111.911 91.3506ZM128.751 96H127.125V87.835H122.748V96H121.113V86.4902H128.751V96ZM139.157 86.4902V96H137.522V87.835H134.288L134.095 91.3945C133.989 93.0293 133.714 94.1982 133.269 94.9014C132.829 95.6045 132.129 95.9707 131.168 96H130.518V94.5674L130.983 94.5322C131.511 94.4736 131.889 94.1689 132.117 93.6182C132.346 93.0674 132.492 92.0479 132.557 90.5596L132.732 86.4902H139.157ZM147.639 96C147.545 95.8125 147.469 95.4785 147.41 94.998C146.654 95.7832 145.752 96.1758 144.703 96.1758C143.766 96.1758 142.995 95.9121 142.392 95.3848C141.794 94.8516 141.495 94.1777 141.495 93.3633C141.495 92.373 141.87 91.6055 142.62 91.0605C143.376 90.5098 144.437 90.2344 145.802 90.2344H147.384V89.4873C147.384 88.9189 147.214 88.4678 146.874 88.1338C146.534 87.7939 146.033 87.624 145.371 87.624C144.791 87.624 144.305 87.7705 143.912 88.0635C143.52 88.3564 143.323 88.7109 143.323 89.127H141.688C141.688 88.6523 141.855 88.1953 142.189 87.7559C142.529 87.3105 142.986 86.959 143.561 86.7012C144.141 86.4434 144.776 86.3145 145.468 86.3145C146.563 86.3145 147.422 86.5898 148.043 87.1406C148.664 87.6855 148.986 88.4385 149.01 89.3994V93.7764C149.01 94.6494 149.121 95.3438 149.344 95.8594V96H147.639ZM144.94 94.7607C145.45 94.7607 145.934 94.6289 146.391 94.3652C146.848 94.1016 147.179 93.7588 147.384 93.3369V91.3857H146.109C144.117 91.3857 143.121 91.9688 143.121 93.1348C143.121 93.6445 143.291 94.043 143.631 94.3301C143.971 94.6172 144.407 94.7607 144.94 94.7607ZM158.484 87.8086H155.294V96H153.668V87.8086H150.539V86.4902H158.484V87.8086ZM163.283 93.6182L165.498 86.4902H167.238L163.415 97.4678C162.823 99.0498 161.883 99.8408 160.594 99.8408L160.286 99.8145L159.68 99.7002V98.3818L160.119 98.417C160.67 98.417 161.098 98.3057 161.402 98.083C161.713 97.8604 161.968 97.4531 162.167 96.8613L162.527 95.8945L159.135 86.4902H160.91L163.283 93.6182ZM173.742 89.584L174.393 83.2031H180.949V84.7061H175.772L175.386 88.1953C176.013 87.8262 176.725 87.6416 177.521 87.6416C178.688 87.6416 179.613 88.0283 180.299 88.8018C180.984 89.5693 181.327 90.6094 181.327 91.9219C181.327 93.2402 180.97 94.2803 180.255 95.042C179.546 95.7979 178.553 96.1758 177.275 96.1758C176.145 96.1758 175.222 95.8623 174.507 95.2354C173.792 94.6084 173.385 93.7412 173.285 92.6338H174.823C174.923 93.3662 175.184 93.9199 175.605 94.2949C176.027 94.6641 176.584 94.8486 177.275 94.8486C178.031 94.8486 178.623 94.5908 179.051 94.0752C179.484 93.5596 179.701 92.8477 179.701 91.9395C179.701 91.084 179.467 90.3984 178.998 89.8828C178.535 89.3613 177.917 89.1006 177.144 89.1006C176.435 89.1006 175.878 89.2559 175.474 89.5664L175.043 89.918L173.742 89.584ZM191.127 90.542C191.127 92.4463 190.802 93.8613 190.151 94.7871C189.501 95.7129 188.484 96.1758 187.102 96.1758C185.736 96.1758 184.726 95.7246 184.069 94.8223C183.413 93.9141 183.073 92.5605 183.05 90.7617V88.5908C183.05 86.71 183.375 85.3125 184.025 84.3984C184.676 83.4844 185.695 83.0273 187.084 83.0273C188.461 83.0273 189.475 83.4697 190.125 84.3545C190.775 85.2334 191.109 86.5928 191.127 88.4326V90.542ZM189.501 88.3184C189.501 86.9414 189.308 85.9395 188.921 85.3125C188.534 84.6797 187.922 84.3633 187.084 84.3633C186.252 84.3633 185.646 84.6768 185.265 85.3037C184.884 85.9307 184.688 86.8945 184.676 88.1953V90.7969C184.676 92.1797 184.875 93.2021 185.273 93.8643C185.678 94.5205 186.287 94.8486 187.102 94.8486C187.904 94.8486 188.499 94.5381 188.886 93.917C189.278 93.2959 189.483 92.3174 189.501 90.9814V88.3184ZM193.069 85.6641C193.069 84.8965 193.312 84.2637 193.799 83.7656C194.291 83.2676 194.921 83.0186 195.688 83.0186C196.468 83.0186 197.098 83.2705 197.578 83.7744C198.064 84.2725 198.308 84.9199 198.308 85.7168V86.3408C198.308 87.1143 198.062 87.7471 197.569 88.2393C197.083 88.7256 196.462 88.9688 195.706 88.9688C194.944 88.9688 194.314 88.7256 193.816 88.2393C193.318 87.7471 193.069 87.0938 193.069 86.2793V85.6641ZM194.282 86.3408C194.282 86.7979 194.411 87.1758 194.669 87.4746C194.927 87.7676 195.272 87.9141 195.706 87.9141C196.122 87.9141 196.456 87.7705 196.708 87.4834C196.966 87.1963 197.095 86.8037 197.095 86.3057V85.6641C197.095 85.207 196.969 84.8291 196.717 84.5303C196.465 84.2314 196.122 84.082 195.688 84.082C195.255 84.082 194.912 84.2314 194.66 84.5303C194.408 84.8291 194.282 85.2188 194.282 85.6992V86.3408ZM199.301 92.8623C199.301 92.0947 199.544 91.4648 200.03 90.9727C200.522 90.4746 201.152 90.2256 201.92 90.2256C202.688 90.2256 203.317 90.4717 203.81 90.9639C204.302 91.4561 204.548 92.1094 204.548 92.9238V93.5479C204.548 94.3154 204.302 94.9482 203.81 95.4463C203.323 95.9385 202.699 96.1846 201.938 96.1846C201.176 96.1846 200.546 95.9414 200.048 95.4551C199.55 94.9629 199.301 94.3096 199.301 93.4951V92.8623ZM200.514 93.5479C200.514 94.0107 200.643 94.3916 200.9 94.6904C201.158 94.9834 201.504 95.1299 201.938 95.1299C202.359 95.1299 202.696 94.9863 202.948 94.6992C203.2 94.4062 203.326 94.0107 203.326 93.5127V92.8623C203.326 92.3994 203.197 92.0215 202.939 91.7285C202.688 91.4355 202.348 91.2891 201.92 91.2891C201.504 91.2891 201.164 91.4355 200.9 91.7285C200.643 92.0156 200.514 92.4053 200.514 92.8975V93.5479ZM196.075 95.0332L195.152 94.4531L201.401 84.4512L202.324 85.0312L196.075 95.0332ZM217.178 86.4902H218.804V96H217.178V89.0654L212.792 96H211.166V86.4902H212.792V93.4336L217.178 86.4902ZM229.21 86.4902V96H227.575V87.835H224.341L224.147 91.3945C224.042 93.0293 223.767 94.1982 223.321 94.9014C222.882 95.6045 222.182 95.9707 221.221 96H220.57V94.5674L221.036 94.5322C221.563 94.4736 221.941 94.1689 222.17 93.6182C222.398 93.0674 222.545 92.0479 222.609 90.5596L222.785 86.4902H229.21ZM237.973 86.4902H239.599V96H237.973V89.0654L233.587 96H231.961V86.4902H233.587V93.4336L237.973 86.4902ZM6.40723 117H4.77246V106.163L1.49414 107.367V105.891L6.15234 104.142H6.40723V117ZM19.1953 111.542C19.1953 113.446 18.8701 114.861 18.2197 115.787C17.5693 116.713 16.5527 117.176 15.1699 117.176C13.8047 117.176 12.7939 116.725 12.1377 115.822C11.4814 114.914 11.1416 113.561 11.1182 111.762V109.591C11.1182 107.71 11.4434 106.312 12.0938 105.398C12.7441 104.484 13.7637 104.027 15.1523 104.027C16.5293 104.027 17.543 104.47 18.1934 105.354C18.8438 106.233 19.1777 107.593 19.1953 109.433V111.542ZM17.5693 109.318C17.5693 107.941 17.376 106.939 16.9893 106.312C16.6025 105.68 15.9902 105.363 15.1523 105.363C14.3203 105.363 13.7139 105.677 13.333 106.304C12.9521 106.931 12.7559 107.895 12.7441 109.195V111.797C12.7441 113.18 12.9434 114.202 13.3418 114.864C13.7461 115.521 14.3555 115.849 15.1699 115.849C15.9727 115.849 16.5674 115.538 16.9541 114.917C17.3467 114.296 17.5518 113.317 17.5693 111.981V109.318ZM29.3027 111.542C29.3027 113.446 28.9775 114.861 28.3271 115.787C27.6768 116.713 26.6602 117.176 25.2773 117.176C23.9121 117.176 22.9014 116.725 22.2451 115.822C21.5889 114.914 21.249 113.561 21.2256 111.762V109.591C21.2256 107.71 21.5508 106.312 22.2012 105.398C22.8516 104.484 23.8711 104.027 25.2598 104.027C26.6367 104.027 27.6504 104.47 28.3008 105.354C28.9512 106.233 29.2852 107.593 29.3027 109.433V111.542ZM27.6768 109.318C27.6768 107.941 27.4834 106.939 27.0967 106.312C26.71 105.68 26.0977 105.363 25.2598 105.363C24.4277 105.363 23.8213 105.677 23.4404 106.304C23.0596 106.931 22.8633 107.895 22.8516 109.195V111.797C22.8516 113.18 23.0508 114.202 23.4492 114.864C23.8535 115.521 24.4629 115.849 25.2773 115.849C26.0801 115.849 26.6748 115.538 27.0615 114.917C27.4541 114.296 27.6592 113.317 27.6768 111.981V109.318ZM31.2451 106.664C31.2451 105.896 31.4883 105.264 31.9746 104.766C32.4668 104.268 33.0967 104.019 33.8643 104.019C34.6436 104.019 35.2734 104.271 35.7539 104.774C36.2402 105.272 36.4834 105.92 36.4834 106.717V107.341C36.4834 108.114 36.2373 108.747 35.7451 109.239C35.2588 109.726 34.6377 109.969 33.8818 109.969C33.1201 109.969 32.4902 109.726 31.9922 109.239C31.4941 108.747 31.2451 108.094 31.2451 107.279V106.664ZM32.458 107.341C32.458 107.798 32.5869 108.176 32.8447 108.475C33.1025 108.768 33.4482 108.914 33.8818 108.914C34.2979 108.914 34.6318 108.771 34.8838 108.483C35.1416 108.196 35.2705 107.804 35.2705 107.306V106.664C35.2705 106.207 35.1445 105.829 34.8926 105.53C34.6406 105.231 34.2979 105.082 33.8643 105.082C33.4307 105.082 33.0879 105.231 32.8359 105.53C32.584 105.829 32.458 106.219 32.458 106.699V107.341ZM37.4766 113.862C37.4766 113.095 37.7197 112.465 38.2061 111.973C38.6982 111.475 39.3281 111.226 40.0957 111.226C40.8633 111.226 41.4932 111.472 41.9854 111.964C42.4775 112.456 42.7236 113.109 42.7236 113.924V114.548C42.7236 115.315 42.4775 115.948 41.9854 116.446C41.499 116.938 40.875 117.185 40.1133 117.185C39.3516 117.185 38.7217 116.941 38.2236 116.455C37.7256 115.963 37.4766 115.31 37.4766 114.495V113.862ZM38.6895 114.548C38.6895 115.011 38.8184 115.392 39.0762 115.69C39.334 115.983 39.6797 116.13 40.1133 116.13C40.5352 116.13 40.8721 115.986 41.124 115.699C41.376 115.406 41.502 115.011 41.502 114.513V113.862C41.502 113.399 41.373 113.021 41.1152 112.729C40.8633 112.436 40.5234 112.289 40.0957 112.289C39.6797 112.289 39.3398 112.436 39.0762 112.729C38.8184 113.016 38.6895 113.405 38.6895 113.897V114.548ZM34.251 116.033L33.3281 115.453L39.5771 105.451L40.5 106.031L34.251 116.033ZM49.3506 117V107.49H53.0596C54.3252 107.49 55.2949 107.713 55.9688 108.158C56.6484 108.598 56.9883 109.245 56.9883 110.101C56.9883 110.54 56.8564 110.938 56.5928 111.296C56.3291 111.647 55.9395 111.917 55.4238 112.104C55.998 112.239 56.458 112.503 56.8037 112.896C57.1553 113.288 57.3311 113.757 57.3311 114.302C57.3311 115.175 57.0088 115.843 56.3643 116.306C55.7256 116.769 54.8203 117 53.6484 117H49.3506ZM50.9766 112.825V115.69H53.666C54.3457 115.69 54.8525 115.564 55.1865 115.312C55.5264 115.061 55.6963 114.706 55.6963 114.249C55.6963 113.3 54.999 112.825 53.6045 112.825H50.9766ZM50.9766 111.524H53.0771C54.6006 111.524 55.3623 111.079 55.3623 110.188C55.3623 109.298 54.6416 108.838 53.2002 108.809H50.9766V111.524ZM71.0156 108.809H67.8252V117H66.1992V108.809H63.0703V107.49H71.0156V108.809ZM75.8408 117.176C74.5518 117.176 73.5029 116.754 72.6943 115.91C71.8857 115.061 71.4814 113.927 71.4814 112.509V112.21C71.4814 111.267 71.6602 110.426 72.0176 109.688C72.3809 108.943 72.8848 108.363 73.5293 107.947C74.1797 107.525 74.8828 107.314 75.6387 107.314C76.875 107.314 77.8359 107.722 78.5215 108.536C79.207 109.351 79.5498 110.517 79.5498 112.034V112.711H73.1074C73.1309 113.648 73.4033 114.407 73.9248 114.987C74.4521 115.562 75.1201 115.849 75.9287 115.849C76.5029 115.849 76.9893 115.731 77.3877 115.497C77.7861 115.263 78.1348 114.952 78.4336 114.565L79.4268 115.339C78.6299 116.563 77.4346 117.176 75.8408 117.176ZM75.6387 108.65C74.9824 108.65 74.4316 108.891 73.9863 109.371C73.541 109.846 73.2656 110.514 73.1602 111.375H77.9238V111.252C77.877 110.426 77.6543 109.787 77.2559 109.336C76.8574 108.879 76.3184 108.65 75.6387 108.65ZM88.6201 117H86.9854V113.555C86.2705 113.742 85.5381 113.836 84.7881 113.836C83.5986 113.836 82.6904 113.531 82.0635 112.922C81.4424 112.312 81.126 111.445 81.1143 110.32V107.481H82.7402V110.373C82.7695 111.791 83.4521 112.5 84.7881 112.5C85.5381 112.5 86.2705 112.406 86.9854 112.219V107.49H88.6201V117ZM95.1768 117.176C93.8877 117.176 92.8389 116.754 92.0303 115.91C91.2217 115.061 90.8174 113.927 90.8174 112.509V112.21C90.8174 111.267 90.9961 110.426 91.3535 109.688C91.7168 108.943 92.2207 108.363 92.8652 107.947C93.5156 107.525 94.2188 107.314 94.9746 107.314C96.2109 107.314 97.1719 107.722 97.8574 108.536C98.543 109.351 98.8857 110.517 98.8857 112.034V112.711H92.4434C92.4668 113.648 92.7393 114.407 93.2607 114.987C93.7881 115.562 94.4561 115.849 95.2646 115.849C95.8389 115.849 96.3252 115.731 96.7236 115.497C97.1221 115.263 97.4707 114.952 97.7695 114.565L98.7627 115.339C97.9658 116.563 96.7705 117.176 95.1768 117.176ZM94.9746 108.65C94.3184 108.65 93.7676 108.891 93.3223 109.371C92.877 109.846 92.6016 110.514 92.4961 111.375H97.2598V111.252C97.2129 110.426 96.9902 109.787 96.5918 109.336C96.1934 108.879 95.6543 108.65 94.9746 108.65ZM108.545 117H106.919V112.939H102.551V117H100.916V107.49H102.551V111.612H106.919V107.49H108.545V117ZM117.316 107.49H118.942V117H117.316V110.065L112.931 117H111.305V107.49H112.931V114.434L117.316 107.49ZM127.705 107.49H129.331V117H127.705V110.065L123.319 117H121.693V107.49H123.319V114.434L127.705 107.49ZM144.624 117H136.239V115.831L140.669 110.909C141.325 110.165 141.776 109.562 142.022 109.099C142.274 108.63 142.4 108.146 142.4 107.648C142.4 106.98 142.198 106.433 141.794 106.005C141.39 105.577 140.851 105.363 140.177 105.363C139.368 105.363 138.738 105.595 138.287 106.058C137.842 106.515 137.619 107.153 137.619 107.974H135.993C135.993 106.796 136.371 105.844 137.127 105.117C137.889 104.391 138.905 104.027 140.177 104.027C141.366 104.027 142.307 104.341 142.998 104.968C143.689 105.589 144.035 106.418 144.035 107.455C144.035 108.715 143.232 110.215 141.627 111.955L138.199 115.673H144.624V117ZM153.211 112.702H154.986V114.029H153.211V117H151.576V114.029H145.749V113.071L151.479 104.203H153.211V112.702ZM147.595 112.702H151.576V106.427L151.383 106.778L147.595 112.702ZM168.267 117H166.632V113.555C165.917 113.742 165.185 113.836 164.435 113.836C163.245 113.836 162.337 113.531 161.71 112.922C161.089 112.312 160.772 111.445 160.761 110.32V107.481H162.387V110.373C162.416 111.791 163.099 112.5 164.435 112.5C165.185 112.5 165.917 112.406 166.632 112.219V107.49H168.267V117ZM176.748 117C176.654 116.812 176.578 116.479 176.52 115.998C175.764 116.783 174.861 117.176 173.812 117.176C172.875 117.176 172.104 116.912 171.501 116.385C170.903 115.852 170.604 115.178 170.604 114.363C170.604 113.373 170.979 112.605 171.729 112.061C172.485 111.51 173.546 111.234 174.911 111.234H176.493V110.487C176.493 109.919 176.323 109.468 175.983 109.134C175.644 108.794 175.143 108.624 174.48 108.624C173.9 108.624 173.414 108.771 173.021 109.063C172.629 109.356 172.433 109.711 172.433 110.127H170.798C170.798 109.652 170.965 109.195 171.299 108.756C171.639 108.311 172.096 107.959 172.67 107.701C173.25 107.443 173.886 107.314 174.577 107.314C175.673 107.314 176.531 107.59 177.152 108.141C177.773 108.686 178.096 109.438 178.119 110.399V114.776C178.119 115.649 178.23 116.344 178.453 116.859V117H176.748ZM174.05 115.761C174.56 115.761 175.043 115.629 175.5 115.365C175.957 115.102 176.288 114.759 176.493 114.337V112.386H175.219C173.227 112.386 172.23 112.969 172.23 114.135C172.23 114.645 172.4 115.043 172.74 115.33C173.08 115.617 173.517 115.761 174.05 115.761ZM184.482 115.849C185.062 115.849 185.569 115.673 186.003 115.321C186.437 114.97 186.677 114.53 186.724 114.003H188.262C188.232 114.548 188.045 115.066 187.699 115.559C187.354 116.051 186.891 116.443 186.311 116.736C185.736 117.029 185.127 117.176 184.482 117.176C183.188 117.176 182.156 116.745 181.389 115.884C180.627 115.017 180.246 113.833 180.246 112.333V112.061C180.246 111.135 180.416 110.312 180.756 109.591C181.096 108.87 181.582 108.311 182.215 107.912C182.854 107.514 183.606 107.314 184.474 107.314C185.54 107.314 186.425 107.634 187.128 108.272C187.837 108.911 188.215 109.74 188.262 110.76H186.724C186.677 110.145 186.442 109.641 186.021 109.248C185.604 108.85 185.089 108.65 184.474 108.65C183.647 108.65 183.006 108.949 182.549 109.547C182.098 110.139 181.872 110.997 181.872 112.122V112.43C181.872 113.525 182.098 114.369 182.549 114.961C183 115.553 183.645 115.849 184.482 115.849ZM189.659 112.157C189.659 111.226 189.841 110.388 190.204 109.644C190.573 108.899 191.083 108.325 191.733 107.921C192.39 107.517 193.137 107.314 193.975 107.314C195.27 107.314 196.315 107.763 197.112 108.659C197.915 109.556 198.316 110.748 198.316 112.236V112.351C198.316 113.276 198.138 114.108 197.78 114.847C197.429 115.579 196.922 116.15 196.26 116.561C195.604 116.971 194.848 117.176 193.992 117.176C192.703 117.176 191.657 116.728 190.854 115.831C190.058 114.935 189.659 113.748 189.659 112.271V112.157ZM191.294 112.351C191.294 113.405 191.537 114.252 192.023 114.891C192.516 115.529 193.172 115.849 193.992 115.849C194.818 115.849 195.475 115.526 195.961 114.882C196.447 114.231 196.69 113.323 196.69 112.157C196.69 111.114 196.441 110.271 195.943 109.626C195.451 108.976 194.795 108.65 193.975 108.65C193.172 108.65 192.524 108.97 192.032 109.608C191.54 110.247 191.294 111.161 191.294 112.351ZM200.505 117V107.49H204.214C205.479 107.49 206.449 107.713 207.123 108.158C207.803 108.598 208.143 109.245 208.143 110.101C208.143 110.54 208.011 110.938 207.747 111.296C207.483 111.647 207.094 111.917 206.578 112.104C207.152 112.239 207.612 112.503 207.958 112.896C208.31 113.288 208.485 113.757 208.485 114.302C208.485 115.175 208.163 115.843 207.519 116.306C206.88 116.769 205.975 117 204.803 117H200.505ZM202.131 112.825V115.69H204.82C205.5 115.69 206.007 115.564 206.341 115.312C206.681 115.061 206.851 114.706 206.851 114.249C206.851 113.3 206.153 112.825 204.759 112.825H202.131ZM202.131 111.524H204.231C205.755 111.524 206.517 111.079 206.517 110.188C206.517 109.298 205.796 108.838 204.354 108.809H202.131V111.524Z" fill="black"/>
<g clip-path="url(#clip0_8:108)">
<path d="M146.893 9.21092C148.135 9.02276 149.296 8.8587 150.451 8.67054C151.52 8.49593 152.103 8.92041 152.273 10.0042C152.723 12.8642 153.195 15.7242 153.669 18.6669C154.911 18.6669 156.132 18.6669 157.351 18.6669C158.488 18.6669 159.003 19.1682 159.003 20.3227C159.003 32.6658 159.003 45.0089 159.003 57.352C159.003 58.5156 158.508 59.0078 157.366 59.0078H91.1415C90.1444 59.0078 89.7254 58.6631 89.3635 57.5357C87.9939 53.2527 86.6264 48.9692 85.2608 44.6853C82.9272 37.4069 80.5906 30.1315 78.2509 22.8591C77.7374 21.2605 77.9506 20.8496 79.5634 20.3333L122.567 6.49696C129.094 4.39662 135.62 2.29579 142.145 0.194453C143.444 -0.224008 143.947 0.0439257 144.38 1.37758C145.213 3.95307 146.037 6.54511 146.893 9.21092ZM92.2032 29.7321V47.9351C96.8254 48.897 99.5705 51.7148 100.5 56.2502H147.961C148.936 51.62 151.706 48.8744 156.294 47.9291V29.7351C151.67 28.7898 148.9 26.0081 147.951 21.3945H100.497C99.5465 25.9915 96.7984 28.7717 92.2032 29.7321ZM149.784 11.4959L105.538 18.5525L105.547 18.6278H150.92L149.784 11.4959ZM99.988 16.5792L100.02 16.7131L144.228 9.65046L142.091 3.02734L99.988 16.5792ZM86.4352 21.5916L89.3379 39.8941L89.4085 39.8745V21.1295L86.4352 21.5916ZM81.011 22.686L86.3691 39.4816L86.5313 39.441L83.7366 21.8069L81.011 22.686ZM150.759 21.393C151.02 24.265 154.027 26.8119 156.27 26.8992V21.393H150.759ZM156.29 56.2592V50.7454C153.746 50.9276 150.883 53.7816 150.769 56.2592H156.29ZM92.2032 21.3869V26.9172C94.717 26.7487 97.5612 23.854 97.6634 21.3869H92.2032ZM92.1927 56.2381H97.7234C97.1062 53.3315 94.6014 50.8659 92.1927 50.7786V56.2381Z" fill="black"/>
<path d="M133.177 38.8238C133.13 42.8986 132.456 46.2944 130.343 49.2688C129.347 50.6717 128.079 51.763 126.376 52.186C124.213 52.7248 122.375 52.0008 120.819 50.5016C118.957 48.6953 117.98 46.4118 117.432 43.9266C116.478 39.6005 116.706 35.3467 118.582 31.302C119.113 30.169 119.823 29.1291 120.684 28.2223C123.318 25.4526 126.991 25.555 129.582 28.3728C131.605 30.578 132.518 33.28 132.943 36.1746C133.1 37.2177 133.132 38.2729 133.177 38.8238ZM119.547 39.9543C119.65 40.6678 119.77 42.0902 120.07 43.4766C120.48 45.3777 121.213 47.1599 122.638 48.5553C124.153 50.038 125.93 50.0816 127.395 48.5553C128.135 47.7799 128.739 46.8847 129.181 45.9075C130.633 42.6577 130.851 39.2453 130.173 35.7712C129.777 33.7361 129.101 31.8078 127.673 30.2439C126.021 28.4376 124.093 28.4375 122.417 30.2153C122.246 30.3968 122.086 30.5899 121.941 30.7933C120.135 33.3221 119.632 36.2182 119.547 39.9558V39.9543Z" fill="black"/>
<path d="M142.21 34.3438C143.276 34.4341 144.379 34.3799 145.401 34.6448C147.523 35.1897 148.806 37.2971 148.574 39.5715C148.362 41.6337 146.613 43.3903 144.492 43.5138C142.942 43.6098 141.387 43.6053 139.837 43.5002C137.434 43.3286 135.731 41.2423 135.802 38.7481C135.866 36.4692 137.771 34.55 140.092 34.4461C140.792 34.4145 141.493 34.4461 142.195 34.4461L142.21 34.3438ZM142.202 37.0953C141.577 37.0953 140.951 37.0607 140.329 37.1029C139.211 37.1796 138.508 37.9308 138.506 38.9875C138.505 40.0441 139.221 40.8299 140.328 40.8811C141.574 40.9383 142.827 40.9337 144.073 40.8811C144.318 40.8802 144.56 40.8301 144.785 40.7338C145.01 40.6375 145.214 40.4969 145.384 40.3204C145.554 40.1438 145.687 39.9349 145.775 39.7059C145.863 39.477 145.904 39.2327 145.896 38.9875C145.896 37.9338 145.187 37.1811 144.075 37.1014C143.448 37.0592 142.822 37.0938 142.198 37.0953H142.202Z" fill="black"/>
<path d="M107.698 34.3438C108.738 34.4326 109.815 34.3844 110.814 34.6373C112.941 35.1746 114.236 37.2459 114.035 39.5293C113.854 41.5645 112.092 43.3678 109.98 43.5002C108.408 43.6027 106.832 43.5997 105.26 43.4912C102.886 43.3211 101.191 41.2167 101.267 38.709C101.335 36.4722 103.242 34.5454 105.513 34.4431C106.236 34.41 106.963 34.4431 107.689 34.4431L107.698 34.3438ZM107.648 40.8976C108.223 40.8976 108.798 40.9127 109.372 40.8976C110.573 40.8585 111.342 40.1044 111.347 38.998C111.351 37.8916 110.633 37.1465 109.459 37.1059C108.258 37.0637 107.056 37.0622 105.862 37.1059C104.694 37.1465 103.958 37.9112 103.957 38.989C103.955 40.0667 104.732 40.8525 105.926 40.9006C106.498 40.9157 107.07 40.8976 107.648 40.8961V40.8976Z" fill="black"/>
<path d="M125.901 33.9244C126.454 34.1081 126.942 34.2255 127.394 34.4302C128.145 34.7644 127.616 35.2746 127.505 35.7021C127.394 36.1296 127.13 36.1537 126.703 36.0032C126.151 35.7874 125.561 35.6851 124.969 35.7021C124.638 35.7247 124.15 36.101 124.068 36.4066C123.985 36.7122 124.267 37.2285 124.548 37.4317C125.066 37.8035 125.71 37.9946 126.286 38.2927C127.805 39.0784 128.413 40.3248 127.987 41.8074C127.673 42.8972 126.846 43.4632 125.754 43.835C125.737 44.0735 125.737 44.313 125.754 44.5515C125.855 45.2515 125.574 45.4773 124.877 45.4426C124.329 45.4155 124.15 45.1973 124.225 44.7081C124.321 44.0804 124.096 43.7823 123.438 43.7613C123.153 43.7522 122.874 43.5746 122.59 43.4798C121.989 43.2796 121.898 42.9409 122.106 42.3283C122.344 41.6268 122.605 41.6118 123.243 41.8767C123.865 42.1155 124.533 42.2072 125.195 42.1446C125.544 42.113 126.068 41.678 126.12 41.3589C126.182 40.9916 125.907 40.4437 125.602 40.1712C125.21 39.819 124.646 39.6564 124.153 39.4186C123.281 38.9971 122.462 38.5049 122.163 37.5024C121.777 36.2079 122.384 34.9194 123.682 34.3594C124.132 34.1623 124.383 33.9606 124.305 33.4412C124.213 32.8286 124.416 32.5381 125.117 32.5381C125.846 32.5381 125.958 32.8948 125.897 33.4789C125.891 33.6274 125.892 33.7761 125.901 33.9244Z" fill="black"/>
</g>
<defs>
<clipPath id="clip0_8:108">
<rect width="81" height="59" fill="white" transform="translate(78)"/>
</clipPath>
</defs>
</svg>
