<svg width="188" height="127" viewBox="0 0 188 127" fill="none" xmlns="http://www.w3.org/2000/svg">
<g clip-path="url(#clip0_8:110)">
<path d="M90.5121 65.9516C78.4713 65.9516 66.4306 65.9458 54.3898 65.9342C53.5811 65.9491 52.7776 65.7971 52.0267 65.4873C50.8822 64.9656 50.2189 63.957 50.0653 62.6476C50.0184 62.2437 49.9953 61.8372 49.9961 61.4304C49.9961 42.4796 49.9961 23.5287 49.9961 4.57794C49.9961 1.48961 51.446 0.0150069 54.4556 0.0150069C78.5608 0.0150069 102.667 0.00805202 126.773 -0.00585938C129.462 -0.00585938 131.003 2.00781 130.993 4.29624C130.935 23.4244 130.935 42.5491 130.993 61.6703C130.993 63.957 129.509 65.9829 126.79 65.9707C114.702 65.9203 102.606 65.9516 90.5121 65.9516ZM90.4328 63.291H126.629C128.17 63.291 128.427 63.0215 128.427 61.4164C128.427 42.4969 128.427 23.5769 128.427 4.6562C128.427 2.96422 128.164 2.68773 126.526 2.68773H54.3848C52.8808 2.68773 52.5955 2.97639 52.5955 4.49969C52.5955 23.4772 52.5955 42.4552 52.5955 61.4338C52.5955 63.0476 52.8352 63.2928 54.4067 63.2928L90.4328 63.291Z" fill="black"/>
<path d="M90.4873 9.1709H120.109C122.315 9.1709 123.217 10.1064 123.219 12.4018C123.219 26.1973 123.219 39.9928 123.219 53.7882C123.219 55.8106 122.226 56.8331 120.265 56.8331H60.6797C58.8601 56.8331 57.8726 55.8715 57.7528 53.9934C57.7393 53.7917 57.7528 53.5883 57.7528 53.3848C57.7528 39.7934 57.7567 26.2013 57.7646 12.6087C57.7646 11.9566 57.8254 11.2489 58.0718 10.6629C58.4989 9.65083 59.3665 9.17785 60.4468 9.17437C62.079 9.17437 63.7096 9.17437 65.3418 9.17437L90.4873 9.1709ZM60.5801 39.1048L77.9762 22.4111L93.2387 39.4265L101.552 31.1074L120.418 48.608V12.0175H60.5801V39.1048ZM77.8428 26.4523C77.3466 26.9184 76.8909 27.3392 76.4435 27.7687C71.3212 32.6829 66.201 37.6017 61.0831 42.5252C60.8249 42.7756 60.5548 43.1808 60.5514 43.5164C60.5109 46.8482 60.5261 50.18 60.5295 53.5118C60.5423 53.6625 60.5665 53.8119 60.6021 53.9587C60.7731 53.9872 60.9455 54.0063 61.1186 54.016C67.0534 54.016 72.9866 54.016 78.9215 53.99C79.2793 53.99 79.7131 53.7309 79.9798 53.4561C83.4547 49.8693 86.9156 46.268 90.3624 42.6522C90.7 42.3044 91.0005 41.9444 91.3651 41.5392L77.8428 26.4523ZM83.4131 53.9361H120.415C120.609 53.0005 120.395 52.371 119.711 51.7485C114.254 46.7439 108.84 41.6905 103.412 36.6529C102.814 36.0982 102.207 35.5556 101.569 34.9731L83.4131 53.9361Z" fill="black"/>
<path d="M110.851 27.2859C109.956 27.29 109.07 27.111 108.243 26.7592C107.416 26.4074 106.665 25.8897 106.034 25.2364C105.403 24.5831 104.904 23.8071 104.567 22.9535C104.229 22.0999 104.06 21.1857 104.069 20.2641C104.062 18.8641 104.46 17.4938 105.212 16.3275C105.964 15.1613 107.036 14.2518 108.291 13.7147C109.546 13.1776 110.927 13.0373 112.26 13.3115C113.593 13.5857 114.816 14.2621 115.774 15.2546C116.733 16.2472 117.383 17.511 117.642 18.8853C117.901 20.2596 117.758 21.6823 117.23 22.9723C116.702 24.2624 115.814 25.3616 114.678 26.13C113.542 26.8984 112.21 27.3014 110.851 27.2876V27.2859ZM114.975 20.2971C114.981 19.7397 114.881 19.1864 114.68 18.6688C114.479 18.1513 114.18 17.6796 113.802 17.2808C113.424 16.8819 112.974 16.5637 112.476 16.3443C111.979 16.1249 111.444 16.0085 110.903 16.002C108.709 15.9915 106.832 17.9148 106.812 20.2032C106.805 21.3132 107.22 22.3819 107.968 23.1804C108.716 23.979 109.738 24.4439 110.815 24.4757C111.356 24.4882 111.894 24.3895 112.397 24.1852C112.901 23.981 113.359 23.6754 113.747 23.2862C114.134 22.8971 114.442 22.4324 114.653 21.9191C114.864 21.4058 114.973 20.8544 114.975 20.2971Z" fill="black"/>
</g>
<path d="M9.684 80.352V90H8.1V81.702H3.114V90H1.53V80.352H9.684ZM17.3524 80.172C18.5404 80.172 19.4944 80.586 20.2144 81.414C20.9464 82.242 21.3124 83.49 21.3124 85.158C21.3124 86.802 20.9464 88.05 20.2144 88.902C19.4944 89.754 18.5344 90.18 17.3344 90.18C16.5904 90.18 15.9724 90.042 15.4804 89.766C15.0004 89.478 14.6224 89.148 14.3464 88.776H14.2384C14.2624 88.98 14.2864 89.238 14.3104 89.55C14.3344 89.862 14.3464 90.132 14.3464 90.36V94.32H12.7624V80.352H14.0584L14.2744 81.666H14.3464C14.6344 81.246 15.0124 80.892 15.4804 80.604C15.9484 80.316 16.5724 80.172 17.3524 80.172ZM17.0644 81.504C16.0804 81.504 15.3844 81.78 14.9764 82.332C14.5804 82.884 14.3704 83.724 14.3464 84.852V85.158C14.3464 86.346 14.5384 87.264 14.9224 87.912C15.3184 88.548 16.0444 88.866 17.1004 88.866C17.6884 88.866 18.1684 88.704 18.5404 88.38C18.9244 88.056 19.2064 87.618 19.3864 87.066C19.5784 86.502 19.6744 85.86 19.6744 85.14C19.6744 84.036 19.4584 83.154 19.0264 82.494C18.6064 81.834 17.9524 81.504 17.0644 81.504ZM25.3306 86.238C25.3306 86.382 25.3246 86.598 25.3126 86.886C25.3006 87.174 25.2826 87.462 25.2586 87.75C25.2466 88.038 25.2346 88.266 25.2226 88.434L30.3886 80.352H32.3326V90H30.8566V84.312C30.8566 84.12 30.8566 83.868 30.8566 83.556C30.8686 83.244 30.8806 82.938 30.8926 82.638C30.9046 82.326 30.9166 82.092 30.9286 81.936L25.7986 90H23.8366V80.352H25.3306V86.238ZM39.273 90.18C38.421 90.18 37.659 90.006 36.987 89.658C36.327 89.31 35.805 88.77 35.421 88.038C35.049 87.306 34.863 86.37 34.863 85.23C34.863 84.042 35.061 83.076 35.457 82.332C35.853 81.588 36.387 81.042 37.059 80.694C37.743 80.346 38.517 80.172 39.381 80.172C39.873 80.172 40.347 80.226 40.803 80.334C41.259 80.43 41.631 80.55 41.919 80.694L41.433 82.008C41.145 81.9 40.809 81.798 40.425 81.702C40.041 81.606 39.681 81.558 39.345 81.558C37.449 81.558 36.501 82.776 36.501 85.212C36.501 86.376 36.729 87.27 37.185 87.894C37.653 88.506 38.343 88.812 39.255 88.812C39.783 88.812 40.245 88.758 40.641 88.65C41.049 88.542 41.421 88.41 41.757 88.254V89.658C41.433 89.826 41.073 89.952 40.677 90.036C40.293 90.132 39.825 90.18 39.273 90.18ZM44.0515 90V80.352H45.6355V84.312H48.1375C49.3855 84.312 50.3095 84.54 50.9095 84.996C51.5095 85.452 51.8095 86.136 51.8095 87.048C51.8095 87.948 51.5155 88.668 50.9275 89.208C50.3395 89.736 49.3855 90 48.0655 90H44.0515ZM53.4115 90V80.352H54.9955V90H53.4115ZM47.9215 88.722C48.6055 88.722 49.1635 88.608 49.5955 88.38C50.0275 88.14 50.2435 87.726 50.2435 87.138C50.2435 86.55 50.0455 86.154 49.6495 85.95C49.2535 85.734 48.6835 85.626 47.9395 85.626H45.6355V88.722H47.9215ZM65.4053 90H63.8033V81.666H60.9593C60.8033 83.694 60.5873 85.332 60.3113 86.58C60.0353 87.816 59.6693 88.716 59.2133 89.28C58.7573 89.844 58.1813 90.126 57.4853 90.126C57.3293 90.126 57.1733 90.114 57.0173 90.09C56.8733 90.078 56.7533 90.048 56.6573 90V88.812C56.7293 88.836 56.8073 88.854 56.8913 88.866C56.9753 88.878 57.0593 88.884 57.1433 88.884C57.7913 88.884 58.3073 88.194 58.6913 86.814C59.0873 85.434 59.3873 83.28 59.5913 80.352H65.4053V90ZM72.1215 80.19C73.2975 80.19 74.1675 80.448 74.7315 80.964C75.2955 81.48 75.5775 82.302 75.5775 83.43V90H74.4255L74.1195 88.632H74.0475C73.6275 89.16 73.1835 89.55 72.7155 89.802C72.2595 90.054 71.6235 90.18 70.8075 90.18C69.9315 90.18 69.2055 89.952 68.6295 89.496C68.0535 89.028 67.7655 88.302 67.7655 87.318C67.7655 86.358 68.1435 85.62 68.8995 85.104C69.6555 84.576 70.8195 84.288 72.3915 84.24L74.0295 84.186V83.61C74.0295 82.806 73.8555 82.248 73.5075 81.936C73.1595 81.624 72.6675 81.468 72.0315 81.468C71.5275 81.468 71.0475 81.546 70.5915 81.702C70.1355 81.846 69.7095 82.014 69.3135 82.206L68.8275 81.018C69.2475 80.79 69.7455 80.598 70.3215 80.442C70.8975 80.274 71.4975 80.19 72.1215 80.19ZM72.5895 85.338C71.3895 85.386 70.5555 85.578 70.0875 85.914C69.6315 86.25 69.4035 86.724 69.4035 87.336C69.4035 87.876 69.5655 88.272 69.8895 88.524C70.2255 88.776 70.6515 88.902 71.1675 88.902C71.9835 88.902 72.6615 88.68 73.2015 88.236C73.7415 87.78 74.0115 87.084 74.0115 86.148V85.284L72.5895 85.338ZM82.2833 80.172C83.1113 80.172 83.8193 80.352 84.4073 80.712C85.0073 81.072 85.4633 81.582 85.7753 82.242C86.0993 82.89 86.2613 83.652 86.2613 84.528V85.482H79.6553C79.6793 86.574 79.9553 87.408 80.4833 87.984C81.0233 88.548 81.7733 88.83 82.7333 88.83C83.3453 88.83 83.8853 88.776 84.3533 88.668C84.8333 88.548 85.3253 88.38 85.8293 88.164V89.55C85.3373 89.766 84.8513 89.922 84.3713 90.018C83.8913 90.126 83.3213 90.18 82.6613 90.18C81.7493 90.18 80.9393 89.994 80.2313 89.622C79.5353 89.25 78.9893 88.698 78.5933 87.966C78.2093 87.222 78.0173 86.316 78.0173 85.248C78.0173 84.192 78.1913 83.286 78.5393 82.53C78.8993 81.774 79.3973 81.192 80.0333 80.784C80.6813 80.376 81.4313 80.172 82.2833 80.172ZM82.2653 81.468C81.5093 81.468 80.9093 81.714 80.4653 82.206C80.0333 82.686 79.7753 83.358 79.6913 84.222H84.6053C84.5933 83.406 84.4013 82.746 84.0293 82.242C83.6573 81.726 83.0693 81.468 82.2653 81.468ZM99.0675 80.352V90H97.6455V83.844C97.6455 83.592 97.6515 83.328 97.6635 83.052C97.6875 82.776 97.7115 82.506 97.7355 82.242H97.6815L94.5315 90H93.1995L90.1395 82.242H90.0855C90.1215 82.782 90.1395 83.334 90.1395 83.898V90H88.7175V80.352H90.8235L93.8655 88.11L96.9615 80.352H99.0675ZM112.407 80.208C113.367 80.292 114.201 80.544 114.909 80.964C115.629 81.384 116.187 81.948 116.583 82.656C116.979 83.364 117.177 84.204 117.177 85.176C117.177 86.628 116.751 87.786 115.899 88.65C115.059 89.514 113.895 90.012 112.407 90.144V94.32H110.859V90.144C109.911 90.06 109.077 89.814 108.357 89.406C107.637 88.986 107.079 88.422 106.683 87.714C106.287 86.994 106.089 86.148 106.089 85.176C106.089 83.712 106.509 82.548 107.349 81.684C108.201 80.82 109.389 80.328 110.913 80.208V76.32H112.407V80.208ZM110.913 81.522C109.809 81.63 109.005 81.996 108.501 82.62C107.997 83.232 107.745 84.084 107.745 85.176C107.745 86.268 107.997 87.126 108.501 87.75C109.017 88.374 109.821 88.74 110.913 88.848V81.522ZM112.407 88.848C113.487 88.728 114.279 88.356 114.783 87.732C115.287 87.108 115.539 86.256 115.539 85.176C115.539 84.096 115.281 83.25 114.765 82.638C114.261 82.026 113.475 81.66 112.407 81.54V88.848ZM128.078 85.158C128.078 86.754 127.67 87.99 126.854 88.866C126.05 89.742 124.958 90.18 123.578 90.18C122.726 90.18 121.964 89.988 121.292 89.604C120.632 89.208 120.11 88.638 119.726 87.894C119.342 87.138 119.15 86.226 119.15 85.158C119.15 83.562 119.552 82.332 120.356 81.468C121.16 80.604 122.252 80.172 123.632 80.172C124.508 80.172 125.276 80.37 125.936 80.766C126.608 81.15 127.13 81.714 127.502 82.458C127.886 83.19 128.078 84.09 128.078 85.158ZM120.788 85.158C120.788 86.298 121.01 87.204 121.454 87.876C121.91 88.536 122.63 88.866 123.614 88.866C124.586 88.866 125.3 88.536 125.756 87.876C126.212 87.204 126.44 86.298 126.44 85.158C126.44 84.018 126.212 83.124 125.756 82.476C125.3 81.828 124.58 81.504 123.596 81.504C122.612 81.504 121.898 81.828 121.454 82.476C121.01 83.124 120.788 84.018 120.788 85.158ZM137.073 81.684H133.923V90H132.357V81.684H129.243V80.352H137.073V81.684ZM147.186 85.158C147.186 86.754 146.778 87.99 145.962 88.866C145.158 89.742 144.066 90.18 142.686 90.18C141.834 90.18 141.072 89.988 140.4 89.604C139.74 89.208 139.218 88.638 138.834 87.894C138.45 87.138 138.258 86.226 138.258 85.158C138.258 83.562 138.66 82.332 139.464 81.468C140.268 80.604 141.36 80.172 142.74 80.172C143.616 80.172 144.384 80.37 145.044 80.766C145.716 81.15 146.238 81.714 146.61 82.458C146.994 83.19 147.186 84.09 147.186 85.158ZM139.896 85.158C139.896 86.298 140.118 87.204 140.562 87.876C141.018 88.536 141.738 88.866 142.722 88.866C143.694 88.866 144.408 88.536 144.864 87.876C145.32 87.204 145.548 86.298 145.548 85.158C145.548 84.018 145.32 83.124 144.864 82.476C144.408 81.828 143.688 81.504 142.704 81.504C141.72 81.504 141.006 81.828 140.562 82.476C140.118 83.124 139.896 84.018 139.896 85.158ZM7.416 113.352V114.684H3.114V123H1.53V113.352H7.416ZM17.5293 118.158C17.5293 119.754 17.1213 120.99 16.3053 121.866C15.5013 122.742 14.4093 123.18 13.0293 123.18C12.1773 123.18 11.4153 122.988 10.7433 122.604C10.0833 122.208 9.56133 121.638 9.17733 120.894C8.79333 120.138 8.60133 119.226 8.60133 118.158C8.60133 116.562 9.00333 115.332 9.80733 114.468C10.6113 113.604 11.7033 113.172 13.0833 113.172C13.9593 113.172 14.7273 113.37 15.3873 113.766C16.0593 114.15 16.5813 114.714 16.9533 115.458C17.3373 116.19 17.5293 117.09 17.5293 118.158ZM10.2393 118.158C10.2393 119.298 10.4613 120.204 10.9053 120.876C11.3613 121.536 12.0813 121.866 13.0653 121.866C14.0373 121.866 14.7513 121.536 15.2073 120.876C15.6633 120.204 15.8913 119.298 15.8913 118.158C15.8913 117.018 15.6633 116.124 15.2073 115.476C14.7513 114.828 14.0313 114.504 13.0473 114.504C12.0633 114.504 11.3493 114.828 10.9053 115.476C10.4613 116.124 10.2393 117.018 10.2393 118.158ZM26.524 114.684H23.374V123H21.808V114.684H18.694V113.352H26.524V114.684ZM36.6367 118.158C36.6367 119.754 36.2288 120.99 35.4128 121.866C34.6088 122.742 33.5168 123.18 32.1368 123.18C31.2848 123.18 30.5228 122.988 29.8508 122.604C29.1908 122.208 28.6688 121.638 28.2848 120.894C27.9008 120.138 27.7088 119.226 27.7088 118.158C27.7088 116.562 28.1108 115.332 28.9148 114.468C29.7188 113.604 30.8108 113.172 32.1908 113.172C33.0668 113.172 33.8348 113.37 34.4948 113.766C35.1668 114.15 35.6888 114.714 36.0608 115.458C36.4448 116.19 36.6367 117.09 36.6367 118.158ZM29.3468 118.158C29.3468 119.298 29.5688 120.204 30.0128 120.876C30.4688 121.536 31.1888 121.866 32.1728 121.866C33.1448 121.866 33.8588 121.536 34.3148 120.876C34.7708 120.204 34.9988 119.298 34.9988 118.158C34.9988 117.018 34.7708 116.124 34.3148 115.476C33.8588 114.828 33.1388 114.504 32.1548 114.504C31.1708 114.504 30.4568 114.828 30.0128 115.476C29.5688 116.124 29.3468 117.018 29.3468 118.158ZM46.9052 115.782C46.9052 116.382 46.7252 116.85 46.3652 117.186C46.0052 117.522 45.5432 117.75 44.9792 117.87V117.942C45.5792 118.026 46.1012 118.242 46.5452 118.59C46.9892 118.926 47.2112 119.454 47.2112 120.174C47.2112 120.99 46.9052 121.668 46.2932 122.208C45.6932 122.736 44.6972 123 43.3052 123H39.1472V113.352H43.2872C43.9712 113.352 44.5832 113.43 45.1232 113.586C45.6752 113.73 46.1072 113.982 46.4192 114.342C46.7432 114.69 46.9052 115.17 46.9052 115.782ZM45.3032 115.98C45.3032 115.524 45.1352 115.194 44.7992 114.99C44.4752 114.774 43.9412 114.666 43.1972 114.666H40.7312V117.312H42.9092C44.5052 117.312 45.3032 116.868 45.3032 115.98ZM45.5732 120.174C45.5732 119.622 45.3632 119.226 44.9432 118.986C44.5232 118.746 43.9052 118.626 43.0892 118.626H40.7312V121.722H43.1252C43.9172 121.722 44.5232 121.608 44.9432 121.38C45.3632 121.14 45.5732 120.738 45.5732 120.174ZM57.9063 118.158C57.9063 119.754 57.4983 120.99 56.6823 121.866C55.8783 122.742 54.7863 123.18 53.4063 123.18C52.5543 123.18 51.7923 122.988 51.1203 122.604C50.4603 122.208 49.9383 121.638 49.5543 120.894C49.1703 120.138 48.9783 119.226 48.9783 118.158C48.9783 116.562 49.3803 115.332 50.1843 114.468C50.9883 113.604 52.0803 113.172 53.4603 113.172C54.3363 113.172 55.1043 113.37 55.7643 113.766C56.4363 114.15 56.9583 114.714 57.3303 115.458C57.7143 116.19 57.9063 117.09 57.9063 118.158ZM50.6163 118.158C50.6163 119.298 50.8383 120.204 51.2823 120.876C51.7383 121.536 52.4583 121.866 53.4423 121.866C54.4143 121.866 55.1283 121.536 55.5843 120.876C56.0403 120.204 56.2683 119.298 56.2683 118.158C56.2683 117.018 56.0403 116.124 55.5843 115.476C55.1283 114.828 54.4083 114.504 53.4243 114.504C52.4403 114.504 51.7263 114.828 51.2823 115.476C50.8383 116.124 50.6163 117.018 50.6163 118.158ZM66.3027 113.352V114.684H62.0007V123H60.4167V113.352H66.3027ZM76.416 118.158C76.416 119.754 76.008 120.99 75.192 121.866C74.388 122.742 73.296 123.18 71.916 123.18C71.064 123.18 70.302 122.988 69.63 122.604C68.97 122.208 68.448 121.638 68.064 120.894C67.68 120.138 67.488 119.226 67.488 118.158C67.488 116.562 67.89 115.332 68.694 114.468C69.498 113.604 70.59 113.172 71.97 113.172C72.846 113.172 73.614 113.37 74.274 113.766C74.946 114.15 75.468 114.714 75.84 115.458C76.224 116.19 76.416 117.09 76.416 118.158ZM69.126 118.158C69.126 119.298 69.348 120.204 69.792 120.876C70.248 121.536 70.968 121.866 71.952 121.866C72.924 121.866 73.638 121.536 74.094 120.876C74.55 120.204 74.778 119.298 74.778 118.158C74.778 117.018 74.55 116.124 74.094 115.476C73.638 114.828 72.918 114.504 71.934 114.504C70.95 114.504 70.236 114.828 69.792 115.476C69.348 116.124 69.126 117.018 69.126 118.158ZM84.9205 119.238C84.9205 119.382 84.9145 119.598 84.9025 119.886C84.8905 120.174 84.8725 120.462 84.8485 120.75C84.8365 121.038 84.8245 121.266 84.8125 121.434L89.9785 113.352H91.9225V123H90.4465V117.312C90.4465 117.12 90.4465 116.868 90.4465 116.556C90.4585 116.244 90.4705 115.938 90.4825 115.638C90.4945 115.326 90.5065 115.092 90.5185 114.936L85.3885 123H83.4265V113.352H84.9205V119.238ZM97.5309 113.172C98.6349 113.172 99.5109 113.394 100.159 113.838C100.819 114.27 101.149 114.894 101.149 115.71C101.149 116.298 100.987 116.766 100.663 117.114C100.339 117.45 99.8949 117.696 99.3309 117.852V117.924C99.7149 118.032 100.069 118.182 100.393 118.374C100.717 118.566 100.975 118.818 101.167 119.13C101.371 119.442 101.473 119.844 101.473 120.336C101.473 121.14 101.137 121.818 100.465 122.37C99.8049 122.91 98.7669 123.18 97.3509 123.18C96.6549 123.18 96.0249 123.12 95.4609 123C94.8969 122.892 94.4289 122.742 94.0569 122.55V121.128C94.4649 121.32 94.9449 121.494 95.4969 121.65C96.0609 121.806 96.6729 121.884 97.3329 121.884C98.0529 121.884 98.6589 121.764 99.1509 121.524C99.6549 121.272 99.9069 120.846 99.9069 120.246C99.9069 119.166 98.9889 118.626 97.1529 118.626H95.8569V117.33H96.9009C97.7289 117.33 98.3889 117.222 98.8809 117.006C99.3849 116.778 99.6369 116.394 99.6369 115.854C99.6369 115.398 99.4449 115.056 99.0609 114.828C98.6889 114.6 98.1489 114.486 97.4409 114.486C96.9129 114.486 96.4449 114.54 96.0369 114.648C95.6409 114.744 95.2029 114.894 94.7229 115.098L94.1649 113.838C95.1729 113.394 96.2949 113.172 97.5309 113.172ZM110.981 113.352V121.668H112.385V126.348H110.855V123H104.141V126.348H102.629V121.668H103.403C104.231 120.528 104.849 119.232 105.257 117.78C105.677 116.316 105.893 114.84 105.905 113.352H110.981ZM107.309 114.594C107.261 115.41 107.135 116.256 106.931 117.132C106.727 117.996 106.463 118.824 106.139 119.616C105.827 120.408 105.461 121.092 105.041 121.668H109.451V114.594H107.309ZM118.002 113.172C118.83 113.172 119.538 113.352 120.126 113.712C120.726 114.072 121.182 114.582 121.494 115.242C121.818 115.89 121.98 116.652 121.98 117.528V118.482H115.374C115.398 119.574 115.674 120.408 116.202 120.984C116.742 121.548 117.492 121.83 118.452 121.83C119.064 121.83 119.604 121.776 120.072 121.668C120.552 121.548 121.044 121.38 121.548 121.164V122.55C121.056 122.766 120.57 122.922 120.09 123.018C119.61 123.126 119.04 123.18 118.38 123.18C117.468 123.18 116.658 122.994 115.95 122.622C115.254 122.25 114.708 121.698 114.312 120.966C113.928 120.222 113.736 119.316 113.736 118.248C113.736 117.192 113.91 116.286 114.258 115.53C114.618 114.774 115.116 114.192 115.752 113.784C116.4 113.376 117.15 113.172 118.002 113.172ZM117.984 114.468C117.228 114.468 116.628 114.714 116.184 115.206C115.752 115.686 115.494 116.358 115.41 117.222H120.324C120.312 116.406 120.12 115.746 119.748 115.242C119.376 114.726 118.788 114.468 117.984 114.468ZM131.78 123H130.178V114.666H127.334C127.178 116.694 126.962 118.332 126.686 119.58C126.41 120.816 126.044 121.716 125.588 122.28C125.132 122.844 124.556 123.126 123.86 123.126C123.704 123.126 123.548 123.114 123.392 123.09C123.248 123.078 123.128 123.048 123.032 123V121.812C123.104 121.836 123.182 121.854 123.266 121.866C123.35 121.878 123.434 121.884 123.518 121.884C124.166 121.884 124.682 121.194 125.066 119.814C125.462 118.434 125.762 116.28 125.966 113.352H131.78V123ZM136.337 119.238C136.337 119.382 136.331 119.598 136.319 119.886C136.307 120.174 136.289 120.462 136.265 120.75C136.253 121.038 136.241 121.266 136.229 121.434L141.395 113.352H143.339V123H141.863V117.312C141.863 117.12 141.863 116.868 141.863 116.556C141.875 116.244 141.887 115.938 141.899 115.638C141.911 115.326 141.923 115.092 141.935 114.936L136.805 123H134.843V113.352H136.337V119.238ZM147.003 123H145.167L147.921 118.95C147.549 118.854 147.189 118.704 146.841 118.5C146.493 118.284 146.211 117.99 145.995 117.618C145.779 117.234 145.671 116.76 145.671 116.196C145.671 115.272 145.983 114.57 146.607 114.09C147.231 113.598 148.059 113.352 149.091 113.352H153.411V123H151.827V119.166H149.487L147.003 123ZM147.201 116.214C147.201 116.766 147.405 117.18 147.813 117.456C148.233 117.72 148.815 117.852 149.559 117.852H151.827V114.666H149.253C148.521 114.666 147.993 114.81 147.669 115.098C147.357 115.386 147.201 115.758 147.201 116.214Z" fill="black"/>
<defs>
<clipPath id="clip0_8:110">
<rect width="81" height="65.9766" fill="white" transform="translate(50)"/>
</clipPath>
</defs>
</svg>
