<svg width="215" height="186" viewBox="0 0 215 186" fill="none" xmlns="http://www.w3.org/2000/svg">
<g clip-path="url(#clip0_2:234)">
<path d="M136.415 9.22303C137.663 9.03462 138.831 8.87034 139.992 8.68193C141.067 8.50709 141.653 8.93213 141.824 10.0173C142.277 12.8811 142.751 15.7448 143.228 18.6915C144.477 18.6915 145.705 18.6915 146.931 18.6915C148.074 18.6915 148.592 19.1934 148.592 20.3495C148.592 32.7088 148.592 45.0681 148.592 57.4275C148.592 58.5926 148.094 59.0854 146.946 59.0854H80.3491C79.3463 59.0854 78.925 58.7403 78.5611 57.6114C77.1838 53.3228 75.8086 49.0337 74.4353 44.7441C72.0886 37.4561 69.7388 30.1711 67.386 22.8891C66.8695 21.2885 67.084 20.877 68.7059 20.36L111.952 6.50549C118.515 4.40239 125.077 2.29879 131.639 0.194693C132.946 -0.224319 133.452 0.0439668 133.887 1.37938C134.725 3.95826 135.554 6.55371 136.415 9.22303ZM81.4167 29.7712V47.9982C86.0649 48.9613 88.8255 51.7829 89.7603 56.3242H137.488C138.468 51.6879 141.255 48.9387 145.868 47.9922V29.7742C141.218 28.8277 138.432 26.0423 137.478 21.4226H89.7572C88.8013 26.0257 86.0378 28.8096 81.4167 29.7712ZM139.322 11.511L94.8268 18.5769L94.8358 18.6523H140.463L139.322 11.511ZM89.2453 16.601L89.277 16.7351L133.734 9.66315L131.585 3.0313L89.2453 16.601ZM75.6163 21.62L78.5354 39.9466L78.6064 39.927V21.1573L75.6163 21.62ZM70.1616 22.7158L75.5498 39.5336L75.7129 39.4929L72.9026 21.8356L70.1616 22.7158ZM140.302 21.4211C140.564 24.2969 143.588 26.8471 145.844 26.9346V21.4211H140.302ZM145.864 56.3332V50.8122C143.305 50.9946 140.427 53.8523 140.312 56.3332H145.864ZM81.4167 21.4151V26.9527C83.9447 26.7838 86.8049 23.8854 86.9076 21.4151H81.4167ZM81.4062 56.3121H86.968C86.3473 53.4016 83.8284 50.9328 81.4062 50.8454V56.3121Z" fill="black"/>
<path d="M122.621 38.8746C122.574 42.9547 121.896 46.355 119.771 49.3333C118.77 50.7381 117.494 51.8308 115.781 52.2543C113.607 52.7939 111.758 52.069 110.194 50.5677C108.321 48.7591 107.338 46.4726 106.787 43.9841C105.828 39.6523 106.058 35.3929 107.944 31.3429C108.478 30.2084 109.192 29.1671 110.058 28.2591C112.707 25.4858 116.401 25.5883 119.006 28.4099C121.04 30.618 121.958 33.3234 122.385 36.2219C122.544 37.2664 122.576 38.323 122.621 38.8746ZM108.915 40.0065C109.017 40.721 109.138 42.1453 109.44 43.5335C109.853 45.4371 110.59 47.2217 112.023 48.6189C113.546 50.1035 115.333 50.1472 116.807 48.6189C117.551 47.8424 118.158 46.9461 118.602 45.9677C120.063 42.7135 120.282 39.2966 119.601 35.8179C119.202 33.7801 118.522 31.8494 117.086 30.2834C115.425 28.4747 113.486 28.4747 111.801 30.2547C111.628 30.4365 111.468 30.6299 111.322 30.8335C109.505 33.3656 108.999 36.2656 108.915 40.008V40.0065Z" fill="black"/>
<path d="M131.704 34.3887C132.777 34.4791 133.886 34.4248 134.913 34.6901C137.047 35.2357 138.338 37.3459 138.104 39.6233C137.891 41.6882 136.132 43.4472 134 43.5707C132.441 43.6669 130.877 43.6624 129.318 43.5572C126.902 43.3854 125.19 41.2963 125.261 38.7988C125.326 36.5169 127.24 34.5952 129.575 34.4912C130.279 34.4595 130.984 34.4912 131.689 34.4912L131.704 34.3887ZM131.697 37.1439C131.069 37.1439 130.439 37.1092 129.814 37.1514C128.689 37.2283 127.982 37.9804 127.98 39.0385C127.979 40.0966 128.699 40.8833 129.812 40.9346C131.066 40.9919 132.325 40.9873 133.578 40.9346C133.825 40.9337 134.068 40.8836 134.294 40.7871C134.521 40.6907 134.726 40.5499 134.896 40.3731C135.067 40.1964 135.201 39.9872 135.29 39.7579C135.378 39.5287 135.42 39.284 135.412 39.0385C135.412 37.9834 134.699 37.2298 133.58 37.1499C132.95 37.1077 132.32 37.1424 131.692 37.1439H131.697Z" fill="black"/>
<path d="M96.9983 34.3887C98.0448 34.4776 99.1276 34.4294 100.132 34.6826C102.272 35.2207 103.573 37.2946 103.371 39.5811C103.19 41.6189 101.417 43.4245 99.2937 43.5572C97.7131 43.6598 96.1274 43.6568 94.5473 43.5482C92.1598 43.3778 90.4548 41.2707 90.5318 38.7597C90.5998 36.5199 92.5177 34.5906 94.801 34.4881C95.5289 34.455 96.2598 34.4881 96.9892 34.4881L96.9983 34.3887ZM96.9484 40.9512C97.5268 40.9512 98.1052 40.9662 98.6821 40.9512C99.8902 40.912 100.663 40.1569 100.668 39.049C100.672 37.9412 99.9506 37.1951 98.7697 37.1544C97.5615 37.1122 96.3534 37.1107 95.1529 37.1544C93.978 37.1951 93.238 37.9608 93.2365 39.04C93.235 40.1192 94.0157 40.906 95.2163 40.9542C95.7917 40.9693 96.367 40.9512 96.9484 40.9497V40.9512Z" fill="black"/>
<path d="M115.304 33.9682C115.86 34.1521 116.351 34.2697 116.805 34.4747C117.56 34.8093 117.029 35.3202 116.917 35.7483C116.805 36.1763 116.539 36.2005 116.111 36.0497C115.555 35.8337 114.962 35.7312 114.366 35.7483C114.034 35.7709 113.543 36.1477 113.46 36.4537C113.377 36.7596 113.661 37.2766 113.944 37.4801C114.465 37.8524 115.112 38.0438 115.691 38.3422C117.219 39.129 117.831 40.377 117.402 41.8616C117.086 42.9529 116.254 43.5196 115.156 43.8919C115.139 44.1307 115.139 44.3705 115.156 44.6093C115.257 45.3102 114.975 45.5363 114.274 45.5016C113.723 45.4745 113.543 45.2559 113.619 44.7661C113.716 44.1376 113.489 43.8391 112.828 43.818C112.541 43.809 112.26 43.6311 111.974 43.5362C111.37 43.3357 111.278 42.9966 111.488 42.3831C111.727 41.6808 111.989 41.6657 112.631 41.931C113.256 42.1701 113.928 42.2619 114.594 42.1993C114.945 42.1676 115.472 41.732 115.525 41.4125C115.587 41.0447 115.31 40.4961 115.004 40.2233C114.61 39.8706 114.042 39.7078 113.546 39.4696C112.669 39.0476 111.846 38.5548 111.545 37.5509C111.157 36.2547 111.767 34.9645 113.072 34.4038C113.525 34.2064 113.777 34.0044 113.699 33.4844C113.607 32.871 113.811 32.5801 114.516 32.5801C115.248 32.5801 115.362 32.9373 115.3 33.5221C115.294 33.6708 115.295 33.8197 115.304 33.9682Z" fill="black"/>
</g>
<path d="M9.918 78.9207C9.918 80.5167 9.51 81.7527 8.694 82.6287C7.89 83.5047 6.798 83.9427 5.418 83.9427C4.566 83.9427 3.804 83.7507 3.132 83.3667C2.472 82.9707 1.95 82.4007 1.566 81.6567C1.182 80.9007 0.99 79.9887 0.99 78.9207C0.99 77.3247 1.392 76.0947 2.196 75.2307C3 74.3667 4.092 73.9347 5.472 73.9347C6.348 73.9347 7.116 74.1327 7.776 74.5287C8.448 74.9127 8.97 75.4767 9.342 76.2207C9.726 76.9527 9.918 77.8527 9.918 78.9207ZM2.628 78.9207C2.628 80.0607 2.85 80.9667 3.294 81.6387C3.75 82.2987 4.47 82.6287 5.454 82.6287C6.426 82.6287 7.14 82.2987 7.596 81.6387C8.052 80.9667 8.28 80.0607 8.28 78.9207C8.28 77.7807 8.052 76.8867 7.596 76.2387C7.14 75.5907 6.42 75.2667 5.436 75.2667C4.452 75.2667 3.738 75.5907 3.294 76.2387C2.85 76.8867 2.628 77.7807 2.628 78.9207ZM20.5824 74.1147V83.7627H18.9984V75.4647H14.0124V83.7627H12.4284V74.1147H20.5824ZM31.0049 83.7627H29.4029V75.4287H26.5589C26.4029 77.4567 26.1869 79.0947 25.9109 80.3427C25.6349 81.5787 25.2689 82.4787 24.8129 83.0427C24.3569 83.6067 23.7809 83.8887 23.0849 83.8887C22.9289 83.8887 22.7729 83.8767 22.6169 83.8527C22.4729 83.8407 22.3529 83.8107 22.2569 83.7627V82.5747C22.3289 82.5987 22.4069 82.6167 22.4909 82.6287C22.5749 82.6407 22.6589 82.6467 22.7429 82.6467C23.3909 82.6467 23.9069 81.9567 24.2909 80.5767C24.6869 79.1967 24.9869 77.0427 25.1909 74.1147H31.0049V83.7627ZM37.7211 73.9527C38.8971 73.9527 39.7671 74.2107 40.3311 74.7267C40.8951 75.2427 41.1771 76.0647 41.1771 77.1927V83.7627H40.0251L39.7191 82.3947H39.6471C39.2271 82.9227 38.7831 83.3127 38.3151 83.5647C37.8591 83.8167 37.2231 83.9427 36.4071 83.9427C35.5311 83.9427 34.8051 83.7147 34.2291 83.2587C33.6531 82.7907 33.3651 82.0647 33.3651 81.0807C33.3651 80.1207 33.7431 79.3827 34.4991 78.8667C35.2551 78.3387 36.4191 78.0507 37.9911 78.0027L39.6291 77.9487V77.3727C39.6291 76.5687 39.4551 76.0107 39.1071 75.6987C38.7591 75.3867 38.2671 75.2307 37.6311 75.2307C37.1271 75.2307 36.6471 75.3087 36.1911 75.4647C35.7351 75.6087 35.3091 75.7767 34.9131 75.9687L34.4271 74.7807C34.8471 74.5527 35.3451 74.3607 35.9211 74.2047C36.4971 74.0367 37.0971 73.9527 37.7211 73.9527ZM38.1891 79.1007C36.9891 79.1487 36.1551 79.3407 35.6871 79.6767C35.2311 80.0127 35.0031 80.4867 35.0031 81.0987C35.0031 81.6387 35.1651 82.0347 35.4891 82.2867C35.8251 82.5387 36.2511 82.6647 36.7671 82.6647C37.5831 82.6647 38.2611 82.4427 38.8011 81.9987C39.3411 81.5427 39.6111 80.8467 39.6111 79.9107V79.0467L38.1891 79.1007ZM50.817 75.4467H47.667V83.7627H46.101V75.4467H42.987V74.1147H50.817V75.4467ZM56.3715 73.9527C57.5475 73.9527 58.4175 74.2107 58.9815 74.7267C59.5455 75.2427 59.8275 76.0647 59.8275 77.1927V83.7627H58.6755L58.3695 82.3947H58.2975C57.8775 82.9227 57.4335 83.3127 56.9655 83.5647C56.5095 83.8167 55.8735 83.9427 55.0575 83.9427C54.1815 83.9427 53.4555 83.7147 52.8795 83.2587C52.3035 82.7907 52.0155 82.0647 52.0155 81.0807C52.0155 80.1207 52.3935 79.3827 53.1495 78.8667C53.9055 78.3387 55.0695 78.0507 56.6415 78.0027L58.2795 77.9487V77.3727C58.2795 76.5687 58.1055 76.0107 57.7575 75.6987C57.4095 75.3867 56.9175 75.2307 56.2815 75.2307C55.7775 75.2307 55.2975 75.3087 54.8415 75.4647C54.3855 75.6087 53.9595 75.7767 53.5635 75.9687L53.0775 74.7807C53.4975 74.5527 53.9955 74.3607 54.5715 74.2047C55.1475 74.0367 55.7475 73.9527 56.3715 73.9527ZM56.8395 79.1007C55.6395 79.1487 54.8055 79.3407 54.3375 79.6767C53.8815 80.0127 53.6535 80.4867 53.6535 81.0987C53.6535 81.6387 53.8155 82.0347 54.1395 82.2867C54.4755 82.5387 54.9015 82.6647 55.4175 82.6647C56.2335 82.6647 56.9115 82.4427 57.4515 81.9987C57.9915 81.5427 58.2615 80.8467 58.2615 79.9107V79.0467L56.8395 79.1007ZM66.7673 82.2327C66.7673 81.2367 66.8873 80.4927 67.1273 80.0007C67.3673 79.4967 67.8713 79.0227 68.6393 78.5787C69.4073 78.1347 70.7513 77.5167 72.6713 76.7247V73.8987C72.3233 73.8147 71.7593 73.7727 70.9793 73.7727C69.7673 73.7727 68.5313 73.8867 67.2713 74.1147L67.0373 72.7107C68.0813 72.3987 69.3173 72.2427 70.7453 72.2427C72.0773 72.2427 73.0493 72.4767 73.6613 72.9447C74.2853 73.4007 74.5973 74.1207 74.5973 75.1047C74.5973 75.9207 74.4653 76.5567 74.2013 77.0127C73.9373 77.4687 73.3973 77.9187 72.5813 78.3627C71.7773 78.8067 70.4093 79.4307 68.4773 80.2347V82.2687H74.3993V83.7627H66.7673V82.2327ZM83.0898 77.6247C83.0898 78.7287 83.7078 79.2807 84.9438 79.2807C85.5438 79.2807 86.0898 79.1907 86.5818 79.0107C87.0738 78.8187 87.5778 78.5667 88.0938 78.2547V74.1147H89.6778V83.7627H88.0938V79.4607C87.5538 79.8087 87.0198 80.0847 86.4918 80.2887C85.9758 80.4807 85.3518 80.5767 84.6198 80.5767C83.6358 80.5767 82.8678 80.3187 82.3158 79.8027C81.7758 79.2867 81.5058 78.5967 81.5058 77.7327V74.1147H83.0898V77.6247ZM96.3969 73.9527C97.5729 73.9527 98.4429 74.2107 99.0069 74.7267C99.5709 75.2427 99.8529 76.0647 99.8529 77.1927V83.7627H98.7009L98.3949 82.3947H98.3229C97.9029 82.9227 97.4589 83.3127 96.9909 83.5647C96.5349 83.8167 95.8989 83.9427 95.0829 83.9427C94.2069 83.9427 93.4809 83.7147 92.9049 83.2587C92.3289 82.7907 92.0409 82.0647 92.0409 81.0807C92.0409 80.1207 92.4189 79.3827 93.1749 78.8667C93.9309 78.3387 95.0949 78.0507 96.6669 78.0027L98.3049 77.9487V77.3727C98.3049 76.5687 98.1309 76.0107 97.7829 75.6987C97.4349 75.3867 96.9429 75.2307 96.3069 75.2307C95.8029 75.2307 95.3229 75.3087 94.8669 75.4647C94.4109 75.6087 93.9849 75.7767 93.5889 75.9687L93.1029 74.7807C93.5229 74.5527 94.0209 74.3607 94.5969 74.2047C95.1729 74.0367 95.7729 73.9527 96.3969 73.9527ZM96.8649 79.1007C95.6649 79.1487 94.8309 79.3407 94.3629 79.6767C93.9069 80.0127 93.6789 80.4867 93.6789 81.0987C93.6789 81.6387 93.8409 82.0347 94.1649 82.2867C94.5009 82.5387 94.9269 82.6647 95.4429 82.6647C96.2589 82.6647 96.9369 82.4427 97.4769 81.9987C98.0169 81.5427 98.2869 80.8467 98.2869 79.9107V79.0467L96.8649 79.1007ZM106.703 83.9427C105.851 83.9427 105.089 83.7687 104.417 83.4207C103.757 83.0727 103.235 82.5327 102.851 81.8007C102.479 81.0687 102.293 80.1327 102.293 78.9927C102.293 77.8047 102.491 76.8387 102.887 76.0947C103.283 75.3507 103.817 74.8047 104.489 74.4567C105.173 74.1087 105.947 73.9347 106.811 73.9347C107.303 73.9347 107.777 73.9887 108.233 74.0967C108.689 74.1927 109.061 74.3127 109.349 74.4567L108.863 75.7707C108.575 75.6627 108.239 75.5607 107.855 75.4647C107.471 75.3687 107.111 75.3207 106.775 75.3207C104.879 75.3207 103.931 76.5387 103.931 78.9747C103.931 80.1387 104.159 81.0327 104.615 81.6567C105.083 82.2687 105.773 82.5747 106.685 82.5747C107.213 82.5747 107.675 82.5207 108.071 82.4127C108.479 82.3047 108.851 82.1727 109.187 82.0167V83.4207C108.863 83.5887 108.503 83.7147 108.107 83.7987C107.723 83.8947 107.255 83.9427 106.703 83.9427ZM118.141 75.4467H114.991V83.7627H113.425V75.4467H110.311V74.1147H118.141V75.4467ZM121.536 80.0007C121.536 80.1447 121.53 80.3607 121.518 80.6487C121.506 80.9367 121.488 81.2247 121.464 81.5127C121.452 81.8007 121.44 82.0287 121.428 82.1967L126.594 74.1147H128.538V83.7627H127.062V78.0747C127.062 77.8827 127.062 77.6307 127.062 77.3187C127.074 77.0067 127.086 76.7007 127.098 76.4007C127.11 76.0887 127.122 75.8547 127.134 75.6987L122.004 83.7627H120.042V74.1147H121.536V80.0007ZM137.602 80.0007C137.602 80.1447 137.596 80.3607 137.584 80.6487C137.572 80.9367 137.554 81.2247 137.53 81.5127C137.518 81.8007 137.506 82.0287 137.494 82.1967L142.66 74.1147H144.604V83.7627H143.128V78.0747C143.128 77.8827 143.128 77.6307 143.128 77.3187C143.14 77.0067 143.152 76.7007 143.164 76.4007C143.176 76.0887 143.188 75.8547 143.2 75.6987L138.07 83.7627H136.108V74.1147H137.602V80.0007ZM155.019 83.7627H153.417V75.4287H150.573C150.417 77.4567 150.201 79.0947 149.925 80.3427C149.649 81.5787 149.283 82.4787 148.827 83.0427C148.371 83.6067 147.795 83.8887 147.099 83.8887C146.943 83.8887 146.787 83.8767 146.631 83.8527C146.487 83.8407 146.367 83.8107 146.271 83.7627V82.5747C146.343 82.5987 146.421 82.6167 146.505 82.6287C146.589 82.6407 146.673 82.6467 146.757 82.6467C147.405 82.6467 147.921 81.9567 148.305 80.5767C148.701 79.1967 149.001 77.0427 149.205 74.1147H155.019V83.7627ZM159.575 80.0007C159.575 80.1447 159.569 80.3607 159.557 80.6487C159.545 80.9367 159.527 81.2247 159.503 81.5127C159.491 81.8007 159.479 82.0287 159.467 82.1967L164.633 74.1147H166.577V83.7627H165.101V78.0747C165.101 77.8827 165.101 77.6307 165.101 77.3187C165.113 77.0067 165.125 76.7007 165.137 76.4007C165.149 76.0887 165.161 75.8547 165.173 75.6987L160.043 83.7627H158.081V74.1147H159.575V80.0007ZM3.114 107.115V111.129H8.352V107.115H9.936V116.763H8.352V112.461H3.114V116.763H1.53V107.115H3.114ZM16.6449 106.953C17.8209 106.953 18.6909 107.211 19.2549 107.727C19.8189 108.243 20.1009 109.065 20.1009 110.193V116.763H18.9489L18.6429 115.395H18.5709C18.1509 115.923 17.7069 116.313 17.2389 116.565C16.7829 116.817 16.1469 116.943 15.3309 116.943C14.4549 116.943 13.7289 116.715 13.1529 116.259C12.5769 115.791 12.2889 115.065 12.2889 114.081C12.2889 113.121 12.6669 112.383 13.4229 111.867C14.1789 111.339 15.3429 111.051 16.9149 111.003L18.5529 110.949V110.373C18.5529 109.569 18.3789 109.011 18.0309 108.699C17.6829 108.387 17.1909 108.231 16.5549 108.231C16.0509 108.231 15.5709 108.309 15.1149 108.465C14.6589 108.609 14.2329 108.777 13.8369 108.969L13.3509 107.781C13.7709 107.553 14.2689 107.361 14.8449 107.205C15.4209 107.037 16.0209 106.953 16.6449 106.953ZM17.1129 112.101C15.9129 112.149 15.0789 112.341 14.6109 112.677C14.1549 113.013 13.9269 113.487 13.9269 114.099C13.9269 114.639 14.0889 115.035 14.4129 115.287C14.7489 115.539 15.1749 115.665 15.6909 115.665C16.5069 115.665 17.1849 115.443 17.7249 114.999C18.2649 114.543 18.5349 113.847 18.5349 112.911V112.047L17.1129 112.101ZM30.4248 116.763H28.8228V108.429H25.9788C25.8228 110.457 25.6068 112.095 25.3308 113.343C25.0548 114.579 24.6888 115.479 24.2328 116.043C23.7768 116.607 23.2008 116.889 22.5048 116.889C22.3488 116.889 22.1928 116.877 22.0368 116.853C21.8928 116.841 21.7728 116.811 21.6768 116.763V115.575C21.7488 115.599 21.8268 115.617 21.9108 115.629C21.9948 115.641 22.0788 115.647 22.1628 115.647C22.8108 115.647 23.3268 114.957 23.7108 113.577C24.1068 112.197 24.4068 110.043 24.6108 107.115H30.4248V116.763ZM41.875 111.921C41.875 113.517 41.467 114.753 40.651 115.629C39.847 116.505 38.755 116.943 37.375 116.943C36.523 116.943 35.761 116.751 35.089 116.367C34.429 115.971 33.907 115.401 33.523 114.657C33.139 113.901 32.947 112.989 32.947 111.921C32.947 110.325 33.349 109.095 34.153 108.231C34.957 107.367 36.049 106.935 37.429 106.935C38.305 106.935 39.073 107.133 39.733 107.529C40.405 107.913 40.927 108.477 41.299 109.221C41.683 109.953 41.875 110.853 41.875 111.921ZM34.585 111.921C34.585 113.061 34.807 113.967 35.251 114.639C35.707 115.299 36.427 115.629 37.411 115.629C38.383 115.629 39.097 115.299 39.553 114.639C40.009 113.967 40.237 113.061 40.237 111.921C40.237 110.781 40.009 109.887 39.553 109.239C39.097 108.591 38.377 108.267 37.393 108.267C36.409 108.267 35.695 108.591 35.251 109.239C34.807 109.887 34.585 110.781 34.585 111.921ZM55.6079 107.115L51.6299 111.795L55.9499 116.763H54.1499L49.9739 111.867V116.763H48.4979V111.867L44.3219 116.763H42.5219L46.8419 111.795L42.8639 107.115H44.5919L48.4979 111.795V107.115H49.9739V111.795L53.8979 107.115H55.6079ZM60.9083 106.935C61.7363 106.935 62.4443 107.115 63.0323 107.475C63.6323 107.835 64.0883 108.345 64.4003 109.005C64.7243 109.653 64.8863 110.415 64.8863 111.291V112.245H58.2803C58.3043 113.337 58.5803 114.171 59.1083 114.747C59.6483 115.311 60.3983 115.593 61.3583 115.593C61.9703 115.593 62.5103 115.539 62.9783 115.431C63.4583 115.311 63.9503 115.143 64.4543 114.927V116.313C63.9623 116.529 63.4763 116.685 62.9963 116.781C62.5163 116.889 61.9463 116.943 61.2863 116.943C60.3743 116.943 59.5643 116.757 58.8563 116.385C58.1603 116.013 57.6143 115.461 57.2183 114.729C56.8343 113.985 56.6423 113.079 56.6423 112.011C56.6423 110.955 56.8163 110.049 57.1643 109.293C57.5243 108.537 58.0223 107.955 58.6583 107.547C59.3063 107.139 60.0563 106.935 60.9083 106.935ZM60.8903 108.231C60.1343 108.231 59.5343 108.477 59.0903 108.969C58.6583 109.449 58.4003 110.121 58.3163 110.985H63.2303C63.2183 110.169 63.0263 109.509 62.6543 109.005C62.2823 108.489 61.6943 108.231 60.8903 108.231ZM68.9265 107.115V111.129H74.1645V107.115H75.7485V116.763H74.1645V112.461H68.9265V116.763H67.3425V107.115H68.9265ZM80.3874 107.115V111.129H85.6254V107.115H87.2094V116.763H85.6254V112.461H80.3874V116.763H78.8034V107.115H80.3874ZM90.2644 116.763V107.115H91.8484V111.075H94.3504C95.5984 111.075 96.5224 111.303 97.1224 111.759C97.7224 112.215 98.0224 112.899 98.0224 113.811C98.0224 114.711 97.7284 115.431 97.1404 115.971C96.5524 116.499 95.5984 116.763 94.2784 116.763H90.2644ZM99.6244 116.763V107.115H101.208V116.763H99.6244ZM94.1344 115.485C94.8184 115.485 95.3764 115.371 95.8084 115.143C96.2404 114.903 96.4564 114.489 96.4564 113.901C96.4564 113.313 96.2584 112.917 95.8624 112.713C95.4664 112.497 94.8964 112.389 94.1524 112.389H91.8484V115.485H94.1344ZM112.086 103.119C112.002 104.019 111.696 104.703 111.168 105.171C110.652 105.627 109.824 105.855 108.684 105.855C107.508 105.855 106.674 105.627 106.182 105.171C105.702 104.715 105.432 104.031 105.372 103.119H106.848C106.908 103.767 107.076 104.205 107.352 104.433C107.64 104.649 108.096 104.757 108.72 104.757C109.272 104.757 109.704 104.643 110.016 104.415C110.34 104.175 110.532 103.743 110.592 103.119H112.086ZM105.768 113.001C105.768 113.145 105.762 113.361 105.75 113.649C105.738 113.937 105.72 114.225 105.696 114.513C105.684 114.801 105.672 115.029 105.66 115.197L110.826 107.115H112.77V116.763H111.294V111.075C111.294 110.883 111.294 110.631 111.294 110.319C111.306 110.007 111.318 109.701 111.33 109.401C111.342 109.089 111.354 108.855 111.366 108.699L106.236 116.763H104.274V107.115H105.768V113.001ZM128.495 107.115V116.763H126.911V108.465H121.925V116.763H120.341V107.115H128.495ZM138.917 116.763H137.315V108.429H134.471C134.315 110.457 134.099 112.095 133.823 113.343C133.547 114.579 133.181 115.479 132.725 116.043C132.269 116.607 131.693 116.889 130.997 116.889C130.841 116.889 130.685 116.877 130.529 116.853C130.385 116.841 130.265 116.811 130.169 116.763V115.575C130.241 115.599 130.319 115.617 130.403 115.629C130.487 115.641 130.571 115.647 130.655 115.647C131.303 115.647 131.819 114.957 132.203 113.577C132.599 112.197 132.899 110.043 133.103 107.115H138.917V116.763ZM145.633 106.953C146.809 106.953 147.679 107.211 148.243 107.727C148.807 108.243 149.089 109.065 149.089 110.193V116.763H147.937L147.631 115.395H147.559C147.139 115.923 146.695 116.313 146.227 116.565C145.771 116.817 145.135 116.943 144.319 116.943C143.443 116.943 142.717 116.715 142.141 116.259C141.565 115.791 141.277 115.065 141.277 114.081C141.277 113.121 141.655 112.383 142.411 111.867C143.167 111.339 144.331 111.051 145.903 111.003L147.541 110.949V110.373C147.541 109.569 147.367 109.011 147.019 108.699C146.671 108.387 146.179 108.231 145.543 108.231C145.039 108.231 144.559 108.309 144.103 108.465C143.647 108.609 143.221 108.777 142.825 108.969L142.339 107.781C142.759 107.553 143.257 107.361 143.833 107.205C144.409 107.037 145.009 106.953 145.633 106.953ZM146.101 112.101C144.901 112.149 144.067 112.341 143.599 112.677C143.143 113.013 142.915 113.487 142.915 114.099C142.915 114.639 143.077 115.035 143.401 115.287C143.737 115.539 144.163 115.665 144.679 115.665C145.495 115.665 146.173 115.443 146.713 114.999C147.253 114.543 147.523 113.847 147.523 112.911V112.047L146.101 112.101ZM158.729 108.447H155.579V116.763H154.013V108.447H150.899V107.115H158.729V108.447ZM164.18 106.935C165.008 106.935 165.716 107.115 166.304 107.475C166.904 107.835 167.36 108.345 167.672 109.005C167.996 109.653 168.158 110.415 168.158 111.291V112.245H161.552C161.576 113.337 161.852 114.171 162.38 114.747C162.92 115.311 163.67 115.593 164.63 115.593C165.242 115.593 165.782 115.539 166.25 115.431C166.73 115.311 167.222 115.143 167.726 114.927V116.313C167.234 116.529 166.748 116.685 166.268 116.781C165.788 116.889 165.218 116.943 164.558 116.943C163.646 116.943 162.836 116.757 162.128 116.385C161.432 116.013 160.886 115.461 160.49 114.729C160.106 113.985 159.914 113.079 159.914 112.011C159.914 110.955 160.088 110.049 160.436 109.293C160.796 108.537 161.294 107.955 161.93 107.547C162.578 107.139 163.328 106.935 164.18 106.935ZM164.162 108.231C163.406 108.231 162.806 108.477 162.362 108.969C161.93 109.449 161.672 110.121 161.588 110.985H166.502C166.49 110.169 166.298 109.509 165.926 109.005C165.554 108.489 164.966 108.231 164.162 108.231ZM182.188 107.115L178.21 111.795L182.53 116.763H180.73L176.554 111.867V116.763H175.078V111.867L170.902 116.763H169.102L173.422 111.795L169.444 107.115H171.172L175.078 111.795V107.115H176.554V111.795L180.478 107.115H182.188ZM183.484 115.647C183.484 115.191 183.562 114.873 183.718 114.693C183.874 114.501 184.186 114.405 184.654 114.405C185.11 114.405 185.416 114.501 185.572 114.693C185.74 114.873 185.824 115.191 185.824 115.647C185.824 116.103 185.746 116.421 185.59 116.601C185.434 116.781 185.122 116.871 184.654 116.871C184.186 116.871 183.874 116.781 183.718 116.601C183.562 116.421 183.484 116.103 183.484 115.647ZM5.256 139.935C6.084 139.935 6.792 140.115 7.38 140.475C7.98 140.835 8.436 141.345 8.748 142.005C9.072 142.653 9.234 143.415 9.234 144.291V145.245H2.628C2.652 146.337 2.928 147.171 3.456 147.747C3.996 148.311 4.746 148.593 5.706 148.593C6.318 148.593 6.858 148.539 7.326 148.431C7.806 148.311 8.298 148.143 8.802 147.927V149.313C8.31 149.529 7.824 149.685 7.344 149.781C6.864 149.889 6.294 149.943 5.634 149.943C4.722 149.943 3.912 149.757 3.204 149.385C2.508 149.013 1.962 148.461 1.566 147.729C1.182 146.985 0.99 146.079 0.99 145.011C0.99 143.955 1.164 143.049 1.512 142.293C1.872 141.537 2.37 140.955 3.006 140.547C3.654 140.139 4.404 139.935 5.256 139.935ZM5.238 141.231C4.482 141.231 3.882 141.477 3.438 141.969C3.006 142.449 2.748 143.121 2.664 143.985H7.578C7.566 143.169 7.374 142.509 7.002 142.005C6.63 141.489 6.042 141.231 5.238 141.231ZM19.4482 142.545C19.4482 143.145 19.2682 143.613 18.9082 143.949C18.5482 144.285 18.0862 144.513 17.5222 144.633V144.705C18.1222 144.789 18.6442 145.005 19.0882 145.353C19.5322 145.689 19.7542 146.217 19.7542 146.937C19.7542 147.753 19.4482 148.431 18.8362 148.971C18.2362 149.499 17.2402 149.763 15.8482 149.763H11.6902V140.115H15.8302C16.5142 140.115 17.1262 140.193 17.6662 140.349C18.2182 140.493 18.6502 140.745 18.9622 141.105C19.2862 141.453 19.4482 141.933 19.4482 142.545ZM17.8462 142.743C17.8462 142.287 17.6782 141.957 17.3422 141.753C17.0182 141.537 16.4842 141.429 15.7402 141.429H13.2742V144.075H15.4522C17.0482 144.075 17.8462 143.631 17.8462 142.743ZM18.1162 146.937C18.1162 146.385 17.9062 145.989 17.4862 145.749C17.0662 145.509 16.4482 145.389 15.6322 145.389H13.2742V148.485H15.6682C16.4602 148.485 17.0662 148.371 17.4862 148.143C17.9062 147.903 18.1162 147.501 18.1162 146.937ZM26.6513 139.935C27.8393 139.935 28.7933 140.349 29.5133 141.177C30.2453 142.005 30.6113 143.253 30.6113 144.921C30.6113 146.565 30.2453 147.813 29.5133 148.665C28.7933 149.517 27.8333 149.943 26.6333 149.943C25.8893 149.943 25.2713 149.805 24.7793 149.529C24.2993 149.241 23.9213 148.911 23.6453 148.539H23.5373C23.5613 148.743 23.5853 149.001 23.6093 149.313C23.6333 149.625 23.6453 149.895 23.6453 150.123V154.083H22.0613V140.115H23.3573L23.5733 141.429H23.6453C23.9333 141.009 24.3113 140.655 24.7793 140.367C25.2473 140.079 25.8713 139.935 26.6513 139.935ZM26.3633 141.267C25.3793 141.267 24.6833 141.543 24.2753 142.095C23.8793 142.647 23.6693 143.487 23.6453 144.615V144.921C23.6453 146.109 23.8373 147.027 24.2213 147.675C24.6173 148.311 25.3433 148.629 26.3993 148.629C26.9873 148.629 27.4673 148.467 27.8393 148.143C28.2233 147.819 28.5053 147.381 28.6853 146.829C28.8773 146.265 28.9733 145.623 28.9733 144.903C28.9733 143.799 28.7573 142.917 28.3253 142.257C27.9053 141.597 27.2513 141.267 26.3633 141.267ZM41.5235 144.921C41.5235 146.517 41.1155 147.753 40.2995 148.629C39.4955 149.505 38.4035 149.943 37.0235 149.943C36.1715 149.943 35.4095 149.751 34.7375 149.367C34.0775 148.971 33.5555 148.401 33.1715 147.657C32.7875 146.901 32.5955 145.989 32.5955 144.921C32.5955 143.325 32.9975 142.095 33.8015 141.231C34.6055 140.367 35.6975 139.935 37.0775 139.935C37.9535 139.935 38.7215 140.133 39.3815 140.529C40.0535 140.913 40.5755 141.477 40.9475 142.221C41.3315 142.953 41.5235 143.853 41.5235 144.921ZM34.2335 144.921C34.2335 146.061 34.4555 146.967 34.8995 147.639C35.3555 148.299 36.0755 148.629 37.0595 148.629C38.0315 148.629 38.7455 148.299 39.2015 147.639C39.6575 146.967 39.8855 146.061 39.8855 144.921C39.8855 143.781 39.6575 142.887 39.2015 142.239C38.7455 141.591 38.0255 141.267 37.0415 141.267C36.0575 141.267 35.3435 141.591 34.8995 142.239C34.4555 142.887 34.2335 143.781 34.2335 144.921ZM52.1879 140.115V149.763H50.6039V141.465H45.6179V149.763H44.0339V140.115H52.1879ZM58.9923 139.935C59.8203 139.935 60.5283 140.115 61.1163 140.475C61.7163 140.835 62.1723 141.345 62.4843 142.005C62.8083 142.653 62.9703 143.415 62.9703 144.291V145.245H56.3643C56.3883 146.337 56.6643 147.171 57.1923 147.747C57.7323 148.311 58.4823 148.593 59.4423 148.593C60.0543 148.593 60.5943 148.539 61.0623 148.431C61.5423 148.311 62.0343 148.143 62.5383 147.927V149.313C62.0463 149.529 61.5603 149.685 61.0803 149.781C60.6003 149.889 60.0303 149.943 59.3703 149.943C58.4583 149.943 57.6483 149.757 56.9403 149.385C56.2443 149.013 55.6983 148.461 55.3023 147.729C54.9183 146.985 54.7263 146.079 54.7263 145.011C54.7263 143.955 54.9003 143.049 55.2483 142.293C55.6083 141.537 56.1063 140.955 56.7423 140.547C57.3903 140.139 58.1403 139.935 58.9923 139.935ZM58.9743 141.231C58.2183 141.231 57.6183 141.477 57.1743 141.969C56.7423 142.449 56.4843 143.121 56.4003 143.985H61.3143C61.3023 143.169 61.1103 142.509 60.7383 142.005C60.3663 141.489 59.7783 141.231 58.9743 141.231ZM73.2385 136.119C73.1545 137.019 72.8485 137.703 72.3205 138.171C71.8045 138.627 70.9765 138.855 69.8365 138.855C68.6605 138.855 67.8265 138.627 67.3345 138.171C66.8545 137.715 66.5845 137.031 66.5245 136.119H68.0005C68.0605 136.767 68.2285 137.205 68.5045 137.433C68.7925 137.649 69.2485 137.757 69.8725 137.757C70.4245 137.757 70.8565 137.643 71.1685 137.415C71.4925 137.175 71.6845 136.743 71.7445 136.119H73.2385ZM66.9205 146.001C66.9205 146.145 66.9145 146.361 66.9025 146.649C66.8905 146.937 66.8725 147.225 66.8485 147.513C66.8365 147.801 66.8245 148.029 66.8125 148.197L71.9785 140.115H73.9225V149.763H72.4465V144.075C72.4465 143.883 72.4465 143.631 72.4465 143.319C72.4585 143.007 72.4705 142.701 72.4825 142.401C72.4945 142.089 72.5065 141.855 72.5185 141.699L67.3885 149.763H65.4265V140.115H66.9205V146.001ZM80.8629 149.943C80.0109 149.943 79.2489 149.769 78.5769 149.421C77.9169 149.073 77.3949 148.533 77.0109 147.801C76.6389 147.069 76.4529 146.133 76.4529 144.993C76.4529 143.805 76.6509 142.839 77.0469 142.095C77.4429 141.351 77.9769 140.805 78.6489 140.457C79.3329 140.109 80.1069 139.935 80.9709 139.935C81.4629 139.935 81.9369 139.989 82.3929 140.097C82.8489 140.193 83.2209 140.313 83.5089 140.457L83.0229 141.771C82.7349 141.663 82.3989 141.561 82.0149 141.465C81.6309 141.369 81.2709 141.321 80.9349 141.321C79.0389 141.321 78.0909 142.539 78.0909 144.975C78.0909 146.139 78.3189 147.033 78.7749 147.657C79.2429 148.269 79.9329 148.575 80.8449 148.575C81.3729 148.575 81.8349 148.521 82.2309 148.413C82.6389 148.305 83.0109 148.173 83.3469 148.017V149.421C83.0229 149.589 82.6629 149.715 82.2669 149.799C81.8829 149.895 81.4149 149.943 80.8629 149.943ZM91.3473 140.115H93.0753L88.9533 144.759L93.4173 149.763H91.5813L87.2253 144.867V149.763H85.6413V140.115H87.2253V144.795L91.3473 140.115ZM96.6627 146.001C96.6627 146.145 96.6567 146.361 96.6447 146.649C96.6327 146.937 96.6147 147.225 96.5907 147.513C96.5787 147.801 96.5667 148.029 96.5547 148.197L101.721 140.115H103.665V149.763H102.189V144.075C102.189 143.883 102.189 143.631 102.189 143.319C102.201 143.007 102.213 142.701 102.225 142.401C102.237 142.089 102.249 141.855 102.261 141.699L97.1307 149.763H95.1687V140.115H96.6627V146.001ZM110.461 139.935C111.289 139.935 111.997 140.115 112.585 140.475C113.185 140.835 113.641 141.345 113.953 142.005C114.277 142.653 114.439 143.415 114.439 144.291V145.245H107.833C107.857 146.337 108.133 147.171 108.661 147.747C109.201 148.311 109.951 148.593 110.911 148.593C111.523 148.593 112.063 148.539 112.531 148.431C113.011 148.311 113.503 148.143 114.007 147.927V149.313C113.515 149.529 113.029 149.685 112.549 149.781C112.069 149.889 111.499 149.943 110.839 149.943C109.927 149.943 109.117 149.757 108.409 149.385C107.713 149.013 107.167 148.461 106.771 147.729C106.387 146.985 106.195 146.079 106.195 145.011C106.195 143.955 106.369 143.049 106.717 142.293C107.077 141.537 107.575 140.955 108.211 140.547C108.859 140.139 109.609 139.935 110.461 139.935ZM110.443 141.231C109.687 141.231 109.087 141.477 108.643 141.969C108.211 142.449 107.953 143.121 107.869 143.985H112.783C112.771 143.169 112.579 142.509 112.207 142.005C111.835 141.489 111.247 141.231 110.443 141.231ZM125.265 149.943C124.413 149.943 123.651 149.769 122.979 149.421C122.319 149.073 121.797 148.533 121.413 147.801C121.041 147.069 120.855 146.133 120.855 144.993C120.855 143.805 121.053 142.839 121.449 142.095C121.845 141.351 122.379 140.805 123.051 140.457C123.735 140.109 124.509 139.935 125.373 139.935C125.865 139.935 126.339 139.989 126.795 140.097C127.251 140.193 127.623 140.313 127.911 140.457L127.425 141.771C127.137 141.663 126.801 141.561 126.417 141.465C126.033 141.369 125.673 141.321 125.337 141.321C123.441 141.321 122.493 142.539 122.493 144.975C122.493 146.139 122.721 147.033 123.177 147.657C123.645 148.269 124.335 148.575 125.247 148.575C125.775 148.575 126.237 148.521 126.633 148.413C127.041 148.305 127.413 148.173 127.749 148.017V149.421C127.425 149.589 127.065 149.715 126.669 149.799C126.285 149.895 125.817 149.943 125.265 149.943ZM136.704 141.447H133.554V149.763H131.988V141.447H128.874V140.115H136.704V141.447ZM143.194 139.935C144.382 139.935 145.336 140.349 146.056 141.177C146.788 142.005 147.154 143.253 147.154 144.921C147.154 146.565 146.788 147.813 146.056 148.665C145.336 149.517 144.376 149.943 143.176 149.943C142.432 149.943 141.814 149.805 141.322 149.529C140.842 149.241 140.464 148.911 140.188 148.539H140.08C140.104 148.743 140.128 149.001 140.152 149.313C140.176 149.625 140.188 149.895 140.188 150.123V154.083H138.604V140.115H139.9L140.116 141.429H140.188C140.476 141.009 140.854 140.655 141.322 140.367C141.79 140.079 142.414 139.935 143.194 139.935ZM142.906 141.267C141.922 141.267 141.226 141.543 140.818 142.095C140.422 142.647 140.212 143.487 140.188 144.615V144.921C140.188 146.109 140.38 147.027 140.764 147.675C141.16 148.311 141.886 148.629 142.942 148.629C143.53 148.629 144.01 148.467 144.382 148.143C144.766 147.819 145.048 147.381 145.228 146.829C145.42 146.265 145.516 145.623 145.516 144.903C145.516 143.799 145.3 142.917 144.868 142.257C144.448 141.597 143.794 141.267 142.906 141.267ZM153.332 139.953C154.508 139.953 155.378 140.211 155.942 140.727C156.506 141.243 156.788 142.065 156.788 143.193V149.763H155.636L155.33 148.395H155.258C154.838 148.923 154.394 149.313 153.926 149.565C153.47 149.817 152.834 149.943 152.018 149.943C151.142 149.943 150.416 149.715 149.84 149.259C149.264 148.791 148.976 148.065 148.976 147.081C148.976 146.121 149.354 145.383 150.11 144.867C150.866 144.339 152.03 144.051 153.602 144.003L155.24 143.949V143.373C155.24 142.569 155.066 142.011 154.718 141.699C154.37 141.387 153.878 141.231 153.242 141.231C152.738 141.231 152.258 141.309 151.802 141.465C151.346 141.609 150.92 141.777 150.524 141.969L150.038 140.781C150.458 140.553 150.956 140.361 151.532 140.205C152.108 140.037 152.708 139.953 153.332 139.953ZM153.8 145.101C152.6 145.149 151.766 145.341 151.298 145.677C150.842 146.013 150.614 146.487 150.614 147.099C150.614 147.639 150.776 148.035 151.1 148.287C151.436 148.539 151.862 148.665 152.378 148.665C153.194 148.665 153.872 148.443 154.412 147.999C154.952 147.543 155.222 146.847 155.222 145.911V145.047L153.8 145.101ZM161.352 140.115V144.129H166.59V140.115H168.174V149.763H166.59V145.461H161.352V149.763H159.768V140.115H161.352ZM171.229 149.763V140.115H172.813V144.075H175.315C176.563 144.075 177.487 144.303 178.087 144.759C178.687 145.215 178.987 145.899 178.987 146.811C178.987 147.711 178.693 148.431 178.105 148.971C177.517 149.499 176.563 149.763 175.243 149.763H171.229ZM180.589 149.763V140.115H182.173V149.763H180.589ZM175.099 148.485C175.783 148.485 176.341 148.371 176.773 148.143C177.205 147.903 177.421 147.489 177.421 146.901C177.421 146.313 177.223 145.917 176.827 145.713C176.431 145.497 175.861 145.389 175.117 145.389H172.813V148.485H175.099ZM9.684 173.115V182.763H8.1V174.465H3.114V182.763H1.53V173.115H9.684ZM20.1064 182.763H18.5044V174.429H15.6604C15.5044 176.457 15.2884 178.095 15.0124 179.343C14.7364 180.579 14.3704 181.479 13.9144 182.043C13.4584 182.607 12.8824 182.889 12.1864 182.889C12.0304 182.889 11.8744 182.877 11.7184 182.853C11.5744 182.841 11.4544 182.811 11.3584 182.763V181.575C11.4304 181.599 11.5084 181.617 11.5924 181.629C11.6764 181.641 11.7604 181.647 11.8444 181.647C12.4924 181.647 13.0084 180.957 13.3924 179.577C13.7884 178.197 14.0884 176.043 14.2924 173.115H20.1064V182.763ZM26.8227 172.953C27.9987 172.953 28.8687 173.211 29.4327 173.727C29.9967 174.243 30.2787 175.065 30.2787 176.193V182.763H29.1267L28.8207 181.395H28.7487C28.3287 181.923 27.8847 182.313 27.4167 182.565C26.9607 182.817 26.3247 182.943 25.5087 182.943C24.6327 182.943 23.9067 182.715 23.3307 182.259C22.7547 181.791 22.4667 181.065 22.4667 180.081C22.4667 179.121 22.8447 178.383 23.6007 177.867C24.3567 177.339 25.5207 177.051 27.0927 177.003L28.7307 176.949V176.373C28.7307 175.569 28.5567 175.011 28.2087 174.699C27.8607 174.387 27.3687 174.231 26.7327 174.231C26.2287 174.231 25.7487 174.309 25.2927 174.465C24.8367 174.609 24.4107 174.777 24.0147 174.969L23.5287 173.781C23.9487 173.553 24.4467 173.361 25.0227 173.205C25.5987 173.037 26.1987 172.953 26.8227 172.953ZM27.2907 178.101C26.0907 178.149 25.2567 178.341 24.7887 178.677C24.3327 179.013 24.1047 179.487 24.1047 180.099C24.1047 180.639 24.2667 181.035 24.5907 181.287C24.9267 181.539 25.3527 181.665 25.8687 181.665C26.6847 181.665 27.3627 181.443 27.9027 180.999C28.4427 180.543 28.7127 179.847 28.7127 178.911V178.047L27.2907 178.101ZM39.9185 174.447H36.7685V182.763H35.2025V174.447H32.0885V173.115H39.9185V174.447ZM45.3693 172.935C46.1973 172.935 46.9053 173.115 47.4933 173.475C48.0933 173.835 48.5493 174.345 48.8613 175.005C49.1853 175.653 49.3473 176.415 49.3473 177.291V178.245H42.7413C42.7653 179.337 43.0413 180.171 43.5693 180.747C44.1093 181.311 44.8593 181.593 45.8193 181.593C46.4313 181.593 46.9713 181.539 47.4393 181.431C47.9193 181.311 48.4113 181.143 48.9153 180.927V182.313C48.4233 182.529 47.9373 182.685 47.4573 182.781C46.9773 182.889 46.4073 182.943 45.7473 182.943C44.8353 182.943 44.0253 182.757 43.3173 182.385C42.6213 182.013 42.0753 181.461 41.6793 180.729C41.2953 179.985 41.1033 179.079 41.1033 178.011C41.1033 176.955 41.2773 176.049 41.6253 175.293C41.9853 174.537 42.4833 173.955 43.1193 173.547C43.7673 173.139 44.5173 172.935 45.3693 172.935ZM45.3513 174.231C44.5953 174.231 43.9953 174.477 43.5513 174.969C43.1193 175.449 42.8613 176.121 42.7773 176.985H47.6913C47.6793 176.169 47.4873 175.509 47.1153 175.005C46.7433 174.489 46.1553 174.231 45.3513 174.231ZM63.3774 173.115L59.3994 177.795L63.7194 182.763H61.9194L57.7434 177.867V182.763H56.2674V177.867L52.0914 182.763H50.2914L54.6114 177.795L50.6334 173.115H52.3614L56.2674 177.795V173.115H57.7434V177.795L61.6674 173.115H63.3774ZM74.1954 173.583C75.0954 173.583 75.7734 173.715 76.2294 173.979C76.6854 174.231 76.9974 174.687 77.1654 175.347C77.3454 175.995 77.4354 176.967 77.4354 178.263C77.4354 179.571 77.3454 180.561 77.1654 181.233C76.9854 181.893 76.6674 182.361 76.2114 182.637C75.7554 182.901 75.0834 183.033 74.1954 183.033C73.5954 183.033 73.0974 182.997 72.7014 182.925C72.3054 182.865 71.9694 182.757 71.6934 182.601V185.733L69.8934 185.949V173.763H70.7214L71.1354 174.519C71.3874 174.159 71.7474 173.913 72.2154 173.781C72.6834 173.649 73.3434 173.583 74.1954 173.583ZM75.5454 175.059H72.5214C72.2094 175.059 71.9934 175.089 71.8734 175.149C71.7534 175.197 71.6934 175.287 71.6934 175.419V181.557H74.7174C75.0414 181.557 75.2574 181.527 75.3654 181.467C75.4854 181.407 75.5454 181.287 75.5454 181.107V175.059ZM83.4895 173.583C84.3175 173.583 84.9715 173.667 85.4515 173.835C85.9315 173.991 86.2735 174.255 86.4775 174.627C86.6935 174.987 86.8015 175.479 86.8015 176.103V182.763H85.9735L85.4875 181.863C85.0555 182.235 84.5755 182.511 84.0475 182.691C83.5315 182.859 82.9375 182.943 82.2655 182.943C81.2695 182.943 80.5615 182.739 80.1415 182.331C79.7215 181.911 79.5115 181.215 79.5115 180.243C79.5115 179.367 79.6315 178.737 79.8715 178.353C80.1115 177.969 80.5795 177.711 81.2755 177.579C81.9835 177.447 83.1355 177.381 84.7315 177.381H85.0015V175.203C84.5575 175.071 83.9515 175.005 83.1835 175.005C82.2235 175.005 81.2095 175.149 80.1415 175.437L79.9075 174.123C80.3515 173.967 80.9035 173.841 81.5635 173.745C82.2235 173.637 82.8655 173.583 83.4895 173.583ZM83.5615 181.557C84.1255 181.557 84.5035 181.485 84.6955 181.341C84.8995 181.197 85.0015 180.921 85.0015 180.513V178.551H82.6075C82.0435 178.551 81.6595 178.623 81.4555 178.767C81.2515 178.911 81.1495 179.187 81.1495 179.595V181.557H83.5615ZM96.3221 173.763L93.7481 182.223C93.4601 183.171 93.1541 183.909 92.8301 184.437C92.5061 184.965 92.1221 185.343 91.6781 185.571C91.2341 185.799 90.6761 185.913 90.0041 185.913C89.4161 185.913 88.8941 185.847 88.4381 185.715L88.5101 184.761L89.7521 184.599C90.2201 184.539 90.5741 184.449 90.8141 184.329C91.0661 184.221 91.2701 184.047 91.4261 183.807C91.5821 183.567 91.7261 183.219 91.8581 182.763L92.0201 182.223H91.0121L88.4381 173.763H90.2201L92.2901 180.693H92.4701L94.5401 173.763H96.3221ZM106.856 173.583C107.756 173.583 108.434 173.715 108.89 173.979C109.346 174.231 109.658 174.687 109.826 175.347C110.006 175.995 110.096 176.967 110.096 178.263C110.096 179.571 110.006 180.561 109.826 181.233C109.646 181.893 109.328 182.361 108.872 182.637C108.416 182.901 107.744 183.033 106.856 183.033C106.256 183.033 105.758 182.997 105.362 182.925C104.966 182.865 104.63 182.757 104.354 182.601V185.733L102.554 185.949V173.763H103.382L103.796 174.519C104.048 174.159 104.408 173.913 104.876 173.781C105.344 173.649 106.004 173.583 106.856 173.583ZM108.206 175.059H105.182C104.87 175.059 104.654 175.089 104.534 175.149C104.414 175.197 104.354 175.287 104.354 175.419V181.557H107.378C107.702 181.557 107.918 181.527 108.026 181.467C108.146 181.407 108.206 181.287 108.206 181.107V175.059ZM116.15 173.583C116.978 173.583 117.632 173.667 118.112 173.835C118.592 173.991 118.934 174.255 119.138 174.627C119.354 174.987 119.462 175.479 119.462 176.103V182.763H118.634L118.148 181.863C117.716 182.235 117.236 182.511 116.708 182.691C116.192 182.859 115.598 182.943 114.926 182.943C113.93 182.943 113.222 182.739 112.802 182.331C112.382 181.911 112.172 181.215 112.172 180.243C112.172 179.367 112.292 178.737 112.532 178.353C112.772 177.969 113.24 177.711 113.936 177.579C114.644 177.447 115.796 177.381 117.392 177.381H117.662V175.203C117.218 175.071 116.612 175.005 115.844 175.005C114.884 175.005 113.87 175.149 112.802 175.437L112.568 174.123C113.012 173.967 113.564 173.841 114.224 173.745C114.884 173.637 115.526 173.583 116.15 173.583ZM116.222 181.557C116.786 181.557 117.164 181.485 117.356 181.341C117.56 181.197 117.662 180.921 117.662 180.513V178.551H115.268C114.704 178.551 114.32 178.623 114.116 178.767C113.912 178.911 113.81 179.187 113.81 179.595V181.557H116.222ZM124.32 181.431C124.56 181.467 124.836 181.497 125.148 181.521L125.04 182.745C124.596 182.877 124.2 182.943 123.852 182.943C123.396 182.943 123.06 182.835 122.844 182.619C122.628 182.391 122.52 182.049 122.52 181.593V171.063L124.32 170.793V181.431Z" fill="black"/>
<defs>
<clipPath id="clip0_2:234">
<rect width="81.4555" height="59.0776" fill="white" transform="translate(67.1337)"/>
</clipPath>
</defs>
</svg>
