<svg width="86" height="87" viewBox="0 0 86 87" fill="none" xmlns="http://www.w3.org/2000/svg">
<g clip-path="url(#clip0_2:164)">
<path d="M72.0513 20.4233C72.0993 22.5618 72.1468 24.6645 72.1906 26.7843C72.1983 27.1269 72.1891 27.4707 72.2082 27.8141C72.2571 28.6362 72.5828 28.8165 73.2743 28.3577C75.1211 27.1306 76.9489 25.8993 78.7994 24.6632C80.5745 23.4769 82.3511 22.2915 84.1291 21.107C85.1455 20.4305 85.1513 20.2029 84.1297 19.56C80.4578 17.229 76.777 14.903 73.0874 12.5823C72.8392 12.4267 72.3786 12.2419 72.2414 12.3488C72.0306 12.513 71.9275 12.9162 71.9286 13.22C71.9334 15.1431 71.9795 17.067 72.0141 18.9981L68.9331 19.1683C68.43 19.1967 67.998 19.3573 68.0254 19.9476C68.0529 20.5379 68.5078 20.6484 69.0093 20.6197C70.0049 20.5573 70.9901 20.4975 72.0513 20.4233ZM83.4629 20.3131L73.2285 27.158L72.9507 13.6828L83.4629 20.3131Z" fill="#EF552F"/>
<path d="M47.0787 26.1884C47.1798 26.3968 47.232 26.6937 47.411 26.8246C47.5152 26.8964 47.6342 26.9443 47.7594 26.965C47.8845 26.9857 48.0126 26.9785 48.1341 26.944C49.0576 26.5257 49.9555 26.0554 50.8232 25.5356C51.0259 25.4167 51.1803 24.8979 51.0789 24.6911C50.9775 24.4843 50.4511 24.2123 50.2592 24.2961C49.2834 24.7215 48.353 25.2443 47.4157 25.7526C47.2916 25.8217 47.2248 25.9941 47.0787 26.1884Z" fill="#EF552F"/>
<path d="M64.4694 19.5575C63.2879 19.791 62.2082 19.975 61.1565 20.2526C60.9598 20.3045 60.7086 20.7961 60.7715 20.9817C60.8619 21.2316 61.2611 21.564 61.4958 21.5429C62.5057 21.4508 63.5067 21.2857 64.4906 21.049C64.7159 20.9951 64.9624 20.5642 64.9752 20.2959C64.9845 20.0673 64.6666 19.8271 64.4694 19.5575Z" fill="#EF552F"/>
<path d="M53.8115 22.9942C53.7102 23.5975 54.185 24.0484 54.7055 23.8922C55.6591 23.6178 56.5958 23.2908 57.5112 22.913C57.7426 22.8149 57.9831 22.3502 57.9293 22.1147C57.8755 21.8791 57.3924 21.5287 57.2056 21.5812C56.1728 21.8628 55.1677 22.2397 54.1673 22.6176C53.9958 22.6831 53.8872 22.9115 53.8115 22.9942Z" fill="#EF552F"/>
<path d="M34.5737 33.6259C34.6624 33.8072 34.7157 34.1222 34.8965 34.2292C35.1095 34.3561 35.5176 34.4225 35.6934 34.306C36.547 33.7587 37.3639 33.1586 38.1394 32.5094C38.3177 32.3577 38.3539 31.8573 38.2372 31.6212C38.1501 31.4402 37.6046 31.2729 37.4456 31.3735C36.5237 31.9566 35.6542 32.6125 34.7726 33.2627C34.6968 33.3146 34.6718 33.4391 34.5737 33.6259Z" fill="#EF552F"/>
<path d="M6.90207 61.7186C6.73632 61.472 6.62514 61.1332 6.39051 61.0147C6.19505 60.9143 5.73713 60.9719 5.61782 61.1265C4.97254 61.9632 4.37712 62.836 3.83453 63.7407C3.72799 63.9208 3.87061 64.414 4.05808 64.5517C4.24555 64.6893 4.79685 64.6907 4.91165 64.5416C5.60023 63.6715 6.2012 62.7387 6.90207 61.7186Z" fill="#EF552F"/>
<path d="M23.0966 42.5413C23.1713 42.6953 23.2252 43.0153 23.4072 43.1242C23.6174 43.2488 24.0453 43.3081 24.1979 43.1834C25.0234 42.5149 25.8084 41.7998 26.549 41.0417C26.6956 40.8913 26.6545 40.4036 26.5121 40.1945C26.4002 40.0292 25.8752 39.9052 25.7465 40.0108C24.8661 40.7326 24.04 41.518 23.1992 42.2873C23.1608 42.3196 23.1567 42.3772 23.0966 42.5413Z" fill="#EF552F"/>
<path d="M8.45034 58.7408C8.5955 58.6664 8.89776 58.5932 9.07547 58.4057C9.707 57.764 10.293 57.0805 10.8296 56.36C10.9979 56.1234 10.8609 55.6735 10.8635 55.3218C10.5046 55.3422 10.012 55.2219 9.81298 55.4081C9.14645 56.0515 8.53151 56.7445 7.97355 57.481C7.59281 57.974 7.79124 58.5701 8.45034 58.7408Z" fill="#EF552F"/>
<path d="M40.7512 29.4457C40.628 30.0199 41.0698 30.5546 41.5113 30.3652C42.5398 29.9202 43.5355 29.4064 44.4915 28.8276C44.655 28.7296 44.6803 28.1717 44.5548 27.9305C44.466 27.7572 43.9593 27.6177 43.7461 27.7083C42.8183 28.118 41.9262 28.6166 41.0369 29.0946C40.917 29.19 40.8196 29.3097 40.7512 29.4457Z" fill="#EF552F"/>
<path d="M12.7323 52.7173C12.8152 52.8715 12.8874 53.2068 13.0868 53.3194C13.2863 53.432 13.7298 53.4573 13.8852 53.3121C14.661 52.6263 15.3916 51.8927 16.0724 51.1158C16.2201 50.9445 16.1552 50.429 15.9923 50.2154C15.872 50.0581 15.307 49.997 15.1562 50.1286C14.3614 50.8298 13.6334 51.6055 12.887 52.3593C12.8209 52.472 12.769 52.5922 12.7323 52.7173Z" fill="#EF552F"/>
<path d="M0.465577 70.3718C0.616397 70.5876 0.777774 71.0475 0.989549 71.0718C1.29483 71.1081 1.79891 70.9127 1.92961 70.6664C2.35523 69.8546 2.70372 69.0056 2.97069 68.13C3.04713 67.8818 2.83055 67.3548 2.61251 67.2593C2.39447 67.1638 1.81638 67.3336 1.70184 67.5509C1.25411 68.3948 0.919001 69.3083 0.465577 70.3718Z" fill="#EF552F"/>
<path d="M28.5852 37.7126C28.6724 37.9082 28.7149 38.2274 28.8941 38.3421C29.099 38.4754 29.501 38.5551 29.6836 38.445C30.548 37.9277 31.3771 37.3562 32.166 36.734C32.35 36.5868 32.4026 36.0867 32.2927 35.8424C32.2135 35.663 31.6692 35.4748 31.506 35.5713C30.5737 36.1262 29.6939 36.7605 28.7996 37.3771C28.7115 37.4777 28.6393 37.5908 28.5852 37.7126Z" fill="#EF552F"/>
<path d="M20.6143 44.7931C20.4765 44.8642 20.185 44.9413 19.9952 45.123C19.369 45.7256 18.7688 46.3615 18.1652 46.9901C17.8261 47.3427 17.7104 47.8049 18.1444 48.0749C18.3854 48.2256 18.9532 48.1656 19.1849 47.9735C19.8596 47.3793 20.4919 46.7404 21.0777 46.0614C21.5267 45.5668 21.3534 44.9614 20.6143 44.7931Z" fill="#EF552F"/>
</g>
<defs>
<clipPath id="clip0_2:164">
<rect width="72.0604" height="72.4329" fill="white" transform="matrix(-0.977752 -0.209765 -0.209765 0.977752 85.9962 15.2275)"/>
</clipPath>
</defs>
</svg>
